<svg width="157" height="232" viewBox="0 0 157 232" fill="none" xmlns="http://www.w3.org/2000/svg">
<path d="M121.152 110.88C139.392 100 148.992 82.4001 148.992 61.2801C148.992 25.7601 119.552 0.800049 76.9925 0.800049C33.7925 0.800049 5.63249 25.1201 4.67249 62.5601H41.7925C42.1125 46.8801 55.2325 35.36 76.0325 35.36C97.4725 35.36 111.872 47.84 111.872 65.1201C111.872 82.72 97.4725 95.2001 76.9925 95.2001H53.9525V129.12H76.9925C103.232 129.12 119.232 141.92 119.232 162.4C119.232 182.56 103.552 195.36 77.9525 195.36C53.6325 195.36 39.2325 182.88 38.2725 163.68H0.832489C2.11249 204.32 32.1925 231.2 78.9125 231.2C124.993 231.2 156.993 204.64 156.993 166.56C156.993 141.92 143.872 121.44 121.152 110.88Z" fill="url(#paint0_linear_3130_5)"/>
<defs>
<linearGradient id="paint0_linear_3130_5" x1="-11" y1="-46.001" x2="262.472" y2="107.827" gradientUnits="userSpaceOnUse">
<stop stop-color="#DBE0ED" stop-opacity="0.04"/>
<stop offset="1" stop-color="#DBE0ED" stop-opacity="0.32"/>
</linearGradient>
</defs>
</svg>
