<svg width="16" height="16" viewBox="0 0 16 16" fill="none" xmlns="http://www.w3.org/2000/svg">
<path d="M2.60493 5.76788L1.95767 5.389H1.95767L2.60493 5.76788ZM13.3951 5.76788L14.0423 5.389V5.389L13.3951 5.76788ZM13.3951 10.2328L12.7478 9.85389L13.3951 10.2328ZM2.60493 10.2328L3.2522 9.85389L2.60493 10.2328ZM3.2522 6.14676C5.3827 2.50707 10.6173 2.50707 12.7478 6.14676L14.0423 5.389C11.3325 0.759655 4.66746 0.759654 1.95767 5.389L3.2522 6.14676ZM12.7478 6.14676C13.4174 7.29068 13.4174 8.70997 12.7478 9.85389L14.0423 10.6116C14.9859 8.9997 14.9859 7.00095 14.0423 5.389L12.7478 6.14676ZM12.7478 9.85389C10.6173 13.4936 5.38269 13.4936 3.2522 9.85389L1.95767 10.6116C4.66746 15.241 11.3325 15.241 14.0423 10.6116L12.7478 9.85389ZM3.2522 9.85389C2.5826 8.70997 2.5826 7.29068 3.2522 6.14676L1.95767 5.389C1.01411 7.00095 1.01411 8.9997 1.95767 10.6116L3.2522 9.85389ZM9.62113 8.04079C9.62113 8.96773 8.88413 9.69917 7.99963 9.69917V11.1992C9.73412 11.1992 11.1211 9.77442 11.1211 8.04079H9.62113ZM7.99963 9.69917C7.11543 9.69917 6.37888 8.96804 6.37888 8.04079H4.87888C4.87888 9.77411 6.26482 11.1992 7.99963 11.1992V9.69917ZM6.37888 8.04079C6.37888 7.11262 7.11558 6.38165 7.99963 6.38165V4.88165C6.26467 4.88165 4.87888 6.30687 4.87888 8.04079H6.37888ZM7.99963 6.38165C8.88397 6.38165 9.62113 7.11293 9.62113 8.04079H11.1211C11.1211 6.30655 9.73428 4.88165 7.99963 4.88165V6.38165Z" fill="white"/>
</svg>
