<svg width="440" height="480" viewBox="0 0 440 480" fill="none" xmlns="http://www.w3.org/2000/svg">
<path fill-rule="evenodd" clip-rule="evenodd" d="M440 163.837V315.974C440.024 331.414 435.969 346.586 428.244 359.963C420.518 373.34 409.395 384.448 395.995 392.168L263.98 468.211C250.606 475.934 235.427 480 219.975 480C204.523 480 189.344 475.934 175.97 468.211L44.005 391.968C30.6205 384.269 19.5057 373.186 11.7803 359.836C4.05488 346.486 -0.00833819 331.34 1.28468e-05 315.924V163.837C0.00180962 148.424 4.06925 133.282 11.7936 119.933C19.518 106.585 30.6273 95.5006 44.005 87.7937L175.97 11.7502C189.352 4.0522 204.528 0 219.975 0C235.422 0 250.597 4.0522 263.98 11.7502L395.995 87.7937C409.362 95.5122 420.463 106.599 428.186 119.945C435.909 133.291 439.983 148.427 440 163.837ZM344 196.841V283.052C344.014 291.801 341.728 300.399 337.374 307.979C333.019 315.559 326.75 321.854 319.197 326.228L244.789 369.32C237.25 373.696 228.695 376 219.986 376C211.277 376 202.721 373.696 195.183 369.32L120.803 326.115C113.259 321.752 106.994 315.472 102.64 307.907C98.2855 300.342 95.9953 291.759 96 283.024V196.841C96.001 188.107 98.2936 179.526 102.647 171.962C107.001 164.398 113.263 158.117 120.803 153.75L195.183 110.658C202.726 106.296 211.279 104 219.986 104C228.692 104 237.246 106.296 244.789 110.658L319.197 153.75C326.731 158.124 332.988 164.406 337.341 171.969C341.694 179.531 343.99 188.108 344 196.841Z" fill="url(#paint0_linear_149_695)"/>
<defs>
<linearGradient id="paint0_linear_149_695" x1="1.54929" y1="-0.00146952" x2="479.738" y2="438.338" gradientUnits="userSpaceOnUse">
<stop stop-color="#DBE0ED" stop-opacity="0.04"/>
<stop offset="1" stop-color="#DBE0ED" stop-opacity="0.32"/>
</linearGradient>
</defs>
</svg>
