<svg width="40" height="40" viewBox="0 0 40 40" fill="none" xmlns="http://www.w3.org/2000/svg">
<path d="M17.0091 25.9034L17.0929 25.1581L16.1956 25.0572L16.2611 25.9578L17.0091 25.9034ZM22.9909 25.9034L23.7389 25.9578L23.8044 25.0572L22.9071 25.1581L22.9909 25.9034ZM22.9001 26.4772L23.6285 26.6563L22.9001 26.4772ZM22.8182 26.8106L22.0899 26.6315L22.8182 26.8106ZM20.7039 28.917L20.8784 29.6464H20.8784L20.7039 28.917ZM19.2961 28.917L19.1216 29.6464H19.1216L19.2961 28.917ZM17.1818 26.8106L16.4535 26.9896L17.1818 26.8106ZM17.0999 26.4772L17.8282 26.2981H17.8282L17.0999 26.4772ZM14.0278 16.6326L14.7517 16.8287L14.0278 16.6326ZM18.1584 12.3022L18.3896 13.0157L18.1584 12.3022ZM13.4375 18.8112L12.7136 18.6151L12.709 18.6322L12.7051 18.6495L13.4375 18.8112ZM12.9702 20.9275L13.7026 21.0892V21.0892L12.9702 20.9275ZM14.2876 25.4572L14.4373 24.7223L14.2876 25.4572ZM14.6552 25.5321L14.8049 24.7971H14.8049L14.6552 25.5321ZM25.3448 25.5321L25.1951 24.7971H25.1951L25.3448 25.5321ZM25.7124 25.4572L25.8621 26.1921L25.7124 25.4572ZM27.0298 20.9275L26.2974 21.0892V21.0892L27.0298 20.9275ZM26.5625 18.8112L27.2949 18.6495L27.2917 18.6351L27.2879 18.6209L26.5625 18.8112ZM25.9793 16.5883L25.2539 16.7787L25.9793 16.5883ZM21.9671 12.3084L22.2023 11.5962V11.5962L21.9671 12.3084ZM27.4728 22.9094L26.7318 23.0254L27.4728 22.9094ZM12.5272 22.9094L11.7862 22.7934L12.5272 22.9094ZM20.75 11C20.75 10.5858 20.4142 10.25 20 10.25C19.5858 10.25 19.25 10.5858 19.25 11H20.75ZM19.25 12.0047C19.25 12.419 19.5858 12.7547 20 12.7547C20.4142 12.7547 20.75 12.419 20.75 12.0047H19.25ZM16.9253 26.6487C18.9687 26.8784 21.0313 26.8784 23.0747 26.6487L22.9071 25.1581C20.9751 25.3753 19.0249 25.3753 17.0929 25.1581L16.9253 26.6487ZM23.6285 26.6563C23.6849 26.4268 23.7218 26.1932 23.7389 25.9578L22.2429 25.849C22.2319 26.0003 22.2081 26.1506 22.1718 26.2981L23.6285 26.6563ZM23.5465 26.9896L23.6285 26.6563L22.1718 26.2981L22.0899 26.6315L23.5465 26.9896ZM20.8784 29.6464C22.1945 29.3315 23.223 28.3052 23.5465 26.9896L22.0899 26.6315C21.8997 27.4047 21.2965 28.004 20.5294 28.1875L20.8784 29.6464ZM19.1216 29.6464C19.6991 29.7845 20.3009 29.7845 20.8784 29.6464L20.5294 28.1875C20.1813 28.2708 19.8187 28.2708 19.4706 28.1875L19.1216 29.6464ZM16.4535 26.9896C16.777 28.3052 17.8055 29.3315 19.1216 29.6464L19.4706 28.1875C18.7035 28.004 18.1003 27.4047 17.9101 26.6315L16.4535 26.9896ZM16.3715 26.6563L16.4535 26.9896L17.9101 26.6315L17.8282 26.2981L16.3715 26.6563ZM16.2611 25.9578C16.2782 26.1932 16.3151 26.4268 16.3715 26.6563L17.8282 26.2981C17.7919 26.1506 17.7681 26.0003 17.7571 25.849L16.2611 25.9578ZM14.7517 16.8287C15.2392 15.0293 16.6205 13.5891 18.3896 13.0157L17.9271 11.5888C15.6795 12.3173 13.925 14.1442 13.3039 16.4364L14.7517 16.8287ZM14.1614 19.0073L14.7517 16.8287L13.3039 16.4364L12.7136 18.6151L14.1614 19.0073ZM13.7026 21.0892L14.1699 18.9729L12.7051 18.6495L12.2378 20.7658L13.7026 21.0892ZM13.25 23.2604C13.25 23.1799 13.2563 23.1015 13.2682 23.0254L11.7862 22.7934C11.7623 22.946 11.75 23.102 11.75 23.2604H13.25ZM14.4373 24.7223C13.7489 24.582 13.25 23.9725 13.25 23.2604H11.75C11.75 24.6807 12.7462 25.9085 14.1379 26.1921L14.4373 24.7223ZM14.8049 24.7971L14.4373 24.7223L14.1379 26.1921L14.5055 26.267L14.8049 24.7971ZM25.1951 24.7971C21.7666 25.4956 18.2334 25.4956 14.8049 24.7971L14.5055 26.267C18.1316 27.0057 21.8684 27.0057 25.4945 26.267L25.1951 24.7971ZM25.5627 24.7223L25.1951 24.7971L25.4945 26.267L25.8621 26.1921L25.5627 24.7223ZM26.75 23.2604C26.75 23.9725 26.2511 24.582 25.5627 24.7223L25.8621 26.1921C27.2538 25.9085 28.25 24.6807 28.25 23.2604H26.75ZM26.7318 23.0254C26.7437 23.1015 26.75 23.1799 26.75 23.2604H28.25C28.25 23.102 28.2377 22.946 28.2138 22.7934L26.7318 23.0254ZM25.8301 18.9729L26.2974 21.0892L27.7622 20.7658L27.2949 18.6495L25.8301 18.9729ZM25.2539 16.7787L25.8371 19.0015L27.2879 18.6209L26.7047 16.398L25.2539 16.7787ZM21.7319 13.0205C23.4622 13.592 24.7887 15.0057 25.2539 16.7787L26.7047 16.398C26.1113 14.1359 24.4174 12.3278 22.2023 11.5962L21.7319 13.0205ZM18.3896 13.0157C19.474 12.6642 20.6528 12.6642 21.7319 13.0205L22.2023 11.5962C20.8171 11.1387 19.3114 11.14 17.9271 11.5888L18.3896 13.0157ZM28.2138 22.7934C28.1066 22.1089 27.8899 21.3445 27.7622 20.7658L26.2974 21.0892C26.4575 21.8142 26.6325 22.3907 26.7318 23.0254L28.2138 22.7934ZM12.2378 20.7658C12.1101 21.3445 11.8934 22.1089 11.7862 22.7934L13.2682 23.0254C13.3675 22.3907 13.5425 21.8142 13.7026 21.0892L12.2378 20.7658ZM19.25 11V12.0047H20.75V11H19.25Z" fill="#8089AC"/>
<circle cx="28" cy="12" r="5" fill="#4341CC" stroke="white" stroke-width="2"/>
</svg>
