<svg width="144" height="144" viewBox="0 0 144 144" fill="none" xmlns="http://www.w3.org/2000/svg">
<g filter="url(#filter0_d)">
<rect x="16" y="6.10352e-05" width="112" height="112" rx="12" fill="white"/>
</g>
<path d="M58.0653 74.3727L58.0727 74.3751L55.3682 79.0894C54.381 80.8102 52.1944 81.3999 50.4845 80.4063C48.7747 79.4129 48.1888 77.2123 49.176 75.4915L51.1684 72.0186L51.3595 71.6853C51.701 71.1913 52.5437 70.339 54.2292 70.4991C54.2292 70.4991 58.1957 70.9324 58.4827 73.0071C58.4828 73.0071 58.5219 73.6899 58.0653 74.3727ZM96.4249 62.3316H87.9911C87.4169 62.2929 87.1659 62.0865 87.0675 61.9665L87.0613 61.9556L78.0332 46.2185L78.0215 46.2264L77.48 45.4451C76.5927 44.0795 75.1837 47.5723 75.1837 47.5723C73.5013 51.4643 75.4224 55.8893 76.0923 57.2267L88.6317 79.0845C89.6188 80.8054 91.8054 81.395 93.5153 80.4014C95.2251 79.408 95.811 77.2074 94.8238 75.4866L91.6882 70.0209C91.6275 69.8885 91.5217 69.5289 92.1648 69.5275H96.4249C98.3993 69.5275 99.9999 67.9166 99.9999 65.9295C99.9999 63.9425 98.3993 62.3316 96.4249 62.3316ZM80.0439 67.2229C80.0439 67.2229 80.494 69.5274 78.7522 69.5274H77.0103V69.5275H47.575C45.6006 69.5275 43.9999 67.9166 43.9999 65.9295C43.9999 63.9425 45.6006 62.3316 47.575 62.3316H55.5903C56.8844 62.2561 57.1912 61.5044 57.1912 61.5044L57.1982 61.508L67.6609 43.2701L67.6577 43.2695C67.8485 42.9172 67.6897 42.5843 67.662 42.5316L64.2068 36.5086C63.2195 34.7878 63.8054 32.5873 65.5153 31.5938C67.2252 30.6003 69.4116 31.1899 70.3989 32.9107L72.0014 35.7042L73.6011 32.9157C74.5882 31.1949 76.7748 30.6052 78.4847 31.5988C80.1946 32.5924 80.7804 34.7928 79.7932 36.5136L65.2341 61.8919C65.1705 62.0464 65.151 62.2889 65.6246 62.3316H74.3272L74.329 62.4169C74.329 62.4169 79.3589 62.4957 80.0439 67.2229Z" fill="#1D76F2"/>
<defs>
<filter id="filter0_d" x="0" y="6.10352e-05" width="144" height="144" filterUnits="userSpaceOnUse" color-interpolation-filters="sRGB">
<feFlood flood-opacity="0" result="BackgroundImageFix"/>
<feColorMatrix in="SourceAlpha" type="matrix" values="0 0 0 0 0 0 0 0 0 0 0 0 0 0 0 0 0 0 127 0" result="hardAlpha"/>
<feMorphology radius="8" operator="erode" in="SourceAlpha" result="effect1_dropShadow"/>
<feOffset dy="16"/>
<feGaussianBlur stdDeviation="12"/>
<feComposite in2="hardAlpha" operator="out"/>
<feColorMatrix type="matrix" values="0 0 0 0 0.113725 0 0 0 0 0.462745 0 0 0 0 0.94902 0 0 0 0.24 0"/>
<feBlend mode="normal" in2="BackgroundImageFix" result="effect1_dropShadow"/>
<feBlend mode="normal" in="SourceGraphic" in2="effect1_dropShadow" result="shape"/>
</filter>
</defs>
</svg>
