<svg width="1920" height="1024" viewBox="0 0 1920 1024" fill="none" xmlns="http://www.w3.org/2000/svg">
<rect width="1200" height="1024" fill="#161E34"/>
<g filter="url(#filter0_f_63_53)">
<circle r="240" fill="#01D3F0"/>
</g>
<g filter="url(#filter1_f_63_53)">
<circle cx="1200" cy="1024" r="310" fill="#4341CC"/>
</g>
<path d="M516 702.909C410.564 702.909 325.091 617.436 325.091 512C325.091 406.564 410.564 321.091 516 321.091" stroke="url(#paint0_linear_63_53)" stroke-dasharray="2 4"/>
<path d="M516 779.273C368.389 779.273 248.727 659.611 248.727 512C248.727 364.389 368.389 244.727 516 244.727" stroke="url(#paint1_linear_63_53)" stroke-dasharray="2 4"/>
<path d="M516 855.636C326.215 855.636 172.364 701.785 172.364 512C172.364 322.215 326.215 168.364 516 168.364" stroke="url(#paint2_linear_63_53)" stroke-dasharray="2 4"/>
<path d="M516 932C284.04 932 96 743.96 96 512C96 280.04 284.04 92 516 92" stroke="url(#paint3_linear_63_53)" stroke-dasharray="2 4"/>
<path d="M684 321.091C789.436 321.091 874.909 406.564 874.909 512C874.909 617.436 789.436 702.909 684 702.909" stroke="url(#paint4_linear_63_53)" stroke-dasharray="2 4"/>
<path d="M684 244.727C831.611 244.727 951.273 364.389 951.273 512C951.273 659.611 831.611 779.273 684 779.273" stroke="url(#paint5_linear_63_53)" stroke-dasharray="2 4"/>
<path d="M684 168.364C873.785 168.364 1027.64 322.215 1027.64 512C1027.64 701.785 873.785 855.636 684 855.636" stroke="url(#paint6_linear_63_53)" stroke-dasharray="2 4"/>
<path d="M684 92C915.96 92 1104 280.04 1104 512C1104 743.96 915.96 932 684 932" stroke="url(#paint7_linear_63_53)" stroke-dasharray="2 4"/>
<defs>
<filter id="filter0_f_63_53" x="-860" y="-860" width="1720" height="1720" filterUnits="userSpaceOnUse" color-interpolation-filters="sRGB">
<feFlood flood-opacity="0" result="BackgroundImageFix"/>
<feBlend mode="normal" in="SourceGraphic" in2="BackgroundImageFix" result="shape"/>
<feGaussianBlur stdDeviation="310" result="effect1_foregroundBlur_63_53"/>
</filter>
<filter id="filter1_f_63_53" x="410" y="234" width="1580" height="1580" filterUnits="userSpaceOnUse" color-interpolation-filters="sRGB">
<feFlood flood-opacity="0" result="BackgroundImageFix"/>
<feBlend mode="normal" in="SourceGraphic" in2="BackgroundImageFix" result="shape"/>
<feGaussianBlur stdDeviation="240" result="effect1_foregroundBlur_63_53"/>
</filter>
<linearGradient id="paint0_linear_63_53" x1="516" y1="512" x2="325.091" y2="512" gradientUnits="userSpaceOnUse">
<stop stop-color="white" stop-opacity="0"/>
<stop offset="1" stop-color="white" stop-opacity="0.08"/>
</linearGradient>
<linearGradient id="paint1_linear_63_53" x1="516" y1="512" x2="248.727" y2="512" gradientUnits="userSpaceOnUse">
<stop stop-color="white" stop-opacity="0"/>
<stop offset="1" stop-color="white" stop-opacity="0.08"/>
</linearGradient>
<linearGradient id="paint2_linear_63_53" x1="516" y1="512" x2="172.364" y2="512" gradientUnits="userSpaceOnUse">
<stop stop-color="white" stop-opacity="0"/>
<stop offset="1" stop-color="white" stop-opacity="0.08"/>
</linearGradient>
<linearGradient id="paint3_linear_63_53" x1="516" y1="512" x2="96" y2="512" gradientUnits="userSpaceOnUse">
<stop stop-color="white" stop-opacity="0"/>
<stop offset="1" stop-color="white" stop-opacity="0.08"/>
</linearGradient>
<linearGradient id="paint4_linear_63_53" x1="684" y1="512" x2="874.909" y2="512" gradientUnits="userSpaceOnUse">
<stop stop-color="white" stop-opacity="0"/>
<stop offset="1" stop-color="white" stop-opacity="0.08"/>
</linearGradient>
<linearGradient id="paint5_linear_63_53" x1="684" y1="512" x2="951.273" y2="512" gradientUnits="userSpaceOnUse">
<stop stop-color="white" stop-opacity="0"/>
<stop offset="1" stop-color="white" stop-opacity="0.08"/>
</linearGradient>
<linearGradient id="paint6_linear_63_53" x1="684" y1="512" x2="1027.64" y2="512" gradientUnits="userSpaceOnUse">
<stop stop-color="white" stop-opacity="0"/>
<stop offset="1" stop-color="white" stop-opacity="0.08"/>
</linearGradient>
<linearGradient id="paint7_linear_63_53" x1="684" y1="512" x2="1104" y2="512" gradientUnits="userSpaceOnUse">
<stop stop-color="white" stop-opacity="0"/>
<stop offset="1" stop-color="white" stop-opacity="0.08"/>
</linearGradient>
</defs>
</svg>
