<svg width="40" height="40" viewBox="0 0 40 40" fill="none" xmlns="http://www.w3.org/2000/svg">
<circle opacity="0.12" cx="20" cy="20" r="20" fill="#5135FA"/>
<path d="M14.2353 22.033L14.9654 21.8618L14.2353 22.033ZM14.2353 17.967L14.9654 18.1382L14.2353 17.967ZM25.7647 17.967L25.0346 18.1382L25.7647 17.967ZM25.7647 22.033L26.4949 22.2043L25.7647 22.033ZM22.033 25.7647L21.8618 25.0346L22.033 25.7647ZM17.967 25.7647L17.7957 26.4949L17.967 25.7647ZM17.967 14.2353L18.1382 14.9654L17.967 14.2353ZM22.033 14.2353L21.8618 14.9654L22.033 14.2353ZM19.25 22.0805C19.25 22.4948 19.5858 22.8305 20 22.8305C20.4142 22.8305 20.75 22.4948 20.75 22.0805H19.25ZM17.9195 17.1695C17.5052 17.1695 17.1695 17.5052 17.1695 17.9195C17.1695 18.3337 17.5052 18.6695 17.9195 18.6695V17.1695ZM22.0805 18.6695C22.4948 18.6695 22.8305 18.3337 22.8305 17.9195C22.8305 17.5052 22.4948 17.1695 22.0805 17.1695V18.6695ZM14.9654 21.8618C14.6782 20.6372 14.6782 19.3628 14.9654 18.1382L13.5051 17.7957C13.165 19.2455 13.165 20.7545 13.5051 22.2043L14.9654 21.8618ZM25.0346 18.1382C25.3218 19.3628 25.3218 20.6372 25.0346 21.8618L26.4949 22.2043C26.835 20.7545 26.835 19.2456 26.4949 17.7957L25.0346 18.1382ZM21.8618 25.0346C20.6372 25.3218 19.3628 25.3218 18.1382 25.0346L17.7957 26.4949C19.2456 26.835 20.7545 26.835 22.2043 26.4949L21.8618 25.0346ZM18.1382 14.9654C19.3628 14.6782 20.6372 14.6782 21.8618 14.9654L22.2043 13.5051C20.7545 13.165 19.2455 13.165 17.7957 13.5051L18.1382 14.9654ZM18.1382 25.0346C16.5639 24.6653 15.3347 23.4361 14.9654 21.8618L13.5051 22.2043C14.0045 24.3333 15.6667 25.9956 17.7957 26.4949L18.1382 25.0346ZM22.2043 26.4949C24.3333 25.9956 25.9956 24.3333 26.4949 22.2043L25.0346 21.8618C24.6653 23.4361 23.4361 24.6653 21.8618 25.0346L22.2043 26.4949ZM21.8618 14.9654C23.4361 15.3347 24.6653 16.5639 25.0346 18.1382L26.4949 17.7957C25.9956 15.6667 24.3333 14.0045 22.2043 13.5051L21.8618 14.9654ZM17.7957 13.5051C15.6667 14.0045 14.0045 15.6667 13.5051 17.7957L14.9654 18.1382C15.3347 16.5639 16.5639 15.3347 18.1382 14.9654L17.7957 13.5051ZM19.25 17.9195V22.0805H20.75V17.9195H19.25ZM20 17.1695H17.9195V18.6695H20V17.1695ZM20 18.6695H22.0805V17.1695H20V18.6695Z" fill="#5135FA"/>
<path d="M21.3333 20H18.6666" stroke="#5135FA" stroke-width="1.5" stroke-linecap="round"/>
</svg>
