<svg width="192" height="48" viewBox="0 0 192 48" fill="none" xmlns="http://www.w3.org/2000/svg">
<path d="M0.5 12.8C0.5 10.5515 0.500389 8.89526 0.607333 7.58633C0.7138 6.28324 0.923378 5.36848 1.31745 4.59507C2.0365 3.18386 3.18386 2.0365 4.59507 1.31745C5.36848 0.923378 6.28324 0.7138 7.58633 0.607333C8.89526 0.500389 10.5515 0.5 12.8 0.5H179.2C181.448 0.5 183.105 0.500389 184.414 0.607333C185.717 0.7138 186.632 0.923377 187.405 1.31745C188.816 2.0365 189.963 3.18385 190.683 4.59507C191.077 5.36848 191.286 6.28324 191.393 7.58633C191.5 8.89527 191.5 10.5515 191.5 12.8V35.2C191.5 37.4485 191.5 39.1047 191.393 40.4137C191.286 41.7168 191.077 42.6315 190.683 43.4049C189.963 44.8161 188.816 45.9635 187.405 46.6825C186.632 47.0766 185.717 47.2862 184.414 47.3927C183.105 47.4996 181.448 47.5 179.2 47.5H12.8C10.5515 47.5 8.89526 47.4996 7.58633 47.3927C6.28324 47.2862 5.36848 47.0766 4.59507 46.6825C3.18386 45.9635 2.0365 44.8161 1.31745 43.4049C0.923378 42.6315 0.7138 41.7168 0.607333 40.4137C0.500389 39.1047 0.5 37.4485 0.5 35.2V12.8Z" fill="white" stroke="#E8EDF5"/>
<rect x="128" y="12" width="40" height="24" rx="12" fill="#4341CC"/>
<circle cx="156" cy="24" r="10" fill="white"/>
<path d="M26.665 29V21.369H30.253V19.9H25.144V29H26.665ZM33.9201 21.98C32.9451 21.98 32.1001 22.331 31.5021 22.929L31.4761 22.11H30.1111V31.041H31.5541V28.233C32.1521 28.805 32.9711 29.13 33.9201 29.13C35.9611 29.13 37.3651 27.609 37.3651 25.555C37.3651 23.475 35.9351 21.98 33.9201 21.98ZM33.7251 27.778C32.4381 27.778 31.5281 26.868 31.5281 25.555C31.5281 24.242 32.4381 23.332 33.7251 23.332C34.9991 23.332 35.9091 24.242 35.9091 25.555C35.9091 26.868 34.9991 27.778 33.7251 27.778ZM44.0164 22.903C43.4184 22.318 42.5864 21.98 41.6244 21.98C39.6094 21.98 38.1664 23.462 38.1664 25.555C38.1664 27.622 39.5834 29.13 41.6244 29.13C42.5864 29.13 43.4184 28.792 44.0164 28.194L44.0424 29H45.4074V22.11H44.0424L44.0164 22.903ZM41.8064 27.778C40.5454 27.778 39.6354 26.868 39.6354 25.555C39.6354 24.242 40.5454 23.332 41.8064 23.332C43.0804 23.332 43.9904 24.242 43.9904 25.555C43.9904 26.868 43.0804 27.778 41.8064 27.778ZM55.0751 25.568C55.0751 23.54 53.6321 22.071 51.6041 21.993V19.9H50.1611V21.98C48.1331 22.058 46.7031 23.527 46.7031 25.555C46.7031 27.583 48.1331 29.052 50.1611 29.13V31.041H51.6041V29.143C53.6321 29.065 55.0751 27.596 55.0751 25.568ZM48.1591 25.555C48.1591 24.281 49.0041 23.358 50.1871 23.28V27.83C49.0041 27.752 48.1591 26.829 48.1591 25.555ZM51.5781 23.28C52.7741 23.358 53.6061 24.281 53.6061 25.568C53.6061 26.842 52.7741 27.765 51.5781 27.843V23.28ZM57.8112 26.491L57.8242 25.204V22.11H56.3812V29H57.5252L60.9832 24.606L60.9702 26.14V29H62.4132V22.11H61.2692L57.8112 26.491ZM65.6499 29V22.11H64.2069V29H65.6499ZM69.9399 22.214V22.11H68.2889L65.8059 25.386V25.724L68.4319 29H70.1609V28.896L67.3659 25.503L69.9399 22.214ZM76.119 22.903C75.521 22.318 74.689 21.98 73.727 21.98C71.712 21.98 70.269 23.462 70.269 25.555C70.269 27.622 71.686 29.13 73.727 29.13C74.689 29.13 75.521 28.792 76.119 28.194L76.145 29H77.51V22.11H76.145L76.119 22.903ZM73.909 27.778C72.648 27.778 71.738 26.868 71.738 25.555C71.738 24.242 72.648 23.332 73.909 23.332C75.183 23.332 76.093 24.242 76.093 25.555C76.093 26.868 75.183 27.778 73.909 27.778ZM84.6557 22.903C84.0577 22.318 83.2257 21.98 82.2637 21.98C80.2487 21.98 78.8057 23.462 78.8057 25.555C78.8057 27.622 80.2227 29.13 82.2637 29.13C83.2257 29.13 84.0577 28.792 84.6557 28.194L84.6817 29H86.0467V22.11H84.6817L84.6557 22.903ZM82.4457 27.778C81.1847 27.778 80.2747 26.868 80.2747 25.555C80.2747 24.242 81.1847 23.332 82.4457 23.332C83.7197 23.332 84.6297 24.242 84.6297 25.555C84.6297 26.868 83.7197 27.778 82.4457 27.778ZM91.6453 21.98C90.6703 21.98 89.8253 22.331 89.2273 22.929L89.2013 22.11H87.8363V31.041H89.2793V28.233C89.8773 28.805 90.6963 29.13 91.6453 29.13C93.6863 29.13 95.0903 27.609 95.0903 25.555C95.0903 23.475 93.6603 21.98 91.6453 21.98ZM91.4503 27.778C90.1633 27.778 89.2533 26.868 89.2533 25.555C89.2533 24.242 90.1633 23.332 91.4503 23.332C92.7243 23.332 93.6343 24.242 93.6343 25.555C93.6343 26.868 92.7243 27.778 91.4503 27.778Z" fill="#161E34"/>
</svg>
