<svg width="24" height="8" viewBox="0 0 24 8" fill="none" xmlns="http://www.w3.org/2000/svg">
<path d="M10.4042 7.86666H8.44588L9.66982 0.138098H11.6284L10.4042 7.86666ZM6.79839 0.138098L4.93139 5.45386L4.71046 4.30917L4.71066 4.30958L4.05171 0.833966C4.05171 0.833966 3.97203 0.138098 3.12274 0.138098H0.0362174L0 0.268961C0 0.268961 0.943863 0.470734 2.04849 1.15234L3.7499 7.86686H5.79034L8.90604 0.138098H6.79839ZM22.2018 7.86666H24L22.4322 0.137892H20.8579C20.131 0.137892 19.9539 0.713854 19.9539 0.713854L17.0332 7.86666H19.0746L19.4829 6.71866H21.9724L22.2018 7.86666ZM20.0469 5.1328L21.0759 2.24059L21.6547 5.1328H20.0469ZM17.1863 1.99664L17.4658 0.336976C17.4658 0.336976 16.6034 0 15.7044 0C14.7326 0 12.4247 0.436416 12.4247 2.55854C12.4247 4.55518 15.1334 4.57999 15.1334 5.62876C15.1334 6.67752 12.7038 6.4896 11.902 5.82825L11.6109 7.56358C11.6109 7.56358 12.4853 8 13.8213 8C15.1577 8 17.1738 7.28904 17.1738 5.35401C17.1738 3.34455 14.4408 3.15745 14.4408 2.28379C14.441 1.40993 16.3483 1.52218 17.1863 1.99664Z" fill="#1A1F71"/>
<path d="M4.71071 4.3096L4.05175 0.834039C4.05175 0.834039 3.97207 0.138184 3.12277 0.138184H0.0362178L0 0.269044C0 0.269044 1.48352 0.584928 2.90647 1.76846C4.26705 2.89969 4.71071 4.3096 4.71071 4.3096Z" fill="#F7B600"/>
</svg>
