<svg width="26" height="16" viewBox="0 0 26 16" fill="none" xmlns="http://www.w3.org/2000/svg">
<path d="M16.5152 14.2895H9.48499V1.71094H16.5153L16.5152 14.2895Z" fill="#FF5F00"/>
<path d="M9.93069 7.99971C9.93069 5.44815 11.1307 3.1752 12.9993 1.71041C11.5849 0.600012 9.83539 -0.00264108 8.03411 8.7008e-06C3.59688 8.7008e-06 0 3.58154 0 7.99971C0 12.4179 3.59688 15.9994 8.03411 15.9994C9.83544 16.0021 11.585 15.3994 12.9995 14.289C11.1309 12.8245 9.93069 10.5514 9.93069 7.99971Z" fill="#EB001B"/>
<path d="M26 8.00021C26 12.4184 22.4031 15.9999 17.9659 15.9999C16.1644 16.0025 14.4146 15.3999 12.9999 14.2895C14.869 12.8247 16.069 10.5519 16.069 8.00021C16.069 5.44851 14.869 3.17569 12.9999 1.7109C14.4146 0.600534 16.1643 -0.00210635 17.9658 0.000496679C22.403 0.000496679 25.9999 3.58204 25.9999 8.00021" fill="#F79E1B"/>
</svg>
