<svg width="16" height="16" viewBox="0 0 16 16" fill="none" xmlns="http://www.w3.org/2000/svg">
<path d="M14.0423 5.38868C13.8331 5.03121 13.3737 4.91105 13.0162 5.1203C12.6587 5.32954 12.5386 5.78896 12.7478 6.14644L14.0423 5.38868ZM13.3951 10.2324L12.7478 9.85357V9.85357L13.3951 10.2324ZM6.19112 12.282C5.79946 12.1472 5.37267 12.3554 5.23786 12.7471C5.10305 13.1387 5.31127 13.5655 5.70293 13.7003L6.19112 12.282ZM2.60493 10.2324L3.2522 9.85357H3.2522L2.60493 10.2324ZM2.60493 5.76756L3.2522 6.14644L2.60493 5.76756ZM9.10493 6.82646C9.40468 7.11233 9.87942 7.10108 10.1653 6.80133C10.4512 6.50158 10.4399 6.02684 10.1402 5.74097L9.10493 6.82646ZM5.63877 10.1062C5.90791 10.4211 6.38133 10.4582 6.69619 10.189C7.01105 9.91987 7.04811 9.44644 6.77896 9.13159L5.63877 10.1062ZM11.1211 8.04047C11.1211 7.62626 10.7853 7.29047 10.3711 7.29047C9.95691 7.29047 9.62113 7.62626 9.62113 8.04047H11.1211ZM7.99963 9.69885C7.58541 9.69885 7.24963 10.0346 7.24963 10.4489C7.24963 10.8631 7.58541 11.1989 7.99963 11.1989V9.69885ZM13.7845 3.19281C14.0751 2.89762 14.0713 2.42276 13.7761 2.13218C13.4809 1.8416 13.0061 1.84534 12.7155 2.14053L13.7845 3.19281ZM2.59051 12.4262C2.29993 12.7214 2.30367 13.1963 2.59886 13.4869C2.89405 13.7775 3.36891 13.7737 3.65949 13.4785L2.59051 12.4262ZM12.7478 6.14644C13.4174 7.29036 13.4174 8.70965 12.7478 9.85357L14.0423 10.6113C14.9859 8.99938 14.9859 7.00063 14.0423 5.38868L12.7478 6.14644ZM12.7478 9.85357C11.3302 12.2754 8.53791 13.0898 6.19112 12.282L5.70293 13.7003C8.67191 14.7222 12.2358 13.6975 14.0423 10.6113L12.7478 9.85357ZM3.2522 9.85357C2.5826 8.70965 2.5826 7.29036 3.2522 6.14644L1.95767 5.38868C1.01411 7.00063 1.01411 8.99937 1.95767 10.6113L3.2522 9.85357ZM4.4631 11.3016C4.0013 10.9112 3.58932 10.4295 3.2522 9.85357L1.95767 10.6113C2.38066 11.334 2.90288 11.9468 3.4947 12.4472L4.4631 11.3016ZM3.2522 6.14644C4.982 3.19129 8.76518 2.63115 11.2667 4.48439L12.1596 3.27912C8.98083 0.924122 4.16298 1.62119 1.95767 5.38868L3.2522 6.14644ZM6.37888 8.04047C6.37888 7.1123 7.11558 6.38133 7.99963 6.38133V4.88133C6.26467 4.88133 4.87888 6.30655 4.87888 8.04047H6.37888ZM7.99963 6.38133C8.42555 6.38133 8.81345 6.54848 9.10493 6.82646L10.1402 5.74097C9.58311 5.20971 8.82923 4.88133 7.99963 4.88133V6.38133ZM6.77896 9.13159C6.53024 8.84062 6.37888 8.46031 6.37888 8.04047H4.87888C4.87888 8.82836 5.16487 9.55185 5.63877 10.1062L6.77896 9.13159ZM9.62113 8.04047C9.62113 8.96741 8.88413 9.69885 7.99963 9.69885V11.1989C9.73413 11.1989 11.1211 9.7741 11.1211 8.04047H9.62113ZM12.7155 2.14053L2.59051 12.4262L3.65949 13.4785L13.7845 3.19281L12.7155 2.14053Z" fill="white"/>
</svg>
