<svg width="16" height="16" viewBox="0 0 16 16" fill="none" xmlns="http://www.w3.org/2000/svg">
<path d="M4.95087 8.17881C4.70961 7.15025 4.70961 6.07983 4.95087 5.05127C5.28495 3.62706 6.39698 2.51502 7.8212 2.18095C8.84975 1.93968 9.92018 1.93968 10.9487 2.18095C12.3729 2.51502 13.485 3.62706 13.8191 5.05128C14.0603 6.07983 14.0603 7.15025 13.8191 8.1788C13.485 9.60302 12.3729 10.7151 10.9487 11.0491C9.92017 11.2904 8.84975 11.2904 7.8212 11.0491M4.95087 8.17881C5.28495 9.60302 6.39699 10.7151 7.8212 11.0491M4.95087 8.17881C4.79896 7.53119 4.7427 6.86696 4.78209 6.20705C4.72639 6.21842 4.67081 6.2306 4.61538 6.2436C3.39462 6.52995 2.44145 7.48313 2.1551 8.70388C1.9483 9.5855 1.9483 10.503 2.1551 11.3846C2.44145 12.6054 3.39463 13.5586 4.61538 13.8449C5.49699 14.0517 6.4145 14.0517 7.29612 13.8449C8.51687 13.5586 9.47005 12.6054 9.7564 11.3846C9.7694 11.3292 9.78158 11.2736 9.79295 11.2179C9.13304 11.2573 8.46882 11.201 7.8212 11.0491" stroke="white" stroke-width="1.5"/>
</svg>
