<svg width="185" height="40" viewBox="0 0 185 40" fill="none" xmlns="http://www.w3.org/2000/svg">
<path d="M36.6939 26.3389V13.6597C36.6935 12.3747 36.3543 11.1125 35.7105 9.99976C35.0668 8.88698 34.1409 7.9628 33.026 7.32004L22.0173 0.980393C20.9015 0.338104 19.636 0 18.3478 0C17.0596 0 15.7941 0.338104 14.6782 0.980393L3.66955 7.32004C2.55447 7.96272 1.6284 8.88683 0.984302 9.99957C0.340205 11.1123 0.000757339 12.3746 0 13.6597V26.3389C0.0003986 27.6241 0.339687 28.8865 0.983824 29.9993C1.62796 31.112 2.55423 32.0362 3.66955 32.6786L14.6782 39.0181C15.7938 39.6616 17.0594 40 18.3478 40C19.6361 40 20.9018 39.6616 22.0173 39.0181L33.026 32.6786C34.1413 32.0362 35.0672 31.112 35.7109 29.9991C36.3547 28.8863 36.6939 27.624 36.6939 26.3389Z" fill="url(#paint0_linear_12_56)"/>
<path d="M47.2876 26.3389V13.6597C47.2868 12.3746 46.9476 11.1123 46.3035 9.99957C45.6594 8.88683 44.7334 7.96272 43.6181 7.32004L32.6096 0.980393C31.4935 0.338104 30.2282 0 28.94 0C27.6518 0 26.3863 0.338104 25.2704 0.980393L14.258 7.32004C13.1432 7.9628 12.2174 8.88698 11.5736 9.99976C10.9298 11.1125 10.5907 12.3747 10.5903 13.6597V26.3389C10.5903 27.624 10.9293 28.8863 11.5731 29.9991C12.2169 31.112 13.1429 32.0362 14.258 32.6786L25.2667 39.0181C26.3822 39.6616 27.6479 40 28.9362 40C30.2246 40 31.4903 39.6616 32.6056 39.0181L43.6145 32.6786C44.7306 32.0366 45.6574 31.1128 46.3023 30C46.9472 28.8871 47.2868 27.6245 47.2876 26.3389Z" fill="url(#paint1_linear_12_56)"/>
<path fill-rule="evenodd" clip-rule="evenodd" d="M68.695 13.7811C69.725 13.3088 70.8515 13.0905 71.9815 13.1443C74.4014 13.1443 78.4874 14.5738 78.4874 19.908V28.0332H75.1731V20.6506C75.1731 17.637 74.0582 16.226 71.6076 16.226C68.5627 16.226 67.1477 17.7174 67.1477 20.9105V28.0332H63.8269V20.6506C63.8269 17.637 62.718 16.226 60.2674 16.226C57.2596 16.226 55.8565 17.7174 55.8565 20.9105V28.0332H52.5422V13.528H55.8565V14.8894C57.1787 13.7229 58.8863 13.1002 60.6413 13.1443C61.6944 13.1189 62.738 13.353 63.6815 13.8263C64.6253 14.2996 65.4405 14.998 66.0571 15.8609C66.7606 14.9663 67.6647 14.2534 68.695 13.7811ZM80.5358 20.5847C80.5358 16.3354 84.7929 13.1363 90.4363 13.1363C96.0856 13.1363 100.336 16.3354 100.336 20.5847C100.336 24.8341 96.1769 28.0332 90.4363 28.0332C84.6956 28.0332 80.5358 24.8341 80.5358 20.5847ZM90.4363 25.0212C94.2369 25.0212 96.9976 23.1561 96.9976 20.5847C96.9976 18.0134 94.2369 16.1422 90.4363 16.1422C86.6352 16.1422 83.8745 18.0134 83.8745 20.5847C83.8745 23.1561 86.6352 25.0212 90.4363 25.0212ZM112.525 13.1409C110.277 13.0685 108.083 13.8501 106.375 15.3321V13.5247H103.068V28.0332H106.375V21.3731C106.375 17.9564 108.258 16.2233 111.975 16.2233C115.332 16.2233 116.829 17.7027 116.829 21.0079V28.0332H120.137V20.6056C120.137 15.8644 117.361 13.1409 112.525 13.1409ZM126.247 15.2413C128.212 13.8378 130.594 13.0991 133.029 13.1378C138.625 13.1378 142.687 16.284 142.668 20.6184C142.668 24.2982 139.004 28.0991 132.88 28.0991C130.49 28.1391 128.152 27.4106 126.228 26.0259V32.773H122.868V13.5136H126.247V15.2413ZM139.271 20.6305C139.271 18.0481 136.451 16.1688 132.569 16.1688V16.1567C128.688 16.1567 125.868 18.0481 125.868 20.6305C125.868 23.213 128.688 25.0862 132.569 25.0862C136.451 25.0862 139.271 23.213 139.271 20.6305ZM181.515 13.8135L175.626 23.6304H175.522L169.138 13.8135H165.2L173.681 26.859L170.159 32.7731H173.639L185 13.8135H181.515ZM163.152 27.6574H159.901V25.9676C158.046 27.3469 155.791 28.0723 153.485 28.0315C147.566 28.0315 144.034 24.2477 144.034 20.5846C144.034 16.2697 147.962 13.1376 153.359 13.1376C155.708 13.1005 158.005 13.8358 159.901 15.2317V13.5118H163.152V27.6574ZM147.332 20.5846C147.332 23.1554 150.049 25.0202 153.803 25.0202C157.551 25.0202 160.267 23.1554 160.267 20.5846C160.267 18.0138 157.557 16.143 153.803 16.143C150.049 16.143 147.332 18.0138 147.332 20.5846Z" fill="white"/>
<defs>
<linearGradient id="paint0_linear_12_56" x1="9.17389" y1="35.856" x2="27.4656" y2="4.11042" gradientUnits="userSpaceOnUse">
<stop offset="0.1" stop-color="#9650FF"/>
<stop offset="1" stop-color="#00E6FF" stop-opacity="0"/>
</linearGradient>
<linearGradient id="paint1_linear_12_56" x1="19.7661" y1="35.856" x2="38.0579" y2="4.11041" gradientUnits="userSpaceOnUse">
<stop stop-color="#9650FF" stop-opacity="0"/>
<stop offset="0.9" stop-color="#00E6FF"/>
</linearGradient>
</defs>
</svg>
