<svg width="16" height="16" viewBox="0 0 16 16" fill="none" xmlns="http://www.w3.org/2000/svg">
<path d="M14.0423 5.38852C13.8331 5.03104 13.3737 4.91088 13.0162 5.12013C12.6587 5.32938 12.5386 5.7888 12.7478 6.14627L14.0423 5.38852ZM13.3951 10.2323L12.7478 9.8534V9.8534L13.3951 10.2323ZM6.19112 12.2818C5.79946 12.147 5.37267 12.3552 5.23786 12.7469C5.10305 13.1386 5.31127 13.5653 5.70293 13.7002L6.19112 12.2818ZM2.60493 10.2323L3.2522 9.8534H3.2522L2.60493 10.2323ZM2.60493 5.76739L3.2522 6.14627L2.60493 5.76739ZM9.10493 6.8263C9.40468 7.11217 9.87942 7.10091 10.1653 6.80116C10.4512 6.50141 10.4399 6.02667 10.1402 5.7408L9.10493 6.8263ZM5.63877 10.1061C5.90791 10.4209 6.38133 10.458 6.69619 10.1888C7.01105 9.9197 7.04811 9.44628 6.77896 9.13142L5.63877 10.1061ZM11.1211 8.0403C11.1211 7.62609 10.7853 7.2903 10.3711 7.2903C9.95691 7.2903 9.62113 7.62609 9.62113 8.0403H11.1211ZM7.99963 9.69869C7.58541 9.69869 7.24963 10.0345 7.24963 10.4487C7.24963 10.8629 7.58541 11.1987 7.99963 11.1987V9.69869ZM13.7845 3.19264C14.0751 2.89745 14.0713 2.42259 13.7761 2.13201C13.4809 1.84144 13.0061 1.84518 12.7155 2.14037L13.7845 3.19264ZM2.59051 12.4261C2.29993 12.7213 2.30367 13.1961 2.59886 13.4867C2.89405 13.7773 3.36891 13.7735 3.65949 13.4784L2.59051 12.4261ZM12.7478 6.14627C13.4174 7.29019 13.4174 8.70948 12.7478 9.8534L14.0423 10.6112C14.9859 8.99921 14.9859 7.00046 14.0423 5.38852L12.7478 6.14627ZM12.7478 9.8534C11.3302 12.2752 8.53791 13.0896 6.19112 12.2818L5.70293 13.7002C8.67191 14.7221 12.2358 13.6973 14.0423 10.6112L12.7478 9.8534ZM3.2522 9.8534C2.5826 8.70948 2.5826 7.29019 3.2522 6.14627L1.95767 5.38852C1.01411 7.00046 1.01411 8.99921 1.95767 10.6112L3.2522 9.8534ZM4.4631 11.3015C4.0013 10.9111 3.58932 10.4293 3.2522 9.8534L1.95767 10.6112C2.38066 11.3338 2.90288 11.9467 3.4947 12.447L4.4631 11.3015ZM3.2522 6.14627C4.982 3.19112 8.76518 2.63098 11.2667 4.48423L12.1596 3.27896C8.98083 0.923954 4.16298 1.62102 1.95767 5.38852L3.2522 6.14627ZM6.37888 8.0403C6.37888 7.11214 7.11558 6.38116 7.99963 6.38116V4.88116C6.26467 4.88116 4.87888 6.30638 4.87888 8.0403H6.37888ZM7.99963 6.38116C8.42555 6.38116 8.81345 6.54831 9.10493 6.8263L10.1402 5.7408C9.58311 5.20954 8.82923 4.88116 7.99963 4.88116V6.38116ZM6.77896 9.13142C6.53024 8.84045 6.37888 8.46014 6.37888 8.0403H4.87888C4.87888 8.82819 5.16487 9.55168 5.63877 10.1061L6.77896 9.13142ZM9.62113 8.0403C9.62113 8.96724 8.88413 9.69869 7.99963 9.69869V11.1987C9.73413 11.1987 11.1211 9.77394 11.1211 8.0403H9.62113ZM12.7155 2.14037L2.59051 12.4261L3.65949 13.4784L13.7845 3.19264L12.7155 2.14037Z" fill="white"/>
</svg>
