<svg width="40" height="40" viewBox="0 0 40 40" fill="none" xmlns="http://www.w3.org/2000/svg">
<path d="M35.2061 10.3012L26.8244 5.45185C25.9758 4.95935 25.0126 4.7 24.0321 4.7C23.0515 4.7 22.0883 4.95935 21.2398 5.45185L20.0015 6.1678L12.8581 10.3044L12.4739 9.6362L19.2332 5.72551L18.7634 5.45504C17.9142 4.96257 16.9505 4.70325 15.9694 4.70325C14.9884 4.70325 14.0247 4.96257 13.1756 5.45504L4.79387 10.3044C3.94452 10.7959 3.23918 11.5028 2.74875 12.354C2.25833 13.2053 2.00008 14.1709 1.99997 15.1538V24.8526C2.00064 25.835 2.25915 26.8 2.74955 27.6506C3.23995 28.5012 3.94498 29.2076 4.79387 29.6988L13.1756 34.5482C14.0247 35.0407 14.9884 35.3 15.9694 35.3C16.9505 35.3 17.9142 35.0407 18.7634 34.5482L20.0015 33.8323L27.1419 29.6956L27.526 30.3639L20.7699 34.2746L21.2398 34.545C22.0883 35.0375 23.0515 35.2969 24.0321 35.2969C25.0126 35.2969 25.9758 35.0375 26.8244 34.545L35.2061 29.6956C36.0554 29.2049 36.7608 28.4987 37.2512 27.6479C37.7417 26.7972 37.9999 25.832 38 24.8494V15.1506C38.0005 14.1676 37.7425 13.2017 37.252 12.3503C36.7615 11.499 36.0559 10.7922 35.2061 10.3012Z" fill="white"/>
<path d="M9.32417 18.2972C9.06106 18.2862 8.79911 18.3382 8.56004 18.4489C8.32097 18.5596 8.11165 18.7258 7.94944 18.9337C7.80616 18.7313 7.61536 18.5673 7.39387 18.4563C7.17239 18.3453 6.92703 18.2907 6.67949 18.2972C6.27208 18.2868 5.87559 18.4299 5.56828 18.6982V18.38H4.79678V21.7216H5.56828V20.0858C5.56828 19.3507 5.88578 19.0069 6.5906 19.0069C7.15573 19.0069 7.41924 19.3252 7.41924 20.0285V21.728H8.19073V20.0858C8.19073 19.3507 8.50823 19.0069 9.22575 19.0069C9.79088 19.0069 10.0512 19.3252 10.0512 20.0285V21.728H10.8227V19.8599C10.837 19.6561 10.8085 19.4516 10.7391 19.2596C10.6697 19.0675 10.5608 18.8922 10.4196 18.745C10.2784 18.5977 10.108 18.4818 9.91927 18.4047C9.73058 18.3275 9.52784 18.291 9.32417 18.2972Z" fill="#5135FA"/>
<path d="M13.6584 18.2974C12.3376 18.2974 11.3407 19.0548 11.3407 20.0573C11.3407 21.0598 12.3154 21.8172 13.6584 21.8172C15.0013 21.8172 15.9728 21.0598 15.9728 20.0573C15.9728 19.0548 14.9791 18.2974 13.6584 18.2974ZM15.1918 20.0573C15.1918 20.6652 14.5569 21.1043 13.6584 21.1043C12.7599 21.1043 12.1217 20.6652 12.1217 20.0573C12.1217 19.4494 12.7567 19.0071 13.6584 19.0071C14.56 19.0071 15.1918 19.4494 15.1918 20.0573Z" fill="#5135FA"/>
<path d="M18.7413 18.2977C18.2192 18.2812 17.7098 18.4605 17.3126 18.8005V18.3995H16.5411V21.7412H17.3126V20.2072C17.3126 19.4211 17.7507 19.0201 18.6143 19.0201C19.3953 19.0201 19.7445 19.3606 19.7445 20.1244V21.7412H20.5129V20.0226C20.5129 18.9246 19.8684 18.2977 18.7413 18.2977Z" fill="#5135FA"/>
<path d="M23.5733 18.2976C23.0154 18.2877 22.4698 18.4622 22.0208 18.7941V18.3995H21.2524V22.9282H22.0081V21.3369C22.4496 21.6612 22.9847 21.8321 23.532 21.8239C24.9353 21.8239 25.7735 20.9296 25.7735 20.0639C25.7862 19.036 24.8655 18.2976 23.5733 18.2976ZM23.4685 19.0073C24.3575 19.0073 25.0052 19.4497 25.0052 20.0576C25.0052 20.6654 24.3702 21.1046 23.4685 21.1046C22.5668 21.1046 21.935 20.6654 21.935 20.0576C21.935 19.4497 22.5795 19.0073 23.4685 19.0073Z" fill="#5135FA"/>
<path d="M34.8822 18.3868L33.5138 20.7323H33.4916L32.0057 18.3868H31.0882L33.063 21.5025L32.2407 22.9156H33.0535L35.695 18.3868H34.8822Z" fill="#5135FA"/>
<path d="M29.9454 21.7284H30.7169V18.3995H29.9454V18.8069C29.4964 18.4749 28.9508 18.3005 28.3929 18.3104C27.123 18.3104 26.1705 19.0487 26.1705 20.0703C26.1705 20.936 27.0055 21.8303 28.3929 21.8303C28.9403 21.839 29.4755 21.668 29.9169 21.3434L29.9454 21.7284ZM28.4977 21.0919C27.6087 21.0919 26.9642 20.6528 26.9642 20.0449C26.9642 19.437 27.5992 18.9946 28.4977 18.9946C29.3962 18.9946 30.0312 19.437 30.0312 20.0449C30.0312 20.6528 29.3771 21.1047 28.4882 21.1047L28.4977 21.0919Z" fill="#5135FA"/>
</svg>
