<svg width="24" height="24" viewBox="0 0 24 24" fill="none" xmlns="http://www.w3.org/2000/svg">
<g clip-path="url(#clip0_2182_5)">
<path d="M22.2026 4.13867H16V19.8628H22.2026C23.1953 19.8628 24 19.0581 24 18.0654V5.93609C24 4.94337 23.1953 4.13867 22.2026 4.13867Z" fill="#FF4B55"/>
<path d="M16.0003 4.13867H8.00015V19.8629H16.0003V4.13867Z" fill="#41479B"/>
<path d="M1.79742 4.13867C0.804703 4.13867 0 4.94337 0 5.93609V18.0654C0 19.0581 0.804703 19.8628 1.79742 19.8628H8.00002V4.13867H1.79742Z" fill="#FF4B55"/>
<path d="M4.01664 10.6415C3.39128 10.6415 2.85526 10.2647 2.61911 9.72656C2.61897 9.73477 2.61667 9.74241 2.61667 9.75061C2.61667 10.5238 3.24348 11.1506 4.01664 11.1506C4.78979 11.1506 5.41656 10.5238 5.41656 9.75061C5.41656 9.74241 5.41426 9.73477 5.41412 9.72661C5.17796 10.2647 4.64195 10.6415 4.01664 10.6415Z" fill="#F9CF02"/>
<path d="M4.01669 10.3878C4.57899 10.3878 5.03482 9.93198 5.03482 9.36969C5.03482 8.80739 4.57899 8.35156 4.01669 8.35156C3.4544 8.35156 2.99857 8.80739 2.99857 9.36969C2.99857 9.93198 3.4544 10.3878 4.01669 10.3878Z" fill="#F9CF02"/>
<path d="M3.38025 7.46052C3.38025 7.81194 3.66516 8.09684 4.01658 8.09684C4.368 8.09684 4.65291 7.81194 4.65291 7.46052C4.65291 7.20598 4.49381 7.17416 4.49381 7.07872C4.49381 6.98328 4.58925 6.85602 4.39837 6.69692C4.49381 6.85602 4.33476 6.88784 4.33476 7.04689C4.33476 7.20594 4.39837 7.20598 4.39837 7.33325C4.39837 7.40356 4.34137 7.46047 4.27116 7.46047C4.20084 7.46047 4.14394 7.40347 4.14394 7.33325C4.14394 7.20603 4.27116 7.07872 4.27116 6.8878C4.27116 6.69688 4.23933 6.63327 4.14394 6.47417C4.0485 6.31508 3.88941 6.18781 4.01672 6.06055C3.8258 6.12416 3.92128 6.37869 3.92128 6.53783C3.92128 6.69692 3.79406 6.79236 3.79406 6.98328C3.79406 7.1742 3.8895 7.20598 3.8895 7.33325C3.8895 7.40356 3.8325 7.46047 3.76228 7.46047C3.69206 7.46047 3.63506 7.40347 3.63506 7.33325C3.63506 7.20603 3.69867 7.20603 3.69867 7.04689C3.69867 6.88775 3.53958 6.85597 3.63506 6.69692C3.44414 6.85602 3.53962 6.98328 3.53962 7.07872C3.53934 7.17416 3.38025 7.20594 3.38025 7.46052Z" fill="#F9CF02"/>
<path d="M1.2168 11.5113V17.4099C1.2168 17.468 1.26386 17.515 1.32184 17.515H2.38436C2.44239 17.515 2.48941 17.4679 2.48941 17.4099V11.5113C2.48941 11.4533 2.44234 11.4063 2.38436 11.4063H1.32184C1.26386 11.4062 1.2168 11.4533 1.2168 11.5113Z" fill="#F9CF02"/>
<path d="M5.54388 11.5113V17.4099C5.54388 17.468 5.59095 17.515 5.64893 17.515H6.71144C6.76947 17.515 6.81649 17.4679 6.81649 17.4099V11.5113C6.81649 11.4533 6.76943 11.4063 6.71144 11.4063H5.64893C5.5909 11.4062 5.54388 11.4533 5.54388 11.5113Z" fill="#F9CF02"/>
<path d="M2.74399 12.5289V12.8278C2.74399 12.8858 2.79105 12.9328 2.84903 12.9328H5.18421C5.24224 12.9328 5.28925 12.8858 5.28925 12.8278V12.5289C5.28925 12.4708 5.24219 12.4238 5.18421 12.4238H2.84903C2.791 12.4238 2.74399 12.4709 2.74399 12.5289Z" fill="#F9CF02"/>
<path d="M2.74399 16.0933V16.3923C2.74399 16.4503 2.79105 16.4973 2.84903 16.4973H5.18421C5.24224 16.4973 5.28925 16.4502 5.28925 16.3923V16.0933C5.28925 16.0353 5.24219 15.9883 5.18421 15.9883H2.84903C2.791 15.9883 2.74399 16.0353 2.74399 16.0933Z" fill="#F9CF02"/>
<path d="M2.93365 11.4062H5.09964C5.15294 11.4062 5.17235 11.4764 5.12669 11.5038L4.09779 12.1212C4.04786 12.1512 3.98547 12.1512 3.93564 12.1212L2.90665 11.5038C2.86094 11.4764 2.8804 11.4062 2.93365 11.4062Z" fill="#F9CF02"/>
<path d="M2.93366 16.752H5.09965C5.15295 16.752 5.17236 16.8221 5.1267 16.8495L4.0977 17.4669C4.04778 17.4968 3.98539 17.4968 3.93556 17.4669L2.90661 16.8495C2.86095 16.8221 2.88041 16.752 2.93366 16.752Z" fill="#F9CF02"/>
<path d="M4.14096 13.1977C4.10084 13.1938 4.06198 13.1855 4.02087 13.1855C3.32098 13.1855 2.75159 13.7549 2.75159 14.4548C2.75159 14.8702 2.95451 15.2359 3.26454 15.4665C3.30021 15.4931 3.34737 15.4547 3.33002 15.4137C3.29285 15.3256 3.27195 15.2291 3.27195 15.1275C3.27195 14.7138 3.60912 14.3774 4.02317 14.3787C4.24081 14.3793 4.44945 14.2718 4.54577 14.0766C4.74504 13.673 4.5019 13.2718 4.14096 13.1977ZM4.02087 14.036C3.88071 14.036 3.76699 13.9223 3.76699 13.7821C3.76699 13.6419 3.88066 13.5282 4.02087 13.5282C4.16102 13.5282 4.2747 13.6419 4.2747 13.7821C4.27465 13.9223 4.16102 14.036 4.02087 14.036Z" fill="#F9CF02"/>
<path d="M4.77713 13.4424C4.74146 13.4158 4.6943 13.4542 4.71165 13.4952C4.74887 13.5833 4.76973 13.6798 4.76973 13.7814C4.76973 14.1951 4.43251 14.5315 4.01851 14.5302C3.80087 14.5296 3.59218 14.6371 3.4959 14.8322C3.29673 15.2359 3.53987 15.6372 3.9008 15.7112C3.94093 15.715 3.97979 15.7233 4.0209 15.7233C4.72074 15.7233 5.29018 15.154 5.29018 14.4541C5.29008 14.0387 5.08716 13.6731 4.77713 13.4424ZM4.0209 15.3806C3.88074 15.3806 3.76702 15.267 3.76702 15.1268C3.76702 14.9866 3.8807 14.8729 4.0209 14.8729C4.16105 14.8729 4.27473 14.9866 4.27473 15.1268C4.27468 15.267 4.16105 15.3806 4.0209 15.3806Z" fill="#F9CF02"/>
</g>
<defs>
<clipPath id="clip0_2182_5">
<rect width="24" height="24" fill="white"/>
</clipPath>
</defs>
</svg>
