<svg width="128" height="40" viewBox="0 0 128 40" fill="none" xmlns="http://www.w3.org/2000/svg">
<path opacity="0.08" fill-rule="evenodd" clip-rule="evenodd" d="M12.101 2C4.70511 2 2 4.70464 2 12.099V27.901C2 35.2954 4.70511 38 12.101 38H27.8942C35.2899 38 38 35.2954 38 27.901V12.099C38 4.70464 35.2949 2 27.899 2H12.101Z" fill="white"/>
<path d="M15.521 25.9055L15.5234 25.9063L14.6541 27.4216C14.3368 27.9747 13.6339 28.1642 13.0843 27.8449C12.5347 27.5256 12.3464 26.8182 12.6637 26.2651L13.3041 25.1488L13.3656 25.0417C13.4753 24.8829 13.7462 24.6089 14.288 24.6604C14.288 24.6604 15.5629 24.7997 15.6552 25.4666C15.6552 25.4666 15.6678 25.686 15.521 25.9055ZM27.8509 22.0351H25.14C24.9554 22.0227 24.8748 21.9564 24.8432 21.9178L24.8411 21.9143L21.9393 16.8559L21.9355 16.8585L21.7615 16.6073C21.4763 16.1684 21.0233 17.2911 21.0233 17.2911C20.4826 18.5421 21.1001 19.9644 21.3154 20.3943L25.3459 27.42C25.6632 27.9731 26.366 28.1627 26.9156 27.8433C27.4652 27.524 27.6535 26.8167 27.3362 26.2635L26.3284 24.5067C26.3089 24.4642 26.2749 24.3485 26.4816 24.3481H27.8509C28.4855 24.3481 29 23.8303 29 23.1916C29 22.5529 28.4855 22.0351 27.8509 22.0351ZM22.5855 23.6073C22.5855 23.6073 22.7302 24.3481 22.1704 24.3481H21.6105V24.3481H12.1491C11.5145 24.3481 11 23.8303 11 23.1916C11 22.5529 11.5145 22.0351 12.1491 22.0351H14.7255C15.1414 22.0109 15.24 21.7692 15.24 21.7692L15.2423 21.7704L18.6053 15.9082L18.6043 15.908C18.6656 15.7948 18.6146 15.6878 18.6057 15.6709L17.4951 13.7349C17.1777 13.1818 17.366 12.4745 17.9157 12.1551C18.4653 11.8358 19.168 12.0253 19.4854 12.5784L20.0005 13.4763L20.5146 12.58C20.832 12.0269 21.5348 11.8374 22.0844 12.1567C22.634 12.4761 22.8223 13.1834 22.505 13.7365L17.8253 21.8938C17.8048 21.9435 17.7985 22.0214 17.9508 22.0351H20.748L20.7486 22.0626C20.7486 22.0626 22.3654 22.0879 22.5855 23.6073Z" fill="white"/>
<path opacity="0.08" fill-rule="evenodd" clip-rule="evenodd" d="M56.101 2C48.7051 2 46 4.70464 46 12.099V27.901C46 35.2954 48.7051 38 56.101 38H71.8942C79.2899 38 82 35.2954 82 27.901V12.099C82 4.70464 79.2949 2 71.899 2H56.101Z" fill="white"/>
<path fill-rule="evenodd" clip-rule="evenodd" d="M58.0435 12.7205C58.0151 12.8407 58 12.9745 58 13.121V26.8786C58 27.0254 58.0151 27.1594 58.0436 27.2795L65.1384 19.9995L58.0435 12.7205ZM58.745 27.9925C58.9775 28.0231 59.25 27.9603 59.5407 27.7912L67.9528 22.887L65.8366 20.7159L58.745 27.9925ZM68.8436 22.3682L71.3647 20.8987C72.2118 20.4042 72.2118 19.5961 71.3647 19.1022L68.8423 17.6317L66.5348 19.9995L68.8436 22.3682ZM67.9519 17.1126L59.5407 12.2091C59.25 12.0396 58.9775 11.9768 58.745 12.0075L65.8366 19.2831L67.9519 17.1126Z" fill="white"/>
<path opacity="0.08" fill-rule="evenodd" clip-rule="evenodd" d="M100.101 2C92.7051 2 90 4.70464 90 12.099V27.901C90 35.2954 92.7051 38 100.101 38H115.894C123.29 38 126 35.2954 126 27.901V12.099C126 4.70464 123.295 2 115.899 2H100.101Z" fill="white"/>
<path fill-rule="evenodd" clip-rule="evenodd" d="M105.703 22.8793H107.148L106.423 21.193L105.703 22.8793ZM105.347 23.7291L104.918 24.7102H103.942L106.018 20.0003H106.862L108.93 24.7102H107.927L107.504 23.7291H105.347ZM121.056 24.7067H122V20H121.056V24.7067ZM117.301 22.6848H119.04V21.8266H117.301V20.862H119.826V20.0035H116.358V24.7099H119.917V23.8514H117.301V22.6848ZM113.552 23.2409L112.482 20H111.702L110.632 23.2409L109.591 20.0026H108.573L110.216 24.7128H111.007L112.079 21.6189L113.15 24.7128H113.948L115.587 20.0026H114.595L113.552 23.2409ZM102.502 22.6978C102.502 23.464 102.121 23.8734 101.43 23.8734C100.736 23.8734 100.353 23.4522 100.353 22.6651V20.0032H99.3968V22.6978C99.3968 24.0233 100.133 24.7834 101.417 24.7834C102.714 24.7834 103.457 24.0088 103.457 22.6585V20.0003H102.502V22.6978ZM97.1154 20.0003H98.0711V24.7131H97.1154V22.7991H94.9563V24.7131H94V20.0003H94.9563V21.9013H97.1154V20.0003Z" fill="white"/>
<path fill-rule="evenodd" clip-rule="evenodd" d="M108 14C104.691 14 102 11.3084 102 8H102.848C102.848 10.8409 105.159 13.1522 108 13.1522C110.841 13.1522 113.152 10.8409 113.152 8H114C114 11.3084 111.308 14 108 14Z" fill="white"/>
</svg>
