<svg width="16" height="16" viewBox="0 0 16 16" fill="none" xmlns="http://www.w3.org/2000/svg">
<g clip-path="url(#clip0_50:401)">
<path d="M14.1016 3.59325L14.0937 3.56249C14.7715 3.15612 15.3189 2.4862 15.5624 1.71875C14.9274 2.09656 14.1845 2.38305 13.4374 2.53125C12.8383 1.89294 12.039 1.5 11.0937 1.5C9.28208 1.5 7.78123 2.96679 7.78123 4.78124C7.78123 5.05931 7.80418 5.3286 7.83482 5.56444C6.23961 5.44054 4.7406 4.92296 3.36976 4.02111C2.17275 3.23376 1.52749 2.43225 1.52199 2.42541C1.34621 2.20263 1.04238 2.1261 0.782251 2.23926C0.521999 2.35241 0.370632 2.62658 0.413479 2.90698C0.428371 3.00378 0.733545 4.9171 1.88674 6.58421C1.61794 6.54234 1.45754 6.46763 1.42678 6.45237C1.20364 6.32017 0.930077 6.34446 0.727076 6.50633C0.522853 6.66917 0.449856 6.94663 0.531276 7.1948C0.557643 7.27537 1.1061 8.87461 3.10865 9.72214C2.67958 9.84592 2.29897 9.84384 2.29408 9.84384C2.28981 9.84384 2.28554 9.84372 2.28127 9.84372C2.01674 9.84372 1.78029 10.0106 1.69204 10.2608C1.60219 10.5151 1.68581 10.7983 1.89919 10.9632C1.9474 11.0005 2.84388 11.6816 4.30078 12.0258C3.79114 12.3064 3.18958 12.4752 2.50062 12.5302C1.54714 12.6064 0.780298 12.4257 0.774072 12.4242C0.457058 12.3465 0.133695 12.5257 0.0315232 12.8357C-0.070649 13.1456 0.0830366 13.482 0.384182 13.6079C0.474392 13.6455 2.61805 14.5311 4.75012 14.5311C6.23009 14.5311 7.33861 14.3963 8.34409 14.0941C9.59885 13.7168 10.6641 13.0733 11.6005 12.127C11.8433 11.8817 11.8413 11.4859 11.5959 11.2431C11.3504 11.0003 10.9548 11.0024 10.712 11.2479C9.04221 12.9354 7.12096 13.2812 4.75012 13.2812C4.69458 13.2812 4.63904 13.2805 4.58337 13.279C5.24475 12.9754 5.81188 12.5424 6.26476 11.9898C6.41576 11.8055 6.44896 11.5515 6.35009 11.3346C6.25133 11.1178 6.03783 10.976 5.79968 10.969C5.14709 10.9498 4.57068 10.8248 4.09583 10.6696C4.44837 10.4906 4.79175 10.2362 5.06262 9.87497C5.19275 9.70151 5.22363 9.47299 5.14428 9.27121C5.06494 9.06943 4.8866 8.92319 4.67322 8.88486C3.62391 8.69626 2.92701 8.2739 2.47499 7.85813C2.72865 7.84495 3.00733 7.80649 3.30799 7.73142C3.52845 7.67625 3.70167 7.50584 3.76026 7.28623C3.81885 7.06675 3.75379 6.83262 3.5901 6.67503C3.02357 6.12913 2.61183 5.45262 2.31728 4.81444C2.42006 4.88805 2.52724 4.96215 2.63856 5.03624C3.87928 5.86082 5.91955 6.84373 8.59385 6.84373C8.78831 6.84373 8.97165 6.75279 9.08982 6.59837C9.2081 6.44407 9.24765 6.2429 9.19712 6.05516C9.19541 6.04906 9.03135 5.43297 9.03135 4.78124C9.03135 4.24303 9.24607 3.73473 9.63608 3.35009C10.0283 2.96313 10.546 2.75 11.0938 2.75C11.6477 2.75 12.1296 2.96423 12.5262 3.38671C12.8126 3.65624 13.1251 4.37499 13.1251 4.80883V5.18749C13.1251 5.20067 13.1264 5.21861 13.1296 5.23985C13.1269 5.26378 13.1251 5.28795 13.1251 5.31249C13.1251 6.73326 12.8621 7.99814 12.3435 9.07187C12.1933 9.38278 12.3237 9.75644 12.6345 9.90658C12.7221 9.94882 12.8146 9.96884 12.9058 9.96884C13.1383 9.96884 13.3613 9.83871 13.4691 9.61557C14.0703 8.37082 14.3751 6.92308 14.3751 5.31249C14.3751 5.28868 14.3734 5.26524 14.3708 5.24217C14.3737 5.22069 14.3751 5.20213 14.3751 5.18749V4.74999C15.0171 4.28624 15.5608 3.6599 16.0001 2.99999C15.9999 2.99999 14.8478 3.54589 14.1016 3.59325Z" fill="white"/>
</g>
<defs>
<clipPath id="clip0_50:401">
<rect width="16" height="16" fill="white"/>
</clipPath>
</defs>
</svg>
