<svg width="16" height="16" viewBox="0 0 16 16" fill="none" xmlns="http://www.w3.org/2000/svg">
<g clip-path="url(#clip0)">
<path d="M9.99999 15.1666H5.99999C3.05999 15.1666 2.16666 14.2733 2.16666 11.3333V4.66659C2.16666 1.72659 3.05999 0.833252 5.99999 0.833252H9.99999C12.94 0.833252 13.8333 1.72659 13.8333 4.66659V11.3333C13.8333 14.2733 12.94 15.1666 9.99999 15.1666ZM5.99999 1.83325C3.61332 1.83325 3.16666 2.28659 3.16666 4.66659V11.3333C3.16666 13.7133 3.61332 14.1666 5.99999 14.1666H9.99999C12.3867 14.1666 12.8333 13.7133 12.8333 11.3333V4.66659C12.8333 2.28659 12.3867 1.83325 9.99999 1.83325H5.99999Z" fill="#161E34"/>
<path d="M9.33332 4.16663H6.66666C6.39332 4.16663 6.16666 3.93996 6.16666 3.66663C6.16666 3.39329 6.39332 3.16663 6.66666 3.16663H9.33332C9.60666 3.16663 9.83332 3.39329 9.83332 3.66663C9.83332 3.93996 9.60666 4.16663 9.33332 4.16663Z" fill="#161E34"/>
<path d="M7.99948 13.241C7.15281 13.241 6.46616 12.5544 6.46616 11.7077C6.46616 10.861 7.15281 10.1744 7.99948 10.1744C8.84614 10.1744 9.53281 10.861 9.53281 11.7077C9.53281 12.5544 8.84614 13.241 7.99948 13.241ZM7.99948 11.1677C7.70614 11.1677 7.46614 11.4077 7.46614 11.701C7.46614 11.9944 7.70614 12.2344 7.99948 12.2344C8.29281 12.2344 8.53281 11.9944 8.53281 11.701C8.53281 11.4077 8.29281 11.1677 7.99948 11.1677Z" fill="#161E34"/>
</g>
<defs>
<clipPath id="clip0">
<rect width="16" height="16" fill="white"/>
</clipPath>
</defs>
</svg>
