<svg width="32" height="32" viewBox="0 0 32 32" fill="none" xmlns="http://www.w3.org/2000/svg">
<path d="M22.9184 6.61232C22.9184 6.62565 22.9184 6.62565 22.9184 6.63898C22.5851 6.62565 22.2516 6.61232 21.8916 6.61232H11.625L13.0517 5.19898C14.3583 3.87898 15.7984 2.66565 17.4651 2.66565C19.1451 2.66565 20.5849 3.87898 21.8916 5.19898L22.6383 5.94565C22.8249 6.11898 22.9184 6.35898 22.9184 6.61232Z" fill="#6A67CE"/>
<path d="M27.7879 17.558C28.3079 17.558 28.7212 17.1313 28.7212 16.598V15.4247C28.7212 10.1847 27.1212 8.59802 21.8945 8.59802H13.4945H10.1079C4.88125 8.59802 3.28125 10.198 3.28125 15.4247V15.998C3.28125 16.5313 3.69458 16.9447 4.21458 16.9447C5.33458 16.9447 6.22792 17.8513 6.22792 18.958C6.22792 20.0647 5.33458 20.9847 4.21458 20.9847C3.69458 20.9847 3.28125 21.398 3.28125 21.9313V22.5047C3.28125 27.7447 4.88125 29.3313 10.1079 29.3313H13.4812H21.8812C27.1079 29.3313 28.7079 27.7313 28.7079 22.5047C28.7079 21.9847 28.2945 21.558 27.7745 21.558C26.6545 21.558 25.7612 20.6647 25.7612 19.558C25.7745 18.4513 26.6679 17.558 27.7879 17.558ZM14.4279 25.1447C14.4279 25.6647 14.0012 26.0913 13.4812 26.0913C12.9613 26.0913 12.5346 25.6647 12.5346 25.1447V21.5713C12.5346 21.0513 12.9613 20.6247 13.4812 20.6247C14.0012 20.6247 14.4279 21.0513 14.4279 21.5713V25.1447ZM14.4279 16.358C14.4279 16.878 14.0012 17.3047 13.4812 17.3047C12.9613 17.3047 12.5346 16.878 12.5346 16.358V12.7847C12.5346 12.2647 12.9613 11.838 13.4812 11.838C14.0012 11.838 14.4279 12.2647 14.4279 12.7847V16.358Z" fill="#6A67CE"/>
</svg>
