<svg width="16" height="16" viewBox="0 0 16 16" fill="none" xmlns="http://www.w3.org/2000/svg">
<path d="M9.66663 8.00065L10.197 8.53098C10.3376 8.39033 10.4166 8.19956 10.4166 8.00065C10.4166 7.80174 10.3376 7.61097 10.197 7.47032L9.66663 8.00065ZM6.86362 4.13699C6.57073 3.84409 6.09586 3.84409 5.80296 4.13699C5.51007 4.42988 5.51007 4.90475 5.80296 5.19765L6.86362 4.13699ZM5.80296 10.8037C5.51007 11.0965 5.51007 11.5714 5.80296 11.8643C6.09585 12.1572 6.57073 12.1572 6.86362 11.8643L5.80296 10.8037ZM10.197 7.47032L6.86362 4.13699L5.80296 5.19765L9.1363 8.53098L10.197 7.47032ZM9.1363 7.47032L5.80296 10.8037L6.86362 11.8643L10.197 8.53098L9.1363 7.47032Z" fill="#4341CC"/>
</svg>
