<svg width="40" height="40" viewBox="0 0 40 40" fill="none" xmlns="http://www.w3.org/2000/svg">
<path opacity="0.08" fill-rule="evenodd" clip-rule="evenodd" d="M12.101 2C4.70511 2 2 4.70464 2 12.099V27.901C2 35.2954 4.70511 38 12.101 38H27.8942C35.2899 38 38 35.2954 38 27.901V12.099C38 4.70464 35.2949 2 27.899 2H12.101Z" fill="white"/>
<path d="M15.521 25.9055L15.5234 25.9063L14.6541 27.4216C14.3368 27.9747 13.6339 28.1642 13.0843 27.8449C12.5347 27.5256 12.3464 26.8182 12.6637 26.2651L13.3041 25.1488L13.3656 25.0417C13.4753 24.8829 13.7462 24.6089 14.288 24.6604C14.288 24.6604 15.5629 24.7997 15.6552 25.4666C15.6552 25.4666 15.6678 25.686 15.521 25.9055ZM27.8509 22.0351H25.14C24.9554 22.0227 24.8748 21.9564 24.8432 21.9178L24.8411 21.9143L21.9393 16.8559L21.9355 16.8585L21.7615 16.6073C21.4763 16.1684 21.0233 17.2911 21.0233 17.2911C20.4826 18.5421 21.1001 19.9644 21.3154 20.3943L25.3459 27.42C25.6632 27.9731 26.366 28.1627 26.9156 27.8433C27.4652 27.524 27.6535 26.8167 27.3362 26.2635L26.3284 24.5067C26.3089 24.4642 26.2749 24.3485 26.4816 24.3481H27.8509C28.4855 24.3481 29 23.8303 29 23.1916C29 22.5529 28.4855 22.0351 27.8509 22.0351ZM22.5855 23.6073C22.5855 23.6073 22.7302 24.3481 22.1704 24.3481H21.6105V24.3481H12.1491C11.5145 24.3481 11 23.8303 11 23.1916C11 22.5529 11.5145 22.0351 12.1491 22.0351H14.7255C15.1414 22.0109 15.24 21.7692 15.24 21.7692L15.2423 21.7704L18.6053 15.9082L18.6043 15.908C18.6656 15.7948 18.6146 15.6878 18.6057 15.6709L17.4951 13.7349C17.1777 13.1818 17.366 12.4745 17.9157 12.1551C18.4653 11.8358 19.168 12.0253 19.4854 12.5784L20.0005 13.4763L20.5146 12.58C20.832 12.0269 21.5348 11.8374 22.0844 12.1567C22.634 12.4761 22.8223 13.1834 22.505 13.7365L17.8253 21.8938C17.8048 21.9435 17.7985 22.0214 17.9508 22.0351H20.748L20.7486 22.0626C20.7486 22.0626 22.3654 22.0879 22.5855 23.6073Z" fill="white"/>
</svg>
