<svg width="56" height="48" viewBox="0 0 56 48" fill="none" xmlns="http://www.w3.org/2000/svg">
<g clip-path="url(#clip0_1715_7)">
<path d="M51.6539 8.78719L38.6157 1.17908C37.2958 0.406402 35.7975 -0.000488281 34.2722 -0.000488281C32.7468 -0.000488281 31.2485 0.406402 29.9286 1.17908L28.0025 2.30233L16.8904 8.79218L16.2928 7.74382L26.8073 1.60842L26.0764 1.18408C24.7555 0.411452 23.2564 0.00461544 21.7303 0.00461544C20.2042 0.00461544 18.7051 0.411452 17.3842 1.18408L4.34607 8.79218C3.02485 9.56325 1.92766 10.6723 1.16477 12.0077C0.40189 13.3432 0.000177455 14.8582 0 16.4003V31.6165C0.00104391 33.1578 0.403169 34.6717 1.16601 36.0063C1.92885 37.3408 3.02557 38.449 4.34607 39.2196L17.3842 46.8278C18.7051 47.6004 20.2042 48.0072 21.7303 48.0072C23.2564 48.0072 24.7555 47.6004 26.0764 46.8278L28.0025 45.7045L39.1096 39.2146L39.7072 40.263L29.1976 46.3984L29.9286 46.8228C31.2485 47.5954 32.7468 48.0023 34.2722 48.0023C35.7975 48.0023 37.2958 47.5954 38.6157 46.8228L51.6539 39.2146C52.9751 38.4448 54.0724 37.3367 54.8353 36.002C55.5983 34.6673 56 33.153 56 31.6115V16.3953C56.0008 14.853 55.5995 13.3376 54.8365 12.002C54.0736 10.6663 52.9758 9.55748 51.6539 8.78719Z" fill="#161E34"/>
<path d="M11.3934 21.3314C10.9841 21.3141 10.5767 21.3956 10.2048 21.5693C9.8329 21.7429 9.5073 22.0036 9.25496 22.3298C9.03208 22.0122 8.73528 21.755 8.39075 21.5809C8.04621 21.4068 7.66455 21.3211 7.27948 21.3314C6.64574 21.3151 6.02897 21.5395 5.55093 21.9604V21.4612H4.35083V26.703H5.55093V24.137C5.55093 22.9838 6.04482 22.4446 7.14121 22.4446C8.0203 22.4446 8.43021 22.9439 8.43021 24.0471V26.713H9.63031V24.137C9.63031 22.9838 10.1242 22.4446 11.2403 22.4446C12.1194 22.4446 12.5244 22.9439 12.5244 24.0471V26.713H13.7245V23.7825C13.7468 23.4629 13.7025 23.1422 13.5944 22.8409C13.4864 22.5397 13.3171 22.2647 13.0974 22.0337C12.8778 21.8027 12.6126 21.6209 12.3191 21.4999C12.0256 21.3789 11.7103 21.3215 11.3934 21.3314Z" fill="white"/>
<path d="M18.1352 21.3315C16.0807 21.3315 14.5299 22.5197 14.5299 24.0922C14.5299 25.6648 16.0461 26.8529 18.1352 26.8529C20.2242 26.8529 21.7355 25.6648 21.7355 24.0922C21.7355 22.5197 20.1897 21.3315 18.1352 21.3315ZM20.5206 24.0922C20.5206 25.0457 19.5328 25.7347 18.1352 25.7347C16.7375 25.7347 15.7448 25.0457 15.7448 24.0922C15.7448 23.1387 16.7326 22.4448 18.1352 22.4448C19.5377 22.4448 20.5206 23.1387 20.5206 24.0922Z" fill="white"/>
<path d="M26.0418 21.3322C25.2297 21.3064 24.4372 21.5876 23.8194 22.121V21.492H22.6193V26.7338H23.8194V24.3275C23.8194 23.0944 24.5009 22.4654 25.8442 22.4654C27.0591 22.4654 27.6024 22.9996 27.6024 24.1977V26.7338H28.7976V24.038C28.7976 22.3157 27.795 21.3322 26.0418 21.3322Z" fill="white"/>
<path d="M33.5587 21.3322C32.691 21.3166 31.8422 21.5903 31.1437 22.111V21.4919H29.9485V28.5958H31.124V26.0997C31.8108 26.6084 32.6432 26.8765 33.4945 26.8635C35.6774 26.8635 36.9813 25.4607 36.9813 24.1029C37.001 22.4904 35.5688 21.3322 33.5587 21.3322ZM33.3958 22.4454C34.7786 22.4454 35.7861 23.1393 35.7861 24.0929C35.7861 25.0464 34.7983 25.7353 33.3958 25.7353C31.9932 25.7353 31.0104 25.0464 31.0104 24.0929C31.0104 23.1393 32.0129 22.4454 33.3958 22.4454Z" fill="white"/>
<path d="M51.1499 21.4722L49.0213 25.1514H48.9868L46.6755 21.4722H45.2482L48.32 26.3595L47.0409 28.5761H48.3052L52.4142 21.4722H51.1499Z" fill="white"/>
<path d="M43.4707 26.7138H44.6708V21.492H43.4707V22.131C42.7722 21.6103 41.9235 21.3366 41.0557 21.3522C39.0802 21.3522 37.5986 22.5104 37.5986 24.1129C37.5986 25.4708 38.8975 26.8736 41.0557 26.8736C41.9072 26.8873 42.7397 26.6191 43.4262 26.1098L43.4707 26.7138ZM41.2187 25.7154C39.8358 25.7154 38.8332 25.0265 38.8332 24.073C38.8332 23.1194 39.821 22.4255 41.2187 22.4255C42.6163 22.4255 43.6041 23.1194 43.6041 24.073C43.6041 25.0265 42.5867 25.7353 41.2038 25.7353L41.2187 25.7154Z" fill="white"/>
</g>
<defs>
<clipPath id="clip0_1715_7">
<rect width="56" height="48" fill="white"/>
</clipPath>
</defs>
</svg>
