<svg width="96" height="96" viewBox="0 0 96 96" fill="none" xmlns="http://www.w3.org/2000/svg">
<circle cx="48" cy="48" r="48" fill="#EDEDFF"/>
<path d="M49.1653 56.1329H50.332C52.2486 56.1329 53.8153 54.5662 53.8153 52.6496V51.4829H49.1653V56.1329Z" fill="#6A67CE"/>
<path d="M42.183 52.6496C42.183 54.5662 43.7496 56.1329 45.6664 56.1329H46.833V51.4829H42.183V52.6496Z" fill="#6A67CE"/>
<path d="M42.183 48.0005V49.1672H46.833V44.5171H45.6664C43.7496 44.5171 42.183 46.0838 42.183 48.0005Z" fill="#6A67CE"/>
<path d="M61.3834 39.3694L51.8 32.6527C49.1834 30.8194 45.1834 30.9194 42.6667 32.8694L34.3167 39.3861C32.6334 40.6861 31.3334 43.3527 31.3334 45.4527V56.9527C31.3334 61.2027 34.7834 64.6693 39.0167 64.6693H56.9667C61.2 64.6693 64.65 61.2193 64.65 56.9693V45.6693C64.6667 43.4194 63.2167 40.6527 61.3834 39.3694ZM56.1334 52.6527C56.1334 55.8527 53.5167 58.4693 50.3167 58.4693H45.6667C42.4667 58.4693 39.85 55.8693 39.85 52.6527V48.0027C39.85 44.8027 42.4667 42.1861 45.6667 42.1861H50.3167C53.5167 42.1861 56.1334 44.786 56.1334 48.0027V52.6527Z" fill="#6A67CE"/>
<path d="M50.332 44.5171H49.1653V49.1672H53.8153V48.0005C53.8153 46.0838 52.2486 44.5171 50.332 44.5171Z" fill="#6A67CE"/>
</svg>
