<svg width="32" height="32" viewBox="0 0 32 32" fill="none" xmlns="http://www.w3.org/2000/svg">
<path d="M26.613 11.9436C25.7196 10.957 24.373 10.3836 22.5063 10.1836V9.17031C22.5063 7.34364 21.733 5.58364 20.373 4.35698C18.9996 3.10364 17.213 2.51698 15.3596 2.69031C12.173 2.99698 9.49304 6.07698 9.49304 9.41031V10.1836C7.62637 10.3836 6.2797 10.957 5.38637 11.9436C4.09304 13.3836 4.13304 15.3036 4.2797 16.6369L5.21304 24.0636C5.49304 26.6636 6.54637 29.3303 12.2797 29.3303H19.7196C25.453 29.3303 26.5063 26.6636 26.7863 24.0769L27.7196 16.6236C27.8663 15.3036 27.9063 13.3836 26.613 11.9436ZM15.5463 4.54364C16.8796 4.42364 18.1463 4.83698 19.133 5.73031C20.1063 6.61031 20.653 7.86364 20.653 9.17031V10.1036H11.3464V9.41031C11.3464 7.03698 13.3064 4.75698 15.5463 4.54364ZM15.9996 24.7703C13.213 24.7703 10.9464 22.5036 10.9464 19.7169C10.9464 16.9303 13.213 14.6636 15.9996 14.6636C18.7863 14.6636 21.053 16.9303 21.053 19.7169C21.053 22.5036 18.7863 24.7703 15.9996 24.7703Z" fill="#543729"/>
<path d="M15.2412 22.1856C14.9878 22.1856 14.7345 22.0923 14.5345 21.8923L13.2144 20.5723C12.8278 20.1856 12.8278 19.5456 13.2144 19.159C13.6012 18.7723 14.2412 18.7723 14.6278 19.159L15.2678 19.799L17.4012 17.8256C17.8012 17.4523 18.4412 17.479 18.8145 17.879C19.1878 18.279 19.1612 18.919 18.7612 19.2923L15.9212 21.919C15.7212 22.0923 15.4812 22.1856 15.2412 22.1856Z" fill="#543729"/>
</svg>
