<svg width="32" height="32" viewBox="0 0 32 32" fill="none" xmlns="http://www.w3.org/2000/svg">
<path d="M21.5867 2.66565H10.4133C5.55999 2.66565 2.66666 5.55898 2.66666 10.4123V21.5723C2.66666 26.439 5.55999 29.3323 10.4133 29.3323H21.5733C26.4267 29.3323 29.32 26.439 29.32 21.5857V10.4123C29.3333 5.55898 26.44 2.66565 21.5867 2.66565ZM21 20.999H11C10.4533 20.999 9.99999 20.5457 9.99999 19.999C9.99999 19.4523 10.4533 18.999 11 18.999H21C21.5467 18.999 22 19.4523 22 19.999C22 20.5457 21.5467 20.999 21 20.999ZM21 12.999H11C10.4533 12.999 9.99999 12.5456 9.99999 11.999C9.99999 11.4523 10.4533 10.999 11 10.999H21C21.5467 10.999 22 11.4523 22 11.999C22 12.5456 21.5467 12.999 21 12.999Z" fill="#1CC7D0"/>
</svg>
