<svg width="40" height="40" viewBox="0 0 40 40" fill="none" xmlns="http://www.w3.org/2000/svg">
<path d="M20.0003 1.66675C16.3743 1.66675 12.8298 2.74198 9.81488 4.75647C6.79998 6.77097 4.45015 9.63424 3.06254 12.9842C1.67494 16.3342 1.31187 20.0204 2.01927 23.5767C2.72667 27.1331 4.47275 30.3997 7.03671 32.9637C9.60067 35.5277 12.8674 37.2738 16.4237 37.9812C19.98 38.6885 23.6662 38.3255 27.0162 36.9379C30.3662 35.5503 33.2294 33.2004 35.2439 30.1855C37.2584 27.1706 38.3337 23.6261 38.3337 20.0001C38.3279 15.1395 36.3945 10.4797 32.9576 7.04279C29.5207 3.60587 24.8609 1.67248 20.0003 1.66675ZM27.0703 24.7151C27.2295 24.8688 27.3565 25.0527 27.4438 25.2561C27.5312 25.4594 27.5772 25.6781 27.5791 25.8994C27.581 26.1207 27.5388 26.3402 27.455 26.545C27.3712 26.7498 27.2475 26.9359 27.091 27.0924C26.9345 27.2489 26.7484 27.3727 26.5436 27.4565C26.3388 27.5403 26.1193 27.5824 25.898 27.5805C25.6767 27.5786 25.458 27.5326 25.2547 27.4453C25.0513 27.3579 24.8674 27.2309 24.7137 27.0718L20.0003 22.3568L15.287 27.0718C14.9727 27.3753 14.5517 27.5433 14.1147 27.5395C13.6777 27.5357 13.2596 27.3605 12.9506 27.0514C12.6416 26.7424 12.4663 26.3244 12.4625 25.8874C12.4587 25.4504 12.6267 25.0294 12.9303 24.7151L17.6437 20.0001L12.9303 15.2851C12.7711 15.1313 12.6442 14.9474 12.5568 14.7441C12.4695 14.5408 12.4235 14.3221 12.4216 14.1008C12.4197 13.8795 12.4618 13.66 12.5456 13.4552C12.6294 13.2503 12.7532 13.0642 12.9097 12.9078C13.0662 12.7513 13.2522 12.6275 13.4571 12.5437C13.6619 12.4599 13.8814 12.4177 14.1027 12.4197C14.324 12.4216 14.5427 12.4676 14.746 12.5549C14.9493 12.6423 15.1333 12.7692 15.287 12.9284L20.0003 17.6434L24.7137 12.9284C24.8674 12.7692 25.0513 12.6423 25.2547 12.5549C25.458 12.4676 25.6767 12.4216 25.898 12.4197C26.1193 12.4177 26.3388 12.4599 26.5436 12.5437C26.7484 12.6275 26.9345 12.7513 27.091 12.9078C27.2475 13.0642 27.3712 13.2503 27.455 13.4552C27.5388 13.66 27.581 13.8795 27.5791 14.1008C27.5772 14.3221 27.5312 14.5408 27.4438 14.7441C27.3565 14.9474 27.2295 15.1313 27.0703 15.2851L22.357 20.0001L27.0703 24.7151Z" fill="white"/>
</svg>
