<svg width="16" height="16" viewBox="0 0 16 16" fill="none" xmlns="http://www.w3.org/2000/svg">
<path d="M4.37524 13.2188H3.43774C3.09253 13.2188 2.81274 12.939 2.81274 12.5938V6.78125C2.81274 6.43604 3.09253 6.15625 3.43774 6.15625H4.37524C4.72046 6.15625 5.00024 6.43604 5.00024 6.78125V12.5938C5.00024 12.939 4.72046 13.2188 4.37524 13.2188ZM5.21851 3.90613C5.21851 3.19897 4.64478 2.625 3.93799 2.625C3.22852 2.625 2.65625 3.19897 2.65625 3.90613C2.65625 4.61353 3.22852 5.1875 3.93799 5.1875C4.64478 5.1875 5.21851 4.61353 5.21851 3.90613ZM13.1875 12.5938V9.33325C13.1875 7.43738 12.787 6.03125 10.5723 6.03125C9.50806 6.03125 8.7937 6.56348 8.50208 7.11694H8.5V6.78125C8.5 6.43604 8.22021 6.15625 7.875 6.15625H7C6.65479 6.15625 6.375 6.43604 6.375 6.78125V12.5938C6.375 12.939 6.65479 13.2188 7 13.2188H7.875C8.22021 13.2188 8.5 12.939 8.5 12.5938V9.71216C8.5 8.79382 8.73376 7.90417 9.87207 7.90417C10.9949 7.90417 11.0312 8.95435 11.0312 9.77051V12.5938C11.0312 12.939 11.311 13.2188 11.6562 13.2188H12.5625C12.9077 13.2188 13.1875 12.939 13.1875 12.5938ZM16 13.5C16 13.1548 15.7202 12.875 15.375 12.875C15.0298 12.875 14.75 13.1548 14.75 13.5C14.75 14.1892 14.1892 14.75 13.5 14.75H2.5C1.81079 14.75 1.25 14.1892 1.25 13.5V2.5C1.25 1.81079 1.81079 1.25 2.5 1.25H13.5C14.1892 1.25 14.75 1.81079 14.75 2.5V10.3438C14.75 10.689 15.0298 10.9688 15.375 10.9688C15.7202 10.9688 16 10.689 16 10.3438V2.5C16 1.12146 14.8785 0 13.5 0H2.5C1.12146 0 0 1.12146 0 2.5V13.5C0 14.8785 1.12146 16 2.5 16H13.5C14.8785 16 16 14.8785 16 13.5Z" fill="white"/>
</svg>
