<svg width="16" height="16" viewBox="0 0 16 16" fill="none" xmlns="http://www.w3.org/2000/svg">
<path d="M7.99984 0.666504C6.54944 0.666504 5.13162 1.0966 3.92566 1.90239C2.7197 2.70819 1.77977 3.8535 1.22472 5.19349C0.669681 6.53348 0.524457 8.00797 0.807415 9.4305C1.09037 10.853 1.78881 12.1597 2.81439 13.1853C3.83998 14.2109 5.14665 14.9093 6.56918 15.1923C7.99171 15.4752 9.46619 15.33 10.8062 14.775C12.1462 14.2199 13.2915 13.28 14.0973 12.074C14.9031 10.8681 15.3332 9.45023 15.3332 7.99984C15.3309 6.05562 14.5575 4.19169 13.1828 2.81692C11.808 1.44215 9.94406 0.668798 7.99984 0.666504V0.666504ZM11.1378 6.8045L7.80451 10.1378C7.67949 10.2628 7.50995 10.333 7.33317 10.333C7.1564 10.333 6.98686 10.2628 6.86184 10.1378L4.86184 8.13784C4.79817 8.07634 4.74738 8.00278 4.71244 7.92144C4.6775 7.8401 4.65911 7.75262 4.65834 7.6641C4.65757 7.57559 4.67444 7.4878 4.70796 7.40587C4.74148 7.32394 4.79098 7.2495 4.85358 7.18691C4.91617 7.12431 4.99061 7.07481 5.07254 7.04129C5.15447 7.00777 5.24225 6.9909 5.33077 6.99167C5.41929 6.99244 5.50677 7.01083 5.58811 7.04577C5.66945 7.08071 5.74301 7.1315 5.80451 7.19517L7.33317 8.72384L10.1952 5.86184C10.3209 5.7404 10.4893 5.6732 10.6641 5.67472C10.8389 5.67624 11.0061 5.74635 11.1297 5.86996C11.2533 5.99356 11.3234 6.16077 11.325 6.33557C11.3265 6.51037 11.2593 6.67877 11.1378 6.8045V6.8045Z" fill="#10DF31"/>
</svg>
