<svg width="40" height="40" viewBox="0 0 40 40" fill="none" xmlns="http://www.w3.org/2000/svg">
<path fill-rule="evenodd" clip-rule="evenodd" d="M12.101 2C4.70511 2 2 4.70464 2 12.099V27.901C2 35.2954 4.70511 38 12.101 38H27.8942C35.2899 38 38 35.2954 38 27.901V12.099C38 4.70464 35.2949 2 27.899 2H12.101Z" fill="#FB6361"/>
<path fill-rule="evenodd" clip-rule="evenodd" d="M17.7031 22.8793H19.1483L18.4232 21.193L17.7031 22.8793ZM17.3472 23.7291L16.9184 24.7102H15.9421L18.0181 20.0003H18.8619L20.9295 24.7102H19.9272L19.5039 23.7291H17.3472ZM33.0565 24.7067H34V20H33.0565V24.7067ZM29.3011 22.6848H31.0403V21.8266H29.3011V20.862H31.8259V20.0035H28.3578V24.7099H31.9167V23.8514H29.3011V22.6848ZM25.5521 23.2409L24.4824 20H23.7017L22.632 23.2409L21.591 20.0026H20.573L22.2159 24.7128H23.0073L24.0787 21.6189L25.1502 24.7128H25.9485L27.587 20.0026H26.5954L25.5521 23.2409ZM14.5018 22.6978C14.5018 23.464 14.1213 23.8734 13.4303 23.8734C12.7356 23.8734 12.3531 23.4522 12.3531 22.6651V20.0032H11.3968V22.6978C11.3968 24.0233 12.1335 24.7834 13.4173 24.7834C14.7139 24.7834 15.4572 24.0088 15.4572 22.6585V20.0003H14.5018V22.6978ZM9.11536 20.0003H10.0711V24.7131H9.11536V22.7991H6.95628V24.7131H6V20.0003H6.95628V21.9013H9.11536V20.0003Z" fill="white"/>
<path fill-rule="evenodd" clip-rule="evenodd" d="M20 14C16.6913 14 14 11.3084 14 8H14.8475C14.8475 10.8409 17.1591 13.1522 20 13.1522C22.8409 13.1522 25.1525 10.8409 25.1525 8H26C26 11.3084 23.3084 14 20 14Z" fill="white"/>
</svg>
