<svg width="16" height="16" viewBox="0 0 16 16" fill="none" xmlns="http://www.w3.org/2000/svg">
<path d="M15.375 11C15.7202 11 16 10.7202 16 10.375V2.5C16 1.12146 14.8785 0 13.5 0H2.5C1.12146 0 0 1.12146 0 2.5V13.5C0 14.8785 1.12146 16 2.5 16H13.5C14.8785 16 16 14.8785 16 13.5C16 13.1548 15.7202 12.875 15.375 12.875C15.0298 12.875 14.75 13.1548 14.75 13.5C14.75 14.1892 14.1892 14.75 13.5 14.75H10.4375V10.1875H11.884C12.2003 10.1875 12.4668 9.95117 12.5046 9.63721L12.5874 8.94971C12.6321 8.57764 12.3417 8.25 11.9668 8.25H10.4375V6.15625C10.4375 5.63843 10.8572 5.21875 11.375 5.21875H12.1562C12.5015 5.21875 12.7812 4.93896 12.7812 4.59375V3.96155C12.7812 3.64136 12.5394 3.37231 12.2208 3.33984C11.9039 3.30762 11.5686 3.28125 11.375 3.28125C10.6461 3.28125 9.91553 3.58875 9.37061 4.12476C8.8092 4.677 8.5 5.40039 8.5 6.16174V8.25H7.09375C6.74854 8.25 6.46875 8.52979 6.46875 8.875V9.5625C6.46875 9.90771 6.74854 10.1875 7.09375 10.1875H8.5V14.75H2.5C1.81079 14.75 1.25 14.1892 1.25 13.5V2.5C1.25 1.81079 1.81079 1.25 2.5 1.25H13.5C14.1892 1.25 14.75 1.81079 14.75 2.5V10.375C14.75 10.7202 15.0298 11 15.375 11Z" fill="white"/>
</svg>
