<svg width="32" height="32" viewBox="0 0 32 32" fill="none" xmlns="http://www.w3.org/2000/svg">
<path d="M24.0533 18.0668C23.4933 18.6135 23.1733 19.4002 23.2533 20.2402C23.3733 21.6802 24.6933 22.7335 26.1333 22.7335H28.6666V24.3202C28.6666 27.0802 26.4133 29.3335 23.6533 29.3335H10.1733C10.5866 28.9868 10.9466 28.5602 11.2266 28.0802C11.72 27.2802 12 26.3335 12 25.3335C12 22.3868 9.61331 20.0002 6.66665 20.0002C5.41331 20.0002 4.25331 20.4402 3.33331 21.1735V15.3468C3.33331 12.5868 5.58663 10.3335 8.34663 10.3335H23.6533C26.4133 10.3335 28.6666 12.5868 28.6666 15.3468V17.2668H25.9733C25.2266 17.2668 24.5466 17.5602 24.0533 18.0668Z" stroke="white" stroke-width="1.5" stroke-linecap="round" stroke-linejoin="round"/>
<path d="M3.33331 16.5468V10.4535C3.33331 8.8668 4.30665 7.45341 5.78665 6.89341L16.3733 2.89341C18.0266 2.26675 19.8 3.49345 19.8 5.26679V10.3334" stroke="white" stroke-width="1.5" stroke-linecap="round" stroke-linejoin="round"/>
<path d="M30.0784 18.6271V21.3738C30.0784 22.1071 29.4917 22.7071 28.7451 22.7338H26.1317C24.6917 22.7338 23.3717 21.6804 23.2517 20.2404C23.1717 19.4004 23.4917 18.6138 24.0517 18.0671C24.5451 17.5604 25.2251 17.2671 25.9717 17.2671H28.7451C29.4917 17.2938 30.0784 17.8938 30.0784 18.6271Z" stroke="white" stroke-width="1.5" stroke-linecap="round" stroke-linejoin="round"/>
<path d="M9.33331 16H18.6666" stroke="white" stroke-width="1.5" stroke-linecap="round" stroke-linejoin="round"/>
<path d="M12 25.3333C12 26.3333 11.72 27.28 11.2266 28.08C10.9466 28.56 10.5866 28.9867 10.1733 29.3333C9.23998 30.1733 8.01331 30.6667 6.66665 30.6667C4.71998 30.6667 3.02665 29.6267 2.10665 28.08C1.61331 27.28 1.33331 26.3333 1.33331 25.3333C1.33331 23.6533 2.10665 22.1467 3.33331 21.1733C4.25331 20.44 5.41331 20 6.66665 20C9.61331 20 12 22.3867 12 25.3333Z" stroke="white" stroke-width="1.5" stroke-miterlimit="10" stroke-linecap="round" stroke-linejoin="round"/>
<path d="M4.58856 25.3325L5.90855 26.6525L8.74855 24.0259" stroke="white" stroke-width="1.5" stroke-linecap="round" stroke-linejoin="round"/>
</svg>
