<svg width="16" height="16" viewBox="0 0 16 16" fill="none" xmlns="http://www.w3.org/2000/svg">
<g clip-path="url(#clip0_50:393)">
<path d="M8.15747 16C8.10449 16 8.05151 16 7.99817 15.9997C6.74402 16.0028 5.58521 15.9709 4.45825 15.9023C3.42505 15.8394 2.48193 15.4824 1.73071 14.8698C1.00586 14.2788 0.510864 13.4796 0.259522 12.4947C0.0407715 11.6373 0.0291748 10.7956 0.0180664 9.98152C0.0100097 9.39742 0.00170898 8.70528 0 8.00142C0.00170898 7.29463 0.0100097 6.6025 0.0180664 6.01839C0.0291748 5.20442 0.0407715 4.36275 0.259522 3.5052C0.510864 2.52034 1.00586 1.72115 1.73071 1.13008C2.48193 0.517533 3.42505 0.160478 4.45837 0.0976114C5.58533 0.0291299 6.74438 -0.00285251 8.00122 0.000199254C9.25574 -0.00248629 10.4142 0.0291299 11.5411 0.0976114C12.5743 0.160478 13.5175 0.517533 14.2687 1.13008C14.9937 1.72115 15.4885 2.52034 15.7399 3.5052C15.9586 4.36263 15.9702 5.20442 15.9813 6.01839C15.9894 6.6025 15.9978 7.29463 15.9994 7.99849C15.9978 8.70528 15.9894 9.39742 15.9813 9.98152C15.9767 10.3267 15.6915 10.6026 15.3479 10.598C15.0027 10.5932 14.7268 10.3095 14.7314 9.96443C14.7394 9.38375 14.7478 8.69612 14.7494 7.99849C14.7478 7.30379 14.7394 6.61617 14.7314 6.03548C14.7213 5.29439 14.7108 4.52803 14.5287 3.81429C14.345 3.09432 13.9917 2.51717 13.4788 2.09883C12.924 1.64632 12.2465 1.39278 11.4652 1.34529C10.3647 1.2784 9.23193 1.24751 8.00122 1.25008C6.76758 1.24715 5.63464 1.2784 4.53418 1.34529C3.75293 1.39278 3.07556 1.64632 2.52063 2.09871C2.00769 2.51705 1.65442 3.09419 1.4707 3.81429C1.28857 4.52803 1.27808 5.29439 1.26794 6.03548C1.26001 6.61617 1.25171 7.30379 1.25 8.00142C1.25171 8.69612 1.26001 9.38375 1.26794 9.96443C1.27808 10.7055 1.28857 11.4719 1.4707 12.1856C1.65442 12.9056 2.00769 13.4827 2.52063 13.9011C3.07556 14.3536 3.75293 14.6071 4.53418 14.6546C5.63464 14.7215 6.76782 14.7528 7.99829 14.7497C9.23206 14.7526 10.3647 14.7215 11.4652 14.6546C12.2465 14.6071 12.9238 14.3536 13.4788 13.9011C13.8483 13.5997 14.137 13.213 14.3368 12.7515C14.474 12.4349 14.8419 12.2893 15.1587 12.4265C15.4755 12.5637 15.621 12.9316 15.4839 13.2484C15.2037 13.8952 14.7949 14.4408 14.2687 14.8698C13.5175 15.4825 12.5743 15.8394 11.5411 15.9023C10.4619 15.968 9.35327 16 8.15747 16ZM11.8746 7.99996C11.8746 5.84602 10.1223 4.09371 7.96838 4.09371C5.81458 4.09371 4.06213 5.84602 4.06213 7.99996C4.06213 10.1539 5.81458 11.9062 7.96838 11.9062C10.1223 11.9062 11.8746 10.1539 11.8746 7.99996ZM10.6246 7.99996C10.6246 9.46456 9.43311 10.6562 7.96838 10.6562C6.50378 10.6562 5.31213 9.46456 5.31213 7.99996C5.31213 6.53536 6.50378 5.34371 7.96838 5.34371C9.43311 5.34371 10.6246 6.53536 10.6246 7.99996ZM12.3121 2.84371C11.7944 2.84371 11.3746 3.26338 11.3746 3.78121C11.3746 4.29903 11.7944 4.71871 12.3121 4.71871C12.83 4.71871 13.2496 4.29903 13.2496 3.78121C13.2496 3.26338 12.83 2.84371 12.3121 2.84371Z" fill="white"/>
</g>
<defs>
<clipPath id="clip0_50:393">
<rect width="16" height="16" fill="white"/>
</clipPath>
</defs>
</svg>
