<svg width="16" height="16" viewBox="0 0 16 16" fill="none" xmlns="http://www.w3.org/2000/svg">
<g clip-path="url(#clip0_50:405)">
<path d="M7.99943 13.8123C7.99809 13.8123 7.99662 13.8123 7.99516 13.8123C7.51237 13.809 3.2443 13.7701 2.03507 13.443C1.18997 13.2159 0.522858 12.5495 0.295075 11.7043C-0.0213319 10.5164 -0.00119027 8.22939 0.001007 8.04677C-0.0010682 7.86501 -0.021454 5.55909 0.294098 4.36146C0.294464 4.36036 0.294709 4.35914 0.295075 4.35804C0.520295 3.52247 1.20242 2.83545 2.03299 2.60767C2.03507 2.60706 2.03727 2.60657 2.03934 2.60596C3.2349 2.29175 7.51139 2.2533 7.99516 2.25H8.00383C8.48784 2.2533 12.7673 2.29224 13.9654 2.61975C14.8089 2.84656 15.476 3.51282 15.7038 4.35804C16.0317 5.55421 16.001 7.86648 15.9979 8.06057C15.9983 8.10354 15.9999 8.27895 15.9971 8.53786C15.9933 8.88076 15.7143 9.15615 15.3722 9.15615C15.3699 9.15615 15.3677 9.15615 15.3654 9.15603C15.0202 9.15237 14.7435 8.86953 14.7471 8.52444C14.7502 8.24758 14.7479 8.06899 14.7479 8.06716C14.7477 8.06069 14.7479 8.0541 14.7479 8.04751C14.7593 7.40859 14.7369 5.55885 14.4976 4.68592C14.3846 4.26685 14.0556 3.93836 13.6382 3.82618C12.7548 3.5846 9.27287 3.50892 7.99943 3.5C6.72636 3.50892 3.24845 3.58265 2.36014 3.81409C1.95084 3.92762 1.61441 4.26783 1.50223 4.68202C1.2244 5.73915 1.25064 8.01577 1.25089 8.03859V8.05507C1.24259 8.68642 1.27176 10.5148 1.50235 11.3808C1.61417 11.7954 1.94315 12.1239 2.36039 12.2362C3.2526 12.4776 6.7288 12.5534 7.99931 12.5623C9.27312 12.5534 12.7544 12.4797 13.6401 12.2478C14.0564 12.1352 14.3847 11.807 14.4969 11.391C14.5867 11.0578 14.9297 10.8604 15.263 10.9503C15.5962 11.0402 15.7936 11.3831 15.7038 11.7165C15.4759 12.5616 14.8089 13.2279 13.9628 13.4555C13.9617 13.4557 13.9605 13.4561 13.9594 13.4563C12.764 13.7705 8.48735 13.809 8.00371 13.8123C8.00236 13.8123 8.0009 13.8123 7.99943 13.8123ZM7.29191 10.3584L10.4844 8.51553C10.668 8.40945 10.7813 8.21279 10.7813 7.9999C10.7813 7.78701 10.668 7.59035 10.4844 7.48427L7.29191 5.64137C7.10893 5.53578 6.88383 5.53614 6.70133 5.64247C6.51872 5.74867 6.40629 5.94472 6.40629 6.15687V9.8428C6.40629 10.055 6.51872 10.251 6.70133 10.3573C6.79289 10.4107 6.89518 10.4374 6.99748 10.4374C7.09916 10.4374 7.20073 10.411 7.29191 10.3584Z" fill="white"/>
</g>
<defs>
<clipPath id="clip0_50:405">
<rect width="16" height="16" fill="white"/>
</clipPath>
</defs>
</svg>
