<svg width="32" height="32" viewBox="0 0 32 32" fill="none" xmlns="http://www.w3.org/2000/svg">
<path d="M15.999 2.66565C8.63904 2.66565 2.66571 8.63898 2.66571 15.999C2.66571 23.359 8.63904 29.3323 15.999 29.3323C23.359 29.3323 29.3324 23.359 29.3324 15.999C29.3324 8.63898 23.359 2.66565 15.999 2.66565ZM11.999 10.6656C12.7324 10.6656 13.3324 11.2656 13.3324 11.999C13.3324 12.7323 12.7457 13.3323 11.999 13.3323C11.2657 13.3323 10.6657 12.7323 10.6657 11.999C10.6657 11.2656 11.2657 10.6656 11.999 10.6656ZM12.7057 20.7057C12.5057 20.9056 12.2524 20.999 11.999 20.999C11.7457 20.999 11.4924 20.9056 11.2924 20.7057C10.9057 20.319 10.9057 19.679 11.2924 19.2923L19.2924 11.2923C19.679 10.9057 20.319 10.9057 20.7057 11.2923C21.0924 11.679 21.0924 12.319 20.7057 12.7056L12.7057 20.7057ZM19.999 21.3323C19.2524 21.3323 18.6524 20.7323 18.6524 19.999C18.6524 19.2656 19.2524 18.6656 19.9857 18.6656C20.719 18.6656 21.319 19.2656 21.319 19.999C21.319 20.7323 20.7324 21.3323 19.999 21.3323Z" fill="#FF6C5F"/>
</svg>
