<svg width="12" height="12" viewBox="0 0 12 12" fill="none" xmlns="http://www.w3.org/2000/svg">
<path d="M6.00012 1C5.01122 1 4.04452 1.29324 3.22227 1.84265C2.40003 2.39206 1.75916 3.17295 1.38073 4.08658C1.00229 5.00021 0.903272 6.00555 1.0962 6.97545C1.28912 7.94536 1.76533 8.83627 2.46459 9.53553C3.16385 10.2348 4.05477 10.711 5.02467 10.9039C5.99458 11.0969 6.99991 10.9978 7.91354 10.6194C8.82717 10.241 9.60806 9.6001 10.1575 8.77785C10.7069 7.9556 11.0001 6.98891 11.0001 6C10.9986 4.6744 10.4713 3.40354 9.53393 2.46619C8.59659 1.52885 7.32573 1.00156 6.00012 1ZM8.13967 5.185L5.86694 7.45773C5.7817 7.54294 5.66611 7.59081 5.54558 7.59081C5.42505 7.59081 5.30945 7.54294 5.22421 7.45773L3.86058 6.09409C3.81716 6.05216 3.78254 6.002 3.75871 5.94655C3.73489 5.89109 3.72235 5.83144 3.72183 5.77109C3.7213 5.71074 3.7328 5.65088 3.75566 5.59502C3.77851 5.53916 3.81227 5.48841 3.85494 5.44573C3.89762 5.40305 3.94837 5.3693 4.00424 5.34644C4.0601 5.32359 4.11995 5.31209 4.18031 5.31261C4.24066 5.31314 4.30031 5.32568 4.35576 5.3495C4.41122 5.37332 4.46137 5.40795 4.50331 5.45136L5.54558 6.49364L7.49694 4.54227C7.58267 4.45947 7.69749 4.41366 7.81667 4.41469C7.93585 4.41573 8.04985 4.46353 8.13413 4.54781C8.21841 4.63209 8.26621 4.74609 8.26725 4.86527C8.26828 4.98445 8.22247 5.09927 8.13967 5.185Z" fill="white"/>
</svg>
