<svg width="64" height="64" viewBox="0 0 64 64" fill="none" xmlns="http://www.w3.org/2000/svg">
<path d="M49.1907 8.00003H14.4991C14.4991 8.00003 13.7834 8.00003 12.8983 8.00003C12.0146 8.00003 10.8788 9.04434 10.3639 10.3318L6.04162 21.1108C5.52668 22.398 5.22459 24.5582 5.36916 25.9342L8.26219 53.5094C8.40558 54.8857 9.67091 56 11.0848 56H52.9184C54.3324 56 55.5977 54.8843 55.7411 53.5094L58.6341 25.9342C58.7775 24.5579 58.4293 22.418 57.8543 21.1559L52.8123 10.2804C52.2257 9.02063 50.6044 8.00003 49.1907 8.00003ZM40.2185 40.1406H23.7838C22.3699 40.1406 21.2225 39.0187 21.2225 37.6362V32.0012C21.2225 30.6187 22.3699 29.4968 23.7838 29.4968H40.2183C41.6322 29.4968 42.7796 30.6187 42.7796 32.0012V37.6362C42.7798 39.0187 41.6322 40.1406 40.2185 40.1406ZM12.1222 21.6992L13.7422 17.0484C14.198 15.7398 15.7143 14.678 17.1294 14.678H46.0658C47.4797 14.678 49.0944 15.7011 49.6708 16.9646L51.8749 21.7844C52.4513 23.0479 51.7725 24.071 50.3574 24.071H13.8587C12.4436 24.071 11.6664 23.0092 12.1222 21.6992Z" fill="#8089AC"/>
</svg>
