<svg width="32" height="32" viewBox="0 0 32 32" fill="none" xmlns="http://www.w3.org/2000/svg">
<path d="M22.6656 5.33398H9.33232C5.33232 5.33398 2.66565 7.33398 2.66565 12.0007V16.7473C2.66565 17.2407 3.17232 17.5473 3.61232 17.3473C4.91898 16.7473 6.42565 16.5207 8.01232 16.8007C11.519 17.4273 14.0923 20.6807 13.999 24.2407C13.9857 24.8006 13.9056 25.3473 13.759 25.8806C13.6523 26.294 13.9857 26.6807 14.4123 26.6807H22.6656C26.6656 26.6807 29.3323 24.6807 29.3323 20.014V12.0007C29.3323 7.33398 26.6656 5.33398 22.6656 5.33398ZM15.999 19.334C14.159 19.334 12.6656 17.8407 12.6656 16.0007C12.6656 14.1607 14.159 12.6673 15.999 12.6673C17.839 12.6673 19.3323 14.1607 19.3323 16.0007C19.3323 17.8407 17.839 19.334 15.999 19.334ZM25.6656 18.6673C25.6656 19.214 25.2123 19.6673 24.6656 19.6673C24.119 19.6673 23.6656 19.214 23.6656 18.6673V13.334C23.6656 12.7873 24.119 12.334 24.6656 12.334C25.2123 12.334 25.6656 12.7873 25.6656 13.334V18.6673Z" fill="#1769FF"/>
<path d="M6.66573 18.6672C4.99906 18.6672 3.4924 19.4539 2.51906 20.6539C1.7724 21.5739 1.3324 22.7339 1.3324 24.0006C1.3324 26.9472 3.7324 29.3339 6.66573 29.3339C8.98573 29.3339 10.9724 27.8539 11.6924 25.7739C11.8924 25.2272 11.9991 24.6272 11.9991 24.0006C11.9991 21.0672 9.6124 18.6672 6.66573 18.6672ZM9.8124 26.3206C9.78573 26.4006 9.7324 26.4806 9.67906 26.5339L8.71906 27.4806C8.59906 27.6139 8.43906 27.6672 8.26573 27.6672C8.0924 27.6672 7.91906 27.6139 7.79906 27.4806C7.58573 27.2806 7.55906 26.9606 7.6924 26.7206H5.0124C4.15906 26.7206 3.46573 26.0272 3.46573 25.1606V25.0272C3.46573 24.6539 3.75906 24.3739 4.11906 24.3739C4.47906 24.3739 4.7724 24.6539 4.7724 25.0272V25.1606C4.7724 25.3072 4.87906 25.4272 5.02573 25.4272H7.70573C7.5724 25.1739 7.59906 24.8672 7.8124 24.6539C8.06573 24.4006 8.47906 24.4006 8.71906 24.6539L9.67906 25.6139C9.7324 25.6672 9.78573 25.7472 9.82573 25.8272C9.87906 25.9739 9.87906 26.1606 9.8124 26.3206ZM9.86573 22.9739C9.86573 23.3472 9.5724 23.6272 9.2124 23.6272C8.8524 23.6272 8.55906 23.3472 8.55906 22.9739V22.8406C8.55906 22.6939 8.4524 22.5739 8.30573 22.5739H5.63906C5.7724 22.8272 5.74573 23.1339 5.5324 23.3472C5.4124 23.4672 5.2524 23.5339 5.06573 23.5339C4.90573 23.5339 4.7324 23.4672 4.6124 23.3472L3.6524 22.3872C3.59906 22.3339 3.54573 22.2539 3.50573 22.1739C3.4524 22.0139 3.4524 21.8406 3.50573 21.6806C3.54573 21.6139 3.58573 21.5206 3.6524 21.4672L4.6124 20.5206C4.86573 20.2539 5.27906 20.2539 5.51906 20.5206C5.7324 20.7206 5.75906 21.0406 5.62573 21.2806H8.30573C9.15906 21.2806 9.8524 21.9739 9.8524 22.8406V22.9739H9.86573Z" fill="#1769FF"/>
</svg>
