<svg width="24" height="24" viewBox="0 0 24 24" fill="none" xmlns="http://www.w3.org/2000/svg">
<path fill-rule="evenodd" clip-rule="evenodd" d="M9.55851 21.4562C5.88651 21.4562 2.74951 20.9012 2.74951 18.6772C2.74951 16.4532 5.86651 14.4492 9.55851 14.4492C13.2305 14.4492 16.3665 16.4342 16.3665 18.6572C16.3665 20.8802 13.2505 21.4562 9.55851 21.4562Z" stroke="#161E34" stroke-width="1.5" stroke-linecap="round" stroke-linejoin="round"/>
<path fill-rule="evenodd" clip-rule="evenodd" d="M9.55849 11.2768C11.9685 11.2768 13.9225 9.32283 13.9225 6.91283C13.9225 4.50283 11.9685 2.54883 9.55849 2.54883C7.14849 2.54883 5.19449 4.50283 5.19449 6.91283C5.18549 9.31483 7.12649 11.2688 9.52749 11.2768H9.55849Z" stroke="#161E34" stroke-width="1.5" stroke-linecap="round" stroke-linejoin="round"/>
<path d="M16.8012 10.0786C18.2042 9.70364 19.2382 8.42464 19.2382 6.90264C19.2392 5.31464 18.1122 3.98864 16.6142 3.68164" stroke="#161E34" stroke-width="1.5" stroke-linecap="round" stroke-linejoin="round"/>
<path d="M17.4608 13.6543C19.4488 13.6543 21.1468 15.0023 21.1468 16.2053C21.1468 16.9143 20.5618 17.6423 19.6718 17.8513" stroke="#161E34" stroke-width="1.5" stroke-linecap="round" stroke-linejoin="round"/>
</svg>
