<svg width="32" height="32" viewBox="0 0 32 32" fill="none" xmlns="http://www.w3.org/2000/svg">
<path d="M23.3722 10.3603C23.2788 10.347 23.1855 10.347 23.0922 10.3603C21.0255 10.2937 19.3855 8.60033 19.3855 6.52033C19.3855 4.40033 21.1055 2.66699 23.2388 2.66699C25.3588 2.66699 27.0922 4.38699 27.0922 6.52033C27.0788 8.60033 25.4388 10.2937 23.3722 10.3603Z" fill="#1CC7D0"/>
<path d="M27.7222 19.6005C26.2288 20.6005 24.1355 20.9739 22.2022 20.7205C22.7088 19.6272 22.9755 18.4139 22.9888 17.1339C22.9888 15.8005 22.6955 14.5339 22.1355 13.4272C24.1088 13.1605 26.2022 13.5339 27.7088 14.5339C29.8155 15.9205 29.8155 18.2005 27.7222 19.6005Z" fill="#1CC7D0"/>
<path d="M8.58455 10.3603C8.67788 10.347 8.77123 10.347 8.86456 10.3603C10.9312 10.2937 12.5712 8.60033 12.5712 6.52033C12.5712 4.40033 10.8512 2.66699 8.7179 2.66699C6.5979 2.66699 4.86456 4.38699 4.86456 6.52033C4.8779 8.60033 6.51788 10.2937 8.58455 10.3603Z" fill="#1CC7D0"/>
<path d="M8.73477 17.1341C8.73477 18.4275 9.01477 19.6541 9.52144 20.7608C7.64144 20.9608 5.68144 20.5608 4.24144 19.6141C2.13477 18.2141 2.13477 15.9341 4.24144 14.5341C5.66811 13.5741 7.68144 13.1874 9.57477 13.4008C9.02811 14.5208 8.73477 15.7875 8.73477 17.1341Z" fill="#1CC7D0"/>
<path d="M16.1611 21.16C16.0544 21.1467 15.9344 21.1467 15.8144 21.16C13.3611 21.08 11.4011 19.0667 11.4011 16.5867C11.4011 14.0533 13.4411 12 15.9878 12C18.5211 12 20.5744 14.0533 20.5744 16.5867C20.5744 19.0667 18.6278 21.08 16.1611 21.16Z" fill="#1CC7D0"/>
<path d="M11.8277 23.9205C9.81435 25.2672 9.81435 27.4805 11.8277 28.8138C14.121 30.3472 17.881 30.3472 20.1744 28.8138C22.1877 27.4672 22.1877 25.2538 20.1744 23.9205C17.8944 22.3872 14.1344 22.3872 11.8277 23.9205Z" fill="#1CC7D0"/>
</svg>
