<svg width="24" height="24" viewBox="0 0 24 24" fill="none" xmlns="http://www.w3.org/2000/svg">
<path d="M12 22C17.5228 22 22 17.5228 22 12C22 6.47715 17.5228 2 12 2C6.47715 2 2 6.47715 2 12C2 17.5228 6.47715 22 12 22Z" stroke="#4341CC" stroke-width="1.5" stroke-linecap="round" stroke-linejoin="round"/>
<path d="M8.01001 14.51C8.19001 14.81 8.41 15.09 8.66 15.34C10.5 17.18 13.49 17.18 15.34 15.34C16.09 14.59 16.52 13.6399 16.66 12.6699" stroke="#4341CC" stroke-width="1.5" stroke-linecap="round" stroke-linejoin="round"/>
<path d="M7.34009 11.3294C7.48009 10.3494 7.91009 9.4093 8.66009 8.6593C10.5001 6.8193 13.4901 6.8193 15.3401 8.6593C15.6001 8.9193 15.8101 9.19932 15.9901 9.48932" stroke="#4341CC" stroke-width="1.5" stroke-linecap="round" stroke-linejoin="round"/>
<path d="M7.82007 17.1798V14.5098H10.49" stroke="#4341CC" stroke-width="1.5" stroke-linecap="round" stroke-linejoin="round"/>
<path d="M16.18 6.82031V9.49029H13.51" stroke="#4341CC" stroke-width="1.5" stroke-linecap="round" stroke-linejoin="round"/>
</svg>
