<svg width="48" height="48" viewBox="0 0 48 48" fill="none" xmlns="http://www.w3.org/2000/svg">
<path d="M9.58662 38C9.38506 37.9997 9.18608 37.9546 9.00406 37.8678C8.82204 37.781 8.66153 37.6547 8.53413 37.4981C5.3612 33.5426 3.75712 28.5515 4.02984 23.4827C4.30256 18.4139 6.43285 13.6247 10.0118 10.0345C13.5907 6.44431 18.366 4.30613 23.421 4.03042C28.476 3.75471 33.4544 5.3609 37.4006 8.54065C37.5579 8.64826 37.6912 8.78748 37.7919 8.94949C37.8927 9.1115 37.9588 9.29274 37.9859 9.48172C38.0131 9.6707 38.0008 9.86328 37.9498 10.0472C37.8988 10.2312 37.8101 10.4025 37.6896 10.5502C37.569 10.698 37.4191 10.819 37.2494 10.9056C37.0796 10.9922 36.8938 11.0424 36.7037 11.0531C36.5136 11.0639 36.3233 11.0348 36.145 10.9679C35.9667 10.9009 35.8042 10.7975 35.6679 10.6642C32.2578 7.84922 27.9247 6.408 23.5129 6.62133C19.101 6.83466 14.9263 8.68726 11.8022 11.8182C8.67815 14.9491 6.8284 19.1341 6.61338 23.5578C6.39836 27.9815 7.83347 32.327 10.6391 35.7478C10.8003 35.949 10.9019 36.1915 10.9322 36.4478C10.9625 36.7041 10.9205 36.9638 10.8107 37.1972C10.701 37.4307 10.5281 37.6285 10.3116 37.7682C10.0952 37.9078 9.84398 37.9837 9.58662 37.9871V38Z" fill="white"/>
<path d="M24.2879 44C20.0921 44.0089 16.0052 42.6636 12.6332 40.1637C12.4771 40.0686 12.3425 39.9422 12.2379 39.7923C12.1332 39.6425 12.0608 39.4725 12.0252 39.2931C11.9897 39.1137 11.9917 38.9289 12.0312 38.7504C12.0707 38.5719 12.1469 38.4035 12.2548 38.256C12.3627 38.1085 12.5001 37.9851 12.6582 37.8935C12.8163 37.8019 12.9916 37.7443 13.1732 37.7241C13.3547 37.704 13.5384 37.7219 13.7127 37.7766C13.8869 37.8313 14.0479 37.9217 14.1855 38.042C17.1073 40.2117 20.6502 41.3797 24.2879 41.3725C28.8189 41.3693 33.1633 39.5656 36.3672 36.3578C39.5711 33.1499 41.3725 28.8 41.3757 24.2634C41.3864 20.6226 40.2242 17.0754 38.0616 14.1484C37.95 14.0098 37.8675 13.85 37.8192 13.6786C37.7709 13.5073 37.7577 13.3279 37.7804 13.1513C37.8031 12.9747 37.8613 12.8045 37.9514 12.651C38.0415 12.4975 38.1617 12.3638 38.3048 12.2581C38.4479 12.1523 38.6108 12.0766 38.7839 12.0356C38.9569 11.9945 39.1365 11.9889 39.3117 12.0192C39.487 12.0494 39.6543 12.1149 39.8036 12.2115C39.953 12.3082 40.0812 12.4342 40.1807 12.5818C42.6757 15.9629 44.015 20.0595 43.9999 24.2634C43.9999 29.4978 41.9231 34.5179 38.2264 38.2192C34.5297 41.9206 29.5158 44 24.2879 44Z" fill="white"/>
<path d="M20.6668 30C19.9605 29.997 19.2841 29.7378 18.7847 29.2788C18.2853 28.8198 18.0033 28.1981 18 27.549V20.449C18.0004 20.0184 18.1242 19.5954 18.359 19.2228C18.5938 18.8501 18.9313 18.5409 19.3375 18.3262C19.7437 18.1116 20.2042 17.999 20.6728 18C21.1413 18.001 21.6013 18.1154 22.0064 18.3317L28.6797 21.8644C29.0819 22.0833 29.4152 22.3948 29.6467 22.768C29.8783 23.1413 30 23.5636 30 23.9932C30 24.4229 29.8783 24.8452 29.6467 25.2184C29.4152 25.5917 29.0819 25.9032 28.6797 26.1221L22.0064 29.6548C21.601 29.8768 21.1387 29.9959 20.6668 30ZM20.6668 20.4605V27.549L27.3901 23.9932L20.6668 20.4605Z" fill="white"/>
</svg>
