<svg width="32" height="32" viewBox="0 0 32 32" fill="none" xmlns="http://www.w3.org/2000/svg">
<path d="M24 17.3334C20.32 17.3334 17.3334 20.32 17.3334 24C17.3334 27.68 20.32 30.6667 24 30.6667C27.68 30.6667 30.6667 27.68 30.6667 24C30.6667 20.32 27.68 17.3334 24 17.3334ZM22.88 25.6934C23.2134 26.0267 23.2134 26.5734 22.88 26.92C22.7067 27.0934 22.4934 27.1734 22.2667 27.1734C22.04 27.1734 21.8267 27.0934 21.6534 26.92L19.3467 24.6134C19.0134 24.28 19.0134 23.7334 19.3467 23.3867L21.6534 21.08C21.9867 20.7467 22.5334 20.7467 22.88 21.08C23.2134 21.4134 23.2134 21.96 22.88 22.3067L21.1867 24L22.88 25.6934ZM28.64 24.6134L26.3334 26.92C26.16 27.0934 25.9467 27.1734 25.72 27.1734C25.4934 27.1734 25.28 27.0934 25.1067 26.92C24.7734 26.5867 24.7734 26.04 25.1067 25.6934L26.8134 24L25.12 22.3067C24.7867 21.9734 24.7867 21.4267 25.12 21.08C25.4534 20.7467 26 20.7467 26.3467 21.08L28.6534 23.3867C28.9734 23.7334 28.9734 24.2667 28.64 24.6134Z" fill="#FFC715"/>
<path d="M28 9.33441V15.2944C28 15.7611 27.5467 16.0811 27.12 15.9211C25.64 15.3478 23.9867 15.1611 22.2533 15.5078C18.7867 16.2011 16.0267 19.0411 15.4533 22.5344C15.1067 24.6678 15.5333 26.6811 16.5067 28.3211C16.7733 28.7744 16.4533 29.3344 15.9333 29.3344H10.6667C6 29.3344 4 26.6678 4 22.6678V9.33441C4 5.78774 5.57333 3.29441 9.18667 2.77441C9.57333 2.72107 9.92 3.02774 9.93333 3.42774L9.97333 4.77441C10.0133 6.90774 11.8133 8.66774 13.9733 8.66774H18C20.2 8.66774 22 6.86774 22 4.66774V3.42774C22 3.02774 22.3467 2.70774 22.7333 2.76107C26.4 3.25441 28 5.76108 28 9.33441Z" fill="#FFC715"/>
<path d="M19.9995 3.99996V4.66663C19.9995 5.75996 19.0928 6.66663 17.9995 6.66663H13.9595C12.8795 6.66663 11.9862 5.79996 11.9595 4.71996L11.9462 4.03996C11.9195 3.27996 12.5195 2.66663 13.2795 2.66663H18.6661C19.3995 2.66663 19.9995 3.26663 19.9995 3.99996Z" fill="#FFC715"/>
</svg>
