<svg width="96" height="96" viewBox="0 0 96 96" fill="none" xmlns="http://www.w3.org/2000/svg">
<circle cx="48" cy="48" r="48" fill="#DCFDFF"/>
<path d="M57.2152 40.9502C57.0985 40.9335 56.9819 40.9335 56.8652 40.9502C54.2819 40.8668 52.2319 38.7502 52.2319 36.1502C52.2319 33.5002 54.3819 31.3335 57.0485 31.3335C59.6985 31.3335 61.8652 33.4835 61.8652 36.1502C61.8485 38.7502 59.7985 40.8668 57.2152 40.9502Z" fill="#1CC7D0"/>
<path d="M62.6527 52.5007C60.786 53.7507 58.1694 54.2173 55.7527 53.9007C56.386 52.534 56.7194 51.0173 56.736 49.4173C56.736 47.7507 56.3694 46.1673 55.6694 44.784C58.136 44.4507 60.7527 44.9173 62.636 46.1673C65.2694 47.9007 65.2694 50.7507 62.6527 52.5007Z" fill="#1CC7D0"/>
<path d="M38.7307 40.9502C38.8474 40.9335 38.9641 40.9335 39.0807 40.9502C41.6641 40.8668 43.7141 38.7502 43.7141 36.1502C43.7141 33.5002 41.5641 31.3335 38.8974 31.3335C36.2474 31.3335 34.0807 33.4835 34.0807 36.1502C34.0974 38.7502 36.1474 40.8668 38.7307 40.9502Z" fill="#1CC7D0"/>
<path d="M38.9184 49.4177C38.9184 51.0343 39.2684 52.5677 39.9018 53.951C37.5518 54.201 35.1018 53.701 33.3018 52.5177C30.6684 50.7677 30.6684 47.9177 33.3018 46.1677C35.0851 44.9677 37.6018 44.4843 39.9684 44.751C39.2851 46.151 38.9184 47.7343 38.9184 49.4177Z" fill="#1CC7D0"/>
<path d="M48.2013 54.45C48.068 54.4333 47.918 54.4333 47.768 54.45C44.7013 54.35 42.2513 51.8333 42.2513 48.7333C42.2513 45.5667 44.8013 43 47.9846 43C51.1513 43 53.718 45.5667 53.718 48.7333C53.718 51.8333 51.2846 54.35 48.2013 54.45Z" fill="#1CC7D0"/>
<path d="M42.7847 57.9009C40.268 59.5842 40.268 62.3509 42.7847 64.0175C45.6514 65.9342 50.3514 65.9342 53.218 64.0175C55.7347 62.3342 55.7347 59.5675 53.218 57.9009C50.368 55.9842 45.668 55.9842 42.7847 57.9009Z" fill="#1CC7D0"/>
</svg>
