<svg width="40" height="40" viewBox="0 0 40 40" fill="none" xmlns="http://www.w3.org/2000/svg">
<path opacity="0.08" fill-rule="evenodd" clip-rule="evenodd" d="M12.101 2C4.70511 2 2 4.70464 2 12.099V27.901C2 35.2954 4.70511 38 12.101 38H27.8942C35.2899 38 38 35.2954 38 27.901V12.099C38 4.70464 35.2949 2 27.899 2H12.101Z" fill="white"/>
<path fill-rule="evenodd" clip-rule="evenodd" d="M14.0435 12.7205C14.0151 12.8407 14 12.9745 14 13.121V26.8786C14 27.0254 14.0151 27.1594 14.0436 27.2795L21.1384 19.9995L14.0435 12.7205ZM14.745 27.9925C14.9775 28.0231 15.25 27.9603 15.5407 27.7912L23.9528 22.887L21.8366 20.7159L14.745 27.9925ZM24.8436 22.3682L27.3647 20.8987C28.2118 20.4042 28.2118 19.5961 27.3647 19.1022L24.8423 17.6317L22.5348 19.9995L24.8436 22.3682ZM23.9519 17.1126L15.5407 12.2091C15.25 12.0396 14.9775 11.9768 14.745 12.0075L21.8366 19.2831L23.9519 17.1126Z" fill="white"/>
</svg>
