<svg width="245" height="48" viewBox="0 0 245 48" fill="none" xmlns="http://www.w3.org/2000/svg">
<path d="M12.8 0.5H232.2C234.448 0.5 236.105 0.500389 237.414 0.607333C238.717 0.7138 239.632 0.923378 240.405 1.31745C241.816 2.0365 242.964 3.18386 243.683 4.59507C244.077 5.36848 244.286 6.28324 244.393 7.58633C244.5 8.89527 244.5 10.5515 244.5 12.8V35.2C244.5 37.4485 244.5 39.1047 244.393 40.4137C244.286 41.7168 244.077 42.6315 243.683 43.4049C242.964 44.8161 241.816 45.9635 240.405 46.6825C239.632 47.0766 238.717 47.2862 237.414 47.3927C236.105 47.4996 234.448 47.5 232.2 47.5H12.8C10.5515 47.5 8.89527 47.4996 7.58633 47.3927C6.28324 47.2862 5.36848 47.0766 4.59507 46.6825C3.18386 45.9635 2.0365 44.8161 1.31745 43.4049C0.923378 42.6315 0.7138 41.7168 0.607333 40.4137C0.500389 39.1047 0.5 37.4485 0.5 35.2V12.8C0.5 10.5515 0.500389 8.89526 0.607333 7.58633C0.7138 6.28324 0.923378 5.36848 1.31745 4.59507C2.0365 3.18386 3.18386 2.0365 4.59507 1.31745C5.36848 0.923378 6.28324 0.7138 7.58633 0.607333C8.89526 0.500389 10.5515 0.5 12.8 0.5Z" fill="white" stroke="#E8EDF5"/>
<path fill-rule="evenodd" clip-rule="evenodd" d="M25.8333 24.5167C25.8333 19.8793 27.3793 18.334 32.0159 18.334C36.6533 18.334 38.1993 19.8793 38.1993 24.5167C38.1993 29.154 36.6533 30.6993 32.0159 30.6993C27.3793 30.6993 25.8333 29.154 25.8333 24.5167Z" stroke="#161E34" stroke-width="1.5" stroke-linecap="round" stroke-linejoin="round"/>
<path d="M26.0168 22.2161H38.0222" stroke="#161E34" stroke-width="1.5" stroke-linecap="round" stroke-linejoin="round"/>
<path d="M34.9524 24.8411H34.9584" stroke="#161E34" stroke-width="1.5" stroke-linecap="round" stroke-linejoin="round"/>
<path d="M32.0195 24.8411H32.0255" stroke="#161E34" stroke-width="1.5" stroke-linecap="round" stroke-linejoin="round"/>
<path d="M29.0811 24.8411H29.0871" stroke="#161E34" stroke-width="1.5" stroke-linecap="round" stroke-linejoin="round"/>
<path d="M34.9524 27.4095H34.9584" stroke="#161E34" stroke-width="1.5" stroke-linecap="round" stroke-linejoin="round"/>
<path d="M32.0195 27.4095H32.0255" stroke="#161E34" stroke-width="1.5" stroke-linecap="round" stroke-linejoin="round"/>
<path d="M29.0811 27.4095H29.0871" stroke="#161E34" stroke-width="1.5" stroke-linecap="round" stroke-linejoin="round"/>
<path d="M34.6888 17.3672V19.5419" stroke="#161E34" stroke-width="1.5" stroke-linecap="round" stroke-linejoin="round"/>
<path d="M29.3499 17.3672V19.5419" stroke="#161E34" stroke-width="1.5" stroke-linecap="round" stroke-linejoin="round"/>
<path d="M216.333 22.3327L213 25.666L209.667 22.3327" stroke="#161E34" stroke-width="1.5" stroke-linecap="round" stroke-linejoin="round"/>
<path d="M50.964 27.609L52.849 25.906C54.201 24.671 54.734 23.748 54.734 22.63C54.734 20.966 53.538 19.77 51.679 19.77C49.82 19.77 48.637 21.005 48.637 22.916H50.119C50.119 21.85 50.691 21.239 51.679 21.239C52.628 21.239 53.2 21.798 53.2 22.695C53.2 23.371 52.862 23.891 51.874 24.827L48.481 27.999V29H54.812V27.57H52.069L50.964 27.609ZM59.4577 29.13C61.7457 29.13 63.0717 27.323 63.0717 24.45C63.0717 21.564 61.7457 19.77 59.4577 19.77C57.1697 19.77 55.8307 21.564 55.8307 24.45C55.8307 27.323 57.1697 29.13 59.4577 29.13ZM59.4577 27.687C58.0667 27.687 57.3647 26.491 57.3647 24.45C57.3647 22.396 58.0667 21.213 59.4577 21.213C60.8357 21.213 61.5377 22.396 61.5377 24.45C61.5377 26.491 60.8357 27.687 59.4577 27.687ZM66.4884 27.609L68.3734 25.906C69.7254 24.671 70.2584 23.748 70.2584 22.63C70.2584 20.966 69.0624 19.77 67.2034 19.77C65.3444 19.77 64.1614 21.005 64.1614 22.916H65.6434C65.6434 21.85 66.2154 21.239 67.2034 21.239C68.1524 21.239 68.7244 21.798 68.7244 22.695C68.7244 23.371 68.3864 23.891 67.3984 24.827L64.0054 27.999V29H70.3364V27.57H67.5934L66.4884 27.609ZM70.7181 22.019L71.4071 23.098L73.2531 21.928L73.2401 24.177V29H74.7351V19.9H73.7341L70.7181 22.019ZM77.3124 29.104C77.8324 29.104 78.2094 28.727 78.2094 28.22C78.2094 27.7 77.8324 27.336 77.3124 27.336C76.7924 27.336 76.4154 27.7 76.4154 28.22C76.4154 28.727 76.7924 29.104 77.3124 29.104ZM78.2699 22.019L78.9589 23.098L80.8049 21.928L80.7919 24.177V29H82.2869V19.9H81.2859L78.2699 22.019ZM87.5031 29.13C89.7911 29.13 91.1171 27.323 91.1171 24.45C91.1171 21.564 89.7911 19.77 87.5031 19.77C85.2151 19.77 83.8761 21.564 83.8761 24.45C83.8761 27.323 85.2151 29.13 87.5031 29.13ZM87.5031 27.687C86.1121 27.687 85.4101 26.491 85.4101 24.45C85.4101 22.396 86.1121 21.213 87.5031 21.213C88.8811 21.213 89.5831 22.396 89.5831 24.45C89.5831 26.491 88.8811 27.687 87.5031 27.687ZM93.058 29.104C93.578 29.104 93.955 28.727 93.955 28.22C93.955 27.7 93.578 27.336 93.058 27.336C92.538 27.336 92.161 27.7 92.161 28.22C92.161 28.727 92.538 29.104 93.058 29.104ZM94.0155 22.019L94.7045 23.098L96.5505 21.928L96.5375 24.177V29H98.0325V19.9H97.0315L94.0155 22.019ZM102.755 22.812C102.222 22.812 101.754 22.929 101.247 23.176L101.338 22.292L101.429 21.317H105.381V19.9H100.116L99.6738 24.84H101.13C101.611 24.424 102.105 24.229 102.651 24.229C103.704 24.229 104.367 24.944 104.367 25.958C104.367 26.959 103.652 27.687 102.664 27.687C101.728 27.687 101.013 27.154 100.974 26.413H99.4788C99.4918 28.025 100.805 29.13 102.664 29.13C104.549 29.13 105.888 27.804 105.888 25.958C105.888 24.138 104.588 22.812 102.755 22.812ZM113.918 25.841V24.502H109.849V25.841H113.918ZM120.325 27.609L122.21 25.906C123.562 24.671 124.095 23.748 124.095 22.63C124.095 20.966 122.899 19.77 121.04 19.77C119.181 19.77 117.998 21.005 117.998 22.916H119.48C119.48 21.85 120.052 21.239 121.04 21.239C121.989 21.239 122.561 21.798 122.561 22.695C122.561 23.371 122.223 23.891 121.235 24.827L117.842 27.999V29H124.173V27.57H121.43L120.325 27.609ZM128.819 29.13C131.107 29.13 132.433 27.323 132.433 24.45C132.433 21.564 131.107 19.77 128.819 19.77C126.531 19.77 125.192 21.564 125.192 24.45C125.192 27.323 126.531 29.13 128.819 29.13ZM128.819 27.687C127.428 27.687 126.726 26.491 126.726 24.45C126.726 22.396 127.428 21.213 128.819 21.213C130.197 21.213 130.899 22.396 130.899 24.45C130.899 26.491 130.197 27.687 128.819 27.687ZM135.849 27.609L137.734 25.906C139.086 24.671 139.619 23.748 139.619 22.63C139.619 20.966 138.423 19.77 136.564 19.77C134.705 19.77 133.522 21.005 133.522 22.916H135.004C135.004 21.85 135.576 21.239 136.564 21.239C137.513 21.239 138.085 21.798 138.085 22.695C138.085 23.371 137.747 23.891 136.759 24.827L133.366 27.999V29H139.697V27.57H136.954L135.849 27.609ZM140.079 22.019L140.768 23.098L142.614 21.928L142.601 24.177V29H144.096V19.9H143.095L140.079 22.019ZM146.673 29.104C147.193 29.104 147.57 28.727 147.57 28.22C147.57 27.7 147.193 27.336 146.673 27.336C146.153 27.336 145.776 27.7 145.776 28.22C145.776 28.727 146.153 29.104 146.673 29.104ZM147.631 22.019L148.32 23.098L150.166 21.928L150.153 24.177V29H151.648V19.9H150.647L147.631 22.019ZM152.6 22.019L153.289 23.098L155.135 21.928L155.122 24.177V29H156.617V19.9H155.616L152.6 22.019ZM159.194 29.104C159.714 29.104 160.091 28.727 160.091 28.22C160.091 27.7 159.714 27.336 159.194 27.336C158.674 27.336 158.297 27.7 158.297 28.22C158.297 28.727 158.674 29.104 159.194 29.104ZM160.152 22.019L160.841 23.098L162.687 21.928L162.674 24.177V29H164.169V19.9H163.168L160.152 22.019ZM168.891 22.812C168.358 22.812 167.89 22.929 167.383 23.176L167.474 22.292L167.565 21.317H171.517V19.9H166.252L165.81 24.84H167.266C167.747 24.424 168.241 24.229 168.787 24.229C169.84 24.229 170.503 24.944 170.503 25.958C170.503 26.959 169.788 27.687 168.8 27.687C167.864 27.687 167.149 27.154 167.11 26.413H165.615C165.628 28.025 166.941 29.13 168.8 29.13C170.685 29.13 172.024 27.804 172.024 25.958C172.024 24.138 170.724 22.812 168.891 22.812Z" fill="#161E34"/>
</svg>
