<svg width="245" height="48" viewBox="0 0 245 48" fill="none" xmlns="http://www.w3.org/2000/svg">
<path d="M0.5 12.8C0.5 10.5515 0.500389 8.89526 0.607333 7.58633C0.7138 6.28324 0.923378 5.36848 1.31745 4.59507C2.0365 3.18386 3.18386 2.0365 4.59507 1.31745C5.36848 0.923378 6.28324 0.7138 7.58633 0.607333C8.89526 0.500389 10.5515 0.5 12.8 0.5H232.2C234.448 0.5 236.105 0.500389 237.414 0.607333C238.717 0.7138 239.632 0.923378 240.405 1.31745C241.816 2.0365 242.964 3.18386 243.683 4.59507L244.128 4.36808L243.683 4.59507C244.077 5.36848 244.286 6.28324 244.393 7.58633C244.5 8.89527 244.5 10.5515 244.5 12.8V35.2C244.5 37.4485 244.5 39.1047 244.393 40.4137C244.286 41.7168 244.077 42.6315 243.683 43.4049C242.964 44.8161 241.816 45.9635 240.405 46.6825C239.632 47.0766 238.717 47.2862 237.414 47.3927C236.105 47.4996 234.448 47.5 232.2 47.5H12.8C10.5515 47.5 8.89527 47.4996 7.58633 47.3927C6.28324 47.2862 5.36848 47.0766 4.59507 46.6825C3.18386 45.9635 2.0365 44.8161 1.31745 43.4049C0.923378 42.6315 0.7138 41.7168 0.607333 40.4137C0.500389 39.1047 0.5 37.4485 0.5 35.2V12.8Z" fill="white" stroke="#E8EDF5"/>
</svg>
