<svg width="504" height="96" viewBox="0 0 504 96" fill="none" xmlns="http://www.w3.org/2000/svg">
<g style="mix-blend-mode:screen">
<path d="M-4.70713 243C-46.7156 129.034 -22.8441 26.7318 106.715 8.404C195.93 -4.20886 296.573 33.0632 453.385 123.036C678.764 252.33 741.613 -72.195 758.71 -155" stroke="#29235C" stroke-width="0.5" stroke-miterlimit="10"/>
</g>
<g style="mix-blend-mode:screen">
<path d="M-5.63424 235.972C-42.9084 122.879 -19.6104 29.1377 110.616 10.8866C200.234 -1.67632 298.387 30.4507 456.352 119.727C680.73 246.549 742.353 -68.2729 759.113 -149.455" stroke="#2C255C" stroke-width="0.53" stroke-miterlimit="10"/>
</g>
<g style="mix-blend-mode:screen">
<path d="M-6.5608 228.941C-39.1007 116.705 -16.3661 31.5573 114.517 13.3661C204.535 0.853226 300.187 27.8251 459.286 116.415C682.644 240.781 743.056 -64.3571 759.483 -143.913" stroke="#2F275C" stroke-width="0.56" stroke-miterlimit="10"/>
</g>
<g style="mix-blend-mode:screen">
<path d="M-7.4877 221.909C-35.2933 110.559 -13.1221 33.9659 118.421 15.848C208.839 3.3818 301.981 25.2085 462.237 113.102C684.561 235.035 743.78 -60.4389 759.87 -138.372" stroke="#32295B" stroke-width="0.59" stroke-miterlimit="10"/>
</g>
<g style="mix-blend-mode:screen">
<path d="M-8.41456 214.882C-31.4859 104.402 -9.87487 36.3959 122.322 18.328C213.143 5.90844 303.765 22.5967 465.187 109.787C686.458 229.308 744.503 -56.5227 760.247 -132.833" stroke="#352C5B" stroke-width="0.62" stroke-miterlimit="10"/>
</g>
<g style="mix-blend-mode:screen">
<path d="M-9.34476 207.85C-27.6818 98.2432 -6.63088 38.8112 126.222 20.8099C217.447 8.43701 305.555 19.9902 468.138 106.474C688.342 223.602 745.223 -52.6045 760.643 -127.292" stroke="#382E5B" stroke-width="0.65" stroke-miterlimit="10"/>
</g>
<g style="mix-blend-mode:screen">
<path d="M-10.2715 200.819C-23.8709 92.0855 -3.3868 41.2275 130.123 23.2896C221.752 10.96 307.306 17.3913 471.088 103.162C690.206 217.914 745.947 -48.6854 761.03 -121.75" stroke="#3C305B" stroke-width="0.68" stroke-miterlimit="10"/>
</g>
<g style="mix-blend-mode:screen">
<path d="M-11.1985 193.788C-20.0636 85.9276 -0.142965 43.6471 134.024 25.7691C226.042 13.4962 309.059 14.7991 474.039 99.8501C692.056 212.246 746.667 -44.7729 761.43 -116.208" stroke="#3F325A" stroke-width="0.71" stroke-miterlimit="10"/>
</g>
<g style="mix-blend-mode:screen">
<path d="M-12.1252 186.757C-16.256 79.7689 3.10124 46.059 137.925 28.2511C230.36 16.0214 310.81 12.2159 476.993 96.5371C693.893 206.597 747.381 -40.8514 761.807 -110.667" stroke="#42345A" stroke-width="0.74" stroke-miterlimit="10"/>
</g>
<g style="mix-blend-mode:screen">
<path d="M-13.0522 179.728C-12.4488 73.6105 6.34832 48.4814 141.829 30.7301C234.664 18.5504 312.556 9.6398 479.923 93.2246C695.697 200.969 748.097 -36.9361 762.177 -105.129" stroke="#45365A" stroke-width="0.76" stroke-miterlimit="10"/>
</g>
<g style="mix-blend-mode:screen">
<path d="M-13.979 172.688C-8.6446 67.4393 9.5924 50.8877 145.72 33.203C238.968 21.0667 314.277 7.07089 482.887 89.9126C697.514 195.361 748.834 -33.017 762.577 -99.5869" stroke="#48395A" stroke-width="0.79" stroke-miterlimit="10"/>
</g>
<g style="mix-blend-mode:screen">
<path d="M-14.9092 165.667C-4.84049 61.2915 12.8297 53.3173 149.631 35.6926C243.273 23.6062 315.997 4.51531 485.838 86.6005C699.308 189.773 749.558 -29.1012 762.964 -94.0449" stroke="#4B3B5A" stroke-width="0.82" stroke-miterlimit="10"/>
</g>
<g style="mix-blend-mode:screen">
<path d="M-15.8428 158.636C-1.03313 55.1337 16.0736 55.7335 153.525 38.1722C247.57 26.1358 317.704 1.96642 488.782 83.2885C701.078 184.205 750.271 -25.182 763.344 -88.5029" stroke="#4E3D59" stroke-width="0.85" stroke-miterlimit="10"/>
</g>
<g style="mix-blend-mode:screen">
<path d="M-16.7629 151.604C2.78098 48.968 19.3243 58.1519 157.432 40.6371C251.881 28.6408 319.415 -0.590408 491.739 79.9586C702.848 178.635 750.998 -21.2842 763.737 -82.9922" stroke="#513F59" stroke-width="0.88" stroke-miterlimit="10"/>
</g>
<g style="mix-blend-mode:screen">
<path d="M-17.6897 144.572C6.58851 42.8165 22.5717 60.5712 161.346 43.1331C256.199 31.1934 321.125 -3.10292 494.703 76.663C704.612 173.124 751.735 -17.3486 764.137 -77.4238" stroke="#544159" stroke-width="0.91" stroke-miterlimit="10"/>
</g>
<g style="mix-blend-mode:screen">
<path d="M-18.6165 137.545C10.3927 36.6587 25.8325 62.9874 165.237 45.6127C260.49 33.7196 322.799 -5.62184 497.637 73.351C706.346 167.613 752.442 -13.4328 764.508 -71.8818" stroke="#574359" stroke-width="0.94" stroke-miterlimit="10"/>
</g>
<g style="mix-blend-mode:screen">
<path d="M-19.5435 130.514C14.2 30.5009 29.0597 65.407 169.138 48.0956C264.794 36.2491 324.476 -8.12747 500.594 70.0523C708.069 162.138 753.168 -9.49705 764.901 -66.3232" stroke="#5B4659" stroke-width="0.97" stroke-miterlimit="10"/>
</g>
<g style="mix-blend-mode:screen">
<path d="M-20.4702 123.482C18.0075 24.3421 32.3037 67.8324 173.039 50.5742C269.098 38.7778 326.146 -10.624 503.542 66.7227C709.78 156.649 753.889 -5.58882 765.284 -60.7988" stroke="#5E4858" stroke-miterlimit="10"/>
</g>
<g style="mix-blend-mode:screen">
<path d="M-21.4004 116.452C21.8316 18.1814 35.5477 70.2423 176.939 53.0575C273.402 41.3044 327.81 -13.1058 506.492 63.4111C711.483 151.198 754.609 -1.67929 765.671 -55.2598" stroke="#614A58" stroke-width="1.03" stroke-miterlimit="10"/>
</g>
<g style="mix-blend-mode:screen">
<path d="M-22.3274 109.42C25.6222 12.0226 38.7949 72.6577 180.84 55.5362C277.703 43.833 329.463 -15.5757 509.443 60.0981C713.177 145.762 755.332 2.23891 766.058 -49.7188" stroke="#644C58" stroke-width="1.06" stroke-miterlimit="10"/>
</g>
<g style="mix-blend-mode:screen">
<path d="M-23.2542 102.392C29.4231 5.86462 42.0389 75.0671 184.741 58.0155C282.007 46.3524 331.104 -18.0315 512.393 56.7859C714.861 140.351 756.052 6.15454 766.444 -44.1836" stroke="#674E58" stroke-width="1.09" stroke-miterlimit="10"/>
</g>
<g style="mix-blend-mode:screen">
<path d="M-24.1777 95.378C33.2405 -0.276417 45.2862 77.5101 188.648 60.5152C286.315 48.9087 332.754 -20.4603 515.347 53.4907C716.538 134.973 756.779 10.0905 766.834 -38.6182" stroke="#6A5057" stroke-width="1.12" stroke-miterlimit="10"/>
</g>
<g style="mix-blend-mode:screen">
<path d="M-25.1079 88.33C37.0446 -6.4514 48.5269 79.9125 192.532 62.9777C290.602 51.4178 334.371 -22.8998 518.264 50.1615C718.171 129.581 757.469 13.9891 767.191 -33.0967" stroke="#6D5257" stroke-width="1.15" stroke-miterlimit="10"/>
</g>
<g style="mix-blend-mode:screen">
<path d="M-26.0349 81.2991C40.8519 -12.6092 51.7707 82.3322 196.446 65.4573C294.92 53.9474 336.008 -25.312 521.242 46.8495C719.855 124.223 758.219 17.9083 767.605 -27.5547" stroke="#705557" stroke-width="1.18" stroke-miterlimit="10"/>
</g>
<g style="mix-blend-mode:screen">
<path d="M-26.9617 74.2677C44.6594 -18.7676 55.0148 84.7479 200.347 67.9363C299.224 56.4731 337.625 -27.7016 524.192 43.5336C721.502 118.881 758.939 21.8202 767.991 -22.0166" stroke="#735757" stroke-width="1.21" stroke-miterlimit="10"/>
</g>
<g style="mix-blend-mode:screen">
<path d="M-27.8918 67.2397C48.4568 -24.9258 58.2621 87.167 204.248 70.4187C303.528 59.0022 339.235 -30.0909 527.143 40.2245C723.139 113.566 759.663 25.7322 768.378 -16.4717" stroke="#765957" stroke-width="1.24" stroke-miterlimit="10"/>
</g>
<g style="mix-blend-mode:screen">
<path d="M-28.8188 60.2081C52.2741 -31.0977 61.506 89.5825 208.149 72.9009C307.835 61.531 340.842 -32.454 530.093 36.9117C724.773 108.264 760.386 29.6573 768.765 -10.9238" stroke="#7A5B56" stroke-width="1.26" stroke-miterlimit="10"/>
</g>
<g style="mix-blend-mode:screen">
<path d="M-29.7456 53.1776C56.0816 -37.2485 64.7501 92.0026 212.053 75.3842C312.136 64.0543 342.436 -34.7992 533.044 33.6035C726.396 102.986 761.107 33.5802 769.152 -5.38477" stroke="#7D5D56" stroke-width="1.29" stroke-miterlimit="10"/>
</g>
<g style="mix-blend-mode:screen">
<path d="M-30.6724 46.1455C59.8891 -43.4041 67.9941 94.4176 215.954 77.8593C316.441 66.5894 344.026 -37.1293 535.995 30.287C728.013 97.7199 761.83 37.4948 769.538 0.149414" stroke="#805F56" stroke-width="1.32" stroke-miterlimit="10"/>
</g>
<g style="mix-blend-mode:screen">
<path d="M-31.5994 39.1143C63.6964 -49.5622 71.238 96.8369 219.871 80.3419C320.761 69.1153 345.626 -39.4386 538.962 26.9713C729.644 92.4715 762.567 41.4103 769.942 5.69112" stroke="#836256" stroke-width="1.35" stroke-miterlimit="10"/>
</g>
<g style="mix-blend-mode:screen">
<path d="M-32.5129 32.0871C67.5071 -55.7198 74.5085 99.2535 223.768 82.8218C325.062 71.6451 347.2 -41.7273 541.909 23.6596C731.244 87.2471 763.287 45.3197 770.325 11.2333" stroke="#866456" stroke-width="1.38" stroke-miterlimit="10"/>
</g>
<g style="mix-blend-mode:screen">
<path d="M-33.4529 25.0658C71.3115 -61.868 77.7294 101.683 227.656 85.3109C329.343 74.1843 348.761 -43.9834 544.847 20.3572C732.831 82.0486 763.981 49.2452 770.699 16.775" stroke="#896655" stroke-width="1.41" stroke-miterlimit="10"/>
</g>
<g style="mix-blend-mode:screen">
<path d="M-34.3831 18.0249C75.1189 -68.0358 80.9735 104.089 231.557 87.7838C333.658 76.7172 350.324 -46.2457 547.797 17.0352C734.428 76.8471 764.717 53.1643 771.085 22.3136" stroke="#8C6855" stroke-width="1.44" stroke-miterlimit="10"/>
</g>
<g style="mix-blend-mode:screen">
<path d="M-35.3101 10.9935C78.9262 -74.1941 84.2173 106.508 235.461 90.2628C337.962 79.2295 351.898 -48.4752 550.748 13.736C736.018 71.6851 765.437 57.0928 771.459 27.8683" stroke="#8F6A55" stroke-width="1.47" stroke-miterlimit="10"/>
</g>
<g style="mix-blend-mode:screen">
<path d="M-36.2368 3.96242C82.7337 -80.3455 87.4547 108.931 239.362 92.7456C342.266 81.7489 353.441 -50.6811 553.698 10.4105C737.608 66.5169 766.161 60.9986 771.858 33.4035" stroke="#926C55" stroke-width="1.5" stroke-miterlimit="10"/>
</g>
<g style="mix-blend-mode:screen">
<path d="M-37.1636 -3.06575C86.5279 -86.5139 90.7088 111.343 243.263 95.2379C346.567 84.3012 354.992 -52.8507 556.659 7.11117C739.205 61.3915 766.898 64.927 772.259 38.9516" stroke="#956E54" stroke-width="1.53" stroke-miterlimit="10"/>
</g>
<g style="mix-blend-mode:screen">
<path d="M-38.0906 -10.0968C90.3485 -92.6718 93.9526 113.763 247.163 97.7107C350.871 86.814 356.539 -55.0232 559.606 3.78573C740.786 56.2566 767.614 68.8328 772.649 44.4768" stroke="#997154" stroke-width="1.56" stroke-miterlimit="10"/>
</g>
<g style="mix-blend-mode:screen">
<path d="M-39.0176 -17.1284C94.1558 -98.8304 97.1965 116.165 251.064 100.17C355.175 89.3261 358.086 -57.173 562.547 0.456286C742.353 51.151 768.315 72.7478 773.019 50.018" stroke="#9C7354" stroke-width="1.59" stroke-miterlimit="10"/>
</g>
<g style="mix-blend-mode:screen">
<path d="M-39.9475 -24.159C97.9602 -104.988 100.441 118.598 254.968 102.666C359.479 91.8726 359.616 -59.2651 565.497 -2.8388C743.933 46.0631 769.048 76.6672 773.406 55.5602" stroke="#9F7554" stroke-width="1.62" stroke-miterlimit="10"/>
</g>
<g style="mix-blend-mode:screen">
<path d="M-40.8745 -31.1905C101.767 -111.146 103.685 121.014 258.879 105.145C363.793 94.4016 361.16 -61.348 568.458 -6.15469C745.52 40.9911 769.782 80.5825 773.802 61.0983" stroke="#A27754" stroke-width="1.65" stroke-miterlimit="10"/>
</g>
<g style="mix-blend-mode:screen">
<path d="M-41.8013 -38.2186C105.562 -117.305 106.932 123.433 262.77 107.627C368.088 96.9272 362.68 -63.4043 571.399 -9.46398C747.1 35.939 770.492 84.5076 774.179 66.643" stroke="#A57953" stroke-width="1.68" stroke-miterlimit="10"/>
</g>
<g style="mix-blend-mode:screen">
<path d="M-42.728 -45.2465C109.383 -123.463 110.183 125.849 266.671 110.107C372.392 99.4432 364.207 -65.4338 574.349 -12.7763C748.661 30.9005 771.215 88.4199 774.566 72.1814" stroke="#A87B53" stroke-width="1.71" stroke-miterlimit="10"/>
</g>
<g style="mix-blend-mode:screen">
<path d="M-43.655 -52.2815C113.183 -129.625 113.42 128.267 270.571 112.589C376.696 101.985 365.731 -67.4336 577.3 -16.0924C750.238 25.8949 771.935 92.3349 774.953 77.7226" stroke="#AB7E53" stroke-width="1.74" stroke-miterlimit="10"/>
</g>
<g style="mix-blend-mode:screen">
<path d="M-44.582 -59.3123C116.997 -135.783 116.664 130.687 274.482 115.068C381.01 104.512 367.264 -69.4059 580.26 -19.4043C751.825 20.8736 772.669 96.2542 775.349 83.2647" stroke="#AE8053" stroke-width="1.76" stroke-miterlimit="10"/>
</g>
<g style="mix-blend-mode:screen">
<path d="M-45.5156 -66.3439C120.798 -141.941 119.901 133.103 278.369 117.547C385.304 107.04 368.774 -71.3457 583.201 -22.7171C753.395 15.8846 773.379 100.169 775.726 88.806" stroke="#B18253" stroke-width="1.79" stroke-miterlimit="10"/>
</g>
<g style="mix-blend-mode:screen">
<path d="M-46.4387 -73.3714C124.612 -148.099 123.155 135.522 282.294 120.03C389.626 109.57 370.312 -73.2448 586.168 -26.029C754.979 10.9098 774.103 104.088 776.113 94.3447" stroke="#B48452" stroke-width="1.82" stroke-miterlimit="10"/>
</g>
<g style="mix-blend-mode:screen">
<path d="M-47.3657 -80.4021C128.42 -154.256 126.399 137.939 286.178 122.51C393.913 112.1 371.812 -75.1337 589.102 -29.3408C756.559 5.95186 774.826 108.004 776.5 99.8868" stroke="#B88652" stroke-width="1.85" stroke-miterlimit="10"/>
</g>
<g style="mix-blend-mode:screen">
<path d="M-48.2925 -87.4341C132.227 -160.412 129.643 140.357 290.079 124.988C398.217 114.625 373.329 -76.9806 592.053 -32.654C758.146 1.00249 775.546 111.922 776.887 105.428" stroke="#BB8852" stroke-width="1.88" stroke-miterlimit="10"/>
</g>
<g style="mix-blend-mode:screen">
<path d="M-49.2192 -94.4649C136.035 -166.573 132.887 142.774 293.98 127.468C402.521 117.138 374.843 -78.8029 595 -35.9692C759.736 -3.92222 776.27 115.835 777.273 110.966" stroke="#BE8B52" stroke-width="1.91" stroke-miterlimit="10"/>
</g>
<g style="mix-blend-mode:screen">
<path d="M-50.1465 -101.496C139.855 -172.731 136.131 145.193 297.887 129.951C406.832 119.684 376.369 -80.5723 597.947 -39.2781C761.313 -8.83397 776.983 119.757 777.65 116.512" stroke="#C18D51" stroke-width="1.94" stroke-miterlimit="10"/>
</g>
<g style="mix-blend-mode:screen">
<path d="M-51.0732 -108.524C143.649 -178.893 139.378 147.608 301.784 132.433C411.14 122.209 377.88 -82.3157 600.901 -42.5911C762.934 -13.7331 777.713 123.675 778.047 122.049" stroke="#C48F51" stroke-width="1.97" stroke-miterlimit="10"/>
</g>
<g style="mix-blend-mode:screen">
<path d="M-52 -115.558C147.457 -185.051 142.622 150.028 305.685 134.913C415.431 124.739 379.4 -84.0211 603.852 -45.9026C764.534 -18.6175 778.433 127.592 778.433 127.592" stroke="#C79151" stroke-width="2" stroke-miterlimit="10"/>
</g>
</svg>
