<svg width="40" height="49" viewBox="0 0 40 49" fill="none" xmlns="http://www.w3.org/2000/svg">
<path opacity="0.24" fill-rule="evenodd" clip-rule="evenodd" d="M20 49C23.3137 49 26 48.5523 26 48C26 47.4477 23.3137 47 20 47C16.6863 47 14 47.4477 14 48C14 48.5523 16.6863 49 20 49Z" fill="#161E34"/>
<path d="M20 0C8.956 0 0 8.97702 0 20.0477C0 31.2919 8.75 37.9568 20 48C31.25 37.9568 40 31.2919 40 20.0477C40 8.97702 31.044 0 20 0Z" fill="#3C008C"/>
<path d="M20 32C13.3715 32 8 26.627 8 20C8 13.373 13.3715 8 20 8C26.6285 8 32 13.373 32 20C32 26.627 26.6285 32 20 32Z" fill="white"/>
</svg>
