<svg width="40" height="49" viewBox="0 0 40 49" fill="none" xmlns="http://www.w3.org/2000/svg">
<path opacity="0.24" fill-rule="evenodd" clip-rule="evenodd" d="M20 49C23.3137 49 26 48.5523 26 48C26 47.4477 23.3137 47 20 47C16.6863 47 14 47.4477 14 48C14 48.5523 16.6863 49 20 49Z" fill="#161E34"/>
<path d="M20 0C8.956 0 0 8.97702 0 20.0477C0 31.2919 8.75 37.9568 20 48C31.25 37.9568 40 31.2919 40 20.0477C40 8.97702 31.044 0 20 0Z" fill="#652D8D"/>
<path d="M20 32C13.3715 32 8 26.627 8 20C8 13.373 13.3715 8 20 8C26.6285 8 32 13.373 32 20C32 26.627 26.6285 32 20 32Z" fill="white"/>
<path d="M24.0253 17.6943C23.6557 17.6943 23.3551 17.9993 23.3551 18.3743V19.9451C23.3551 20.5942 22.9414 21.0775 22.3927 21.0775C21.844 21.0775 21.4301 20.5942 21.4301 19.9451V18.3743C21.4301 17.993 21.1435 17.6943 20.7778 17.6943C20.4083 17.6943 20.1077 17.9993 20.1077 18.3743V19.9748C20.1077 21.3685 21.09 22.3899 22.3927 22.3899C23.0246 22.3899 23.6081 22.1382 24.036 21.6814C24.4611 21.2271 24.6954 20.6103 24.6954 19.9452V18.3744C24.6954 17.9993 24.3949 17.6943 24.0253 17.6943Z" fill="#652D8D"/>
<path d="M27.4711 24.8462C27.4148 24.8462 27.3578 24.837 27.3027 24.8182L25.4949 24.3535C24.7578 24.7769 23.9252 24.9994 23.0717 24.9994H16.9275C14.2104 24.9994 12 22.7565 12 19.9997C12 17.2429 14.2104 15 16.9275 15H19.0493C19.3408 15 19.5772 15.24 19.5772 15.5356C19.5772 15.8315 19.3408 16.0714 19.0493 16.0714H16.9275C14.7926 16.0714 13.0559 17.8336 13.0559 19.9997C13.0559 22.1658 14.7926 23.9277 16.9275 23.9277H23.0717C23.8105 23.9277 24.5288 23.7161 25.1487 23.3152C25.2152 23.2723 25.2903 23.245 25.3686 23.2353C25.4468 23.2256 25.5262 23.2338 25.6009 23.2593L26.7843 23.6135L26.2843 22.566C26.2591 22.4902 26.251 22.4097 26.2606 22.3303C26.2701 22.2509 26.2971 22.1747 26.3394 22.1072C26.7344 21.4781 26.9433 20.7493 26.9433 19.9998C26.9433 17.8336 25.2065 16.0714 23.0716 16.0714H20.9497C20.6582 16.0714 20.4219 15.8316 20.4219 15.5357C20.4219 15.24 20.6582 15 20.9497 15H23.0716C25.7888 15 27.9989 17.2429 27.9989 19.9998C27.9989 20.866 27.7798 21.7105 27.3628 22.4585L27.9714 24.1396C27.9981 24.2202 28.0056 24.3061 27.9932 24.3902C27.9807 24.4742 27.9488 24.5541 27.8999 24.6232C27.851 24.6922 27.7866 24.7485 27.712 24.7872C27.6375 24.826 27.5549 24.8463 27.4711 24.8462Z" fill="#AACE37"/>
<path d="M18.7595 20.568C18.6715 20.5678 18.5842 20.5853 18.5029 20.6195C18.4216 20.6537 18.3477 20.7039 18.2857 20.7673C18.0841 20.9718 17.8156 21.0843 17.5299 21.0843C17.2441 21.0843 16.9758 20.9718 16.7744 20.7671C16.5644 20.5543 16.4442 20.2748 16.4442 20.0004C16.4442 19.7259 16.5644 19.4463 16.7744 19.2333C16.8734 19.1323 16.9911 19.0522 17.1208 18.9977C17.2505 18.9432 17.3895 18.9153 17.5299 18.9157C17.8153 18.9157 18.0837 19.0286 18.2857 19.2333C18.3477 19.2967 18.4215 19.3469 18.5029 19.3811C18.5842 19.4153 18.6714 19.4328 18.7595 19.4325C18.9386 19.4325 19.1068 19.3617 19.2335 19.2333C19.4947 18.9682 19.4947 18.5369 19.2335 18.2716C18.7786 17.8099 18.1736 17.5557 17.5299 17.5557C16.8865 17.5557 16.2816 17.8099 15.8267 18.2716C14.8875 19.2248 14.8875 20.7759 15.8267 21.7293C16.2809 22.1901 16.8858 22.4439 17.5299 22.4439C18.1741 22.4439 18.7791 22.19 19.2335 21.7289C19.4947 21.464 19.4947 21.0324 19.2335 20.7671C19.1714 20.7038 19.0975 20.6536 19.0161 20.6194C18.9348 20.5852 18.8475 20.5678 18.7595 20.568Z" fill="#652D8D"/>
</svg>
