<svg width="40" height="40" viewBox="0 0 40 40" fill="none" xmlns="http://www.w3.org/2000/svg">
<path d="M19.9998 1.6665C16.3739 1.6665 12.8293 2.74173 9.81439 4.75623C6.79949 6.77072 4.44966 9.634 3.06205 12.984C1.67445 16.334 1.31139 20.0202 2.01878 23.5765C2.72618 27.1328 4.47226 30.3995 7.03622 32.9635C9.60019 35.5274 12.8669 37.2735 16.4232 37.9809C19.9795 38.6883 23.6657 38.3252 27.0157 36.9376C30.3657 35.55 33.229 33.2002 35.2435 30.1853C37.258 27.1704 38.3332 23.6258 38.3332 19.9998C38.3274 15.1393 36.3941 10.4795 32.9571 7.04255C29.5202 3.60562 24.8604 1.67224 19.9998 1.6665ZM27.8448 17.0115L19.5115 25.3448C19.199 25.6573 18.7751 25.8328 18.3332 25.8328C17.8912 25.8328 17.4674 25.6573 17.1548 25.3448L12.1548 20.3448C11.9957 20.1911 11.8687 20.0072 11.7813 19.8038C11.694 19.6005 11.648 19.3818 11.6461 19.1605C11.6442 18.9392 11.6863 18.7197 11.7701 18.5149C11.8539 18.3101 11.9777 18.124 12.1342 17.9675C12.2907 17.811 12.4768 17.6873 12.6816 17.6035C12.8864 17.5197 13.1059 17.4775 13.3272 17.4794C13.5485 17.4813 13.7672 17.5273 13.9705 17.6147C14.1739 17.702 14.3578 17.829 14.5115 17.9882L18.3332 21.8098L25.4882 14.6548C25.8025 14.3512 26.2235 14.1833 26.6605 14.187C27.0975 14.1908 27.5155 14.3661 27.8245 14.6751C28.1336 14.9842 28.3088 15.4022 28.3126 15.8392C28.3164 16.2762 28.1484 16.6972 27.8448 17.0115Z" fill="white"/>
</svg>
