<svg width="40" height="40" viewBox="0 0 40 40" fill="none" xmlns="http://www.w3.org/2000/svg">
<path d="M20.0003 1.6665C16.3743 1.6665 12.8298 2.74174 9.81488 4.75623C6.79998 6.77072 4.45015 9.634 3.06254 12.984C1.67494 16.334 1.31187 20.0202 2.01927 23.5765C2.72667 27.1328 4.47275 30.3995 7.03671 32.9635C9.60067 35.5274 12.8674 37.2735 16.4237 37.9809C19.98 38.6883 23.6662 38.3252 27.0162 36.9376C30.3662 35.55 33.2294 33.2002 35.2439 30.1853C37.2584 27.1704 38.3337 23.6258 38.3337 19.9998C38.3279 15.1393 36.3945 10.4795 32.9576 7.04255C29.5207 3.60562 24.8609 1.67224 20.0003 1.6665ZM27.0703 24.7148C27.2295 24.8686 27.3565 25.0525 27.4438 25.2558C27.5312 25.4592 27.5772 25.6779 27.5791 25.8992C27.581 26.1205 27.5388 26.3399 27.455 26.5448C27.3712 26.7496 27.2475 26.9357 27.091 27.0922C26.9345 27.2487 26.7484 27.3724 26.5436 27.4562C26.3388 27.54 26.1193 27.5822 25.898 27.5803C25.6767 27.5783 25.458 27.5324 25.2547 27.445C25.0513 27.3577 24.8674 27.2307 24.7137 27.0715L20.0003 22.3565L15.287 27.0715C14.9727 27.3751 14.5517 27.5431 14.1147 27.5393C13.6777 27.5355 13.2596 27.3602 12.9506 27.0512C12.6416 26.7422 12.4663 26.3242 12.4625 25.8872C12.4587 25.4502 12.6267 25.0292 12.9303 24.7148L17.6437 19.9998L12.9303 15.2848C12.7711 15.1311 12.6442 14.9472 12.5568 14.7438C12.4695 14.5405 12.4235 14.3218 12.4216 14.1005C12.4197 13.8792 12.4618 13.6597 12.5456 13.4549C12.6294 13.2501 12.7532 13.064 12.9097 12.9075C13.0662 12.751 13.2522 12.6273 13.4571 12.5435C13.6619 12.4597 13.8814 12.4175 14.1027 12.4194C14.324 12.4213 14.5427 12.4673 14.746 12.5547C14.9493 12.642 15.1333 12.769 15.287 12.9282L20.0003 17.6432L24.7137 12.9282C24.8674 12.769 25.0513 12.642 25.2547 12.5547C25.458 12.4673 25.6767 12.4213 25.898 12.4194C26.1193 12.4175 26.3388 12.4597 26.5436 12.5435C26.7484 12.6273 26.9345 12.751 27.091 12.9075C27.2475 13.064 27.3712 13.2501 27.455 13.4549C27.5388 13.6597 27.581 13.8792 27.5791 14.1005C27.5772 14.3218 27.5312 14.5405 27.4438 14.7438C27.3565 14.9472 27.2295 15.1311 27.0703 15.2848L22.357 19.9998L27.0703 24.7148Z" fill="white"/>
</svg>
