<svg width="47" height="40" viewBox="0 0 47 40" fill="none" xmlns="http://www.w3.org/2000/svg">
<path d="M36.4708 26.3389V13.6597C36.4704 12.3747 36.1333 11.1125 35.4935 9.99976C34.8536 8.88698 33.9333 7.9628 32.8252 7.32004L21.8835 0.980393C20.7744 0.338104 19.5166 0 18.2362 0C16.9559 0 15.6981 0.338104 14.589 0.980393L3.64724 7.32004C2.53894 7.96272 1.6185 8.88683 0.978319 9.99957C0.338137 11.1123 0.000752736 12.3746 0 13.6597V26.3389C0.000396177 27.6241 0.337622 28.8865 0.977843 29.9993C1.61806 31.112 2.5387 32.0362 3.64724 32.6786L14.589 39.0181C15.6978 39.6616 16.9557 40 18.2362 40C19.5168 40 20.7747 39.6616 21.8835 39.0181L32.8252 32.6786C33.9337 32.0362 34.854 31.112 35.4939 29.9991C36.1337 28.8863 36.4708 27.624 36.4708 26.3389Z" fill="url(#paint0_linear_2147_229)"/>
<path d="M47 26.3389V13.6597C46.9992 12.3746 46.6621 11.1123 46.0218 9.99957C45.3816 8.88683 44.4613 7.96272 43.3528 7.32004L32.4112 0.980393C31.3019 0.338104 30.0442 0 28.7639 0C27.4835 0 26.2257 0.338104 25.1166 0.980393L14.1711 7.32004C13.0631 7.9628 12.1429 8.88698 11.5031 9.99976C10.8632 11.1125 10.5262 12.3747 10.5258 13.6597V26.3389C10.5258 27.624 10.8627 28.8863 11.5025 29.9991C12.1424 31.112 13.0628 32.0362 14.1711 32.6786L25.1129 39.0181C26.2217 39.6616 27.4796 40 28.7601 40C30.0407 40 31.2987 39.6616 32.4072 39.0181L43.3492 32.6786C44.4585 32.0366 45.3796 31.1128 46.0207 30C46.6617 28.8871 46.9992 27.6245 47 26.3389Z" fill="url(#paint1_linear_2147_229)"/>
<defs>
<linearGradient id="paint0_linear_2147_229" x1="9.11812" y1="35.856" x2="27.4656" y2="4.20721" gradientUnits="userSpaceOnUse">
<stop offset="0.1" stop-color="#9650FF"/>
<stop offset="1" stop-color="#00E6FF" stop-opacity="0"/>
</linearGradient>
<linearGradient id="paint1_linear_2147_229" x1="19.6457" y1="35.856" x2="37.9933" y2="4.20721" gradientUnits="userSpaceOnUse">
<stop stop-color="#9650FF" stop-opacity="0"/>
<stop offset="0.9" stop-color="#00E6FF"/>
</linearGradient>
</defs>
</svg>
