<svg width="149" height="36" viewBox="0 0 149 36" fill="none" xmlns="http://www.w3.org/2000/svg">
<path d="M13.9928 12.68C13.1288 12.68 12.2168 12.776 11.3528 12.968L19.0328 1.976V1.4H12.7928L4.92081 12.968C1.56081 17.96 0.408815 20.648 0.408815 23.912C0.408815 30.776 5.49681 35.576 12.7448 35.576C19.8968 35.576 25.0808 30.68 25.0808 23.912C25.0808 17.384 20.4248 12.68 13.9928 12.68ZM12.7448 30.248C8.71281 30.248 6.02482 27.704 6.02482 23.912C6.02482 20.072 8.71281 17.576 12.7448 17.576C16.7768 17.576 19.4648 20.072 19.4648 23.912C19.4648 27.704 16.7768 30.248 12.7448 30.248ZM32.6517 12.344L35.7237 2.648V1.4H30.1077L27.8517 11.96V12.344H32.6517ZM53.1327 35.48C61.5807 35.48 66.4767 28.808 66.4767 18.2C66.4767 7.544 61.5807 0.919998 53.1327 0.919998C44.6847 0.919998 39.7407 7.544 39.7407 18.2C39.7407 28.808 44.6847 35.48 53.1327 35.48ZM53.1327 30.152C47.9967 30.152 45.4047 25.736 45.4047 18.2C45.4047 10.616 47.9967 6.248 53.1327 6.248C58.2207 6.248 60.8127 10.616 60.8127 18.2C60.8127 25.736 58.2207 30.152 53.1327 30.152ZM83.1724 35.48C91.6204 35.48 96.5164 28.808 96.5164 18.2C96.5164 7.544 91.6204 0.919998 83.1724 0.919998C74.7244 0.919998 69.7804 7.544 69.7804 18.2C69.7804 28.808 74.7244 35.48 83.1724 35.48ZM83.1724 30.152C78.0364 30.152 75.4444 25.736 75.4444 18.2C75.4444 10.616 78.0364 6.248 83.1724 6.248C88.2604 6.248 90.8524 10.616 90.8524 18.2C90.8524 25.736 88.2604 30.152 83.1724 30.152ZM113.212 35.48C121.66 35.48 126.556 28.808 126.556 18.2C126.556 7.544 121.66 0.919998 113.212 0.919998C104.764 0.919998 99.8202 7.544 99.8202 18.2C99.8202 28.808 104.764 35.48 113.212 35.48ZM113.212 30.152C108.076 30.152 105.484 25.736 105.484 18.2C105.484 10.616 108.076 6.248 113.212 6.248C118.3 6.248 120.892 10.616 120.892 18.2C120.892 25.736 118.3 30.152 113.212 30.152ZM141.236 16.04V8.6H136.436V16.04H129.38V20.696H136.436V28.232H141.236V20.696H148.292V16.04H141.236Z" fill="#161E34"/>
</svg>
