<svg width="248" height="210" viewBox="0 0 248 210" fill="none" xmlns="http://www.w3.org/2000/svg">
<g clip-path="url(#clip0_11_544)">
<path d="M192.223 138.545L192.529 72.0678C192.548 65.3265 190.797 58.698 187.451 52.843C184.104 46.988 179.279 42.1111 173.456 38.6985L115.973 5.19806C110.127 1.82843 103.496 0.0544434 96.7459 0.0544434C89.9959 0.0544434 83.365 1.82843 77.5194 5.19806L19.6861 38.087C13.8357 41.4286 8.96659 46.2453 5.56563 52.0553C2.16468 57.8653 0.351078 64.465 0.306365 71.1943L0.000106574 137.715C-0.0157463 144.449 1.73725 151.071 5.08395 156.918C8.43066 162.766 13.2541 167.635 19.0736 171.04L76.5568 204.541C82.4025 207.91 89.0336 209.684 95.7836 209.684C102.534 209.684 109.165 207.91 115.01 204.541L172.843 171.565C178.684 168.234 183.547 163.432 186.948 157.637C190.349 151.843 192.168 145.26 192.223 138.545Z" fill="url(#paint0_linear_11_544)"/>
<path d="M247.694 138.85L248 72.3733C248.042 65.6384 246.306 59.0115 242.965 53.1606C239.624 47.3097 234.797 42.4418 228.97 39.0475L171.443 5.50341C165.598 2.13379 158.967 0.359863 152.217 0.359863C145.467 0.359863 138.836 2.13379 132.99 5.50341L75.2004 38.4797C69.3317 41.8114 64.4486 46.6319 61.0455 52.4533C57.6424 58.2747 55.84 64.8903 55.8207 71.6307L55.4706 138.107C55.4504 144.843 57.2015 151.466 60.5486 157.314C63.8957 163.162 68.7219 168.031 74.5444 171.433L132.027 204.934C137.873 208.303 144.504 210.077 151.254 210.077C158.004 210.077 164.635 208.303 170.481 204.934L228.314 172.001C234.174 168.659 239.049 163.836 242.451 158.017C245.853 152.198 247.661 145.588 247.694 138.85V138.85Z" fill="url(#paint1_linear_11_544)"/>
<path d="M50.615 92.9886C48.7987 92.9095 46.9898 93.2645 45.3386 94.0242C43.6875 94.7839 42.2418 95.9263 41.122 97.3563C40.1363 95.9657 38.8221 94.8394 37.2958 94.0775C35.7696 93.3156 34.0785 92.9416 32.3727 92.9886C29.5727 92.9115 26.8439 93.8767 24.717 95.6966V93.5564H19.4236V116.443H24.717V105.218C24.717 100.195 26.9918 97.8368 31.7602 97.8804C35.6536 97.8804 37.4472 100.108 37.4472 104.869V116.531H42.7406V105.306C42.7406 100.283 45.0593 97.9241 49.9152 97.9678C53.7649 97.9678 55.6021 100.195 55.5584 104.956V116.705H60.7643V103.602C60.8488 102.227 60.648 100.849 60.1742 99.5553C59.7004 98.2614 58.9638 97.0791 58.0109 96.0827C57.058 95.0862 55.9094 94.297 54.6367 93.7646C53.364 93.2322 51.9947 92.968 50.615 92.9886Z" fill="white"/>
<path d="M80.4063 93.1196C71.3508 93.1196 64.439 98.2299 64.439 105.131C64.439 112.032 71.0445 117.229 80.3188 117.273C89.5931 117.317 96.2427 112.163 96.2864 105.262C96.3302 98.3609 89.5057 93.1633 80.4063 93.1196ZM90.9057 105.262C90.9057 109.63 86.5308 112.425 80.3188 112.381C74.1067 112.338 69.776 109.324 69.8197 105.131C69.8635 100.938 74.1943 97.9678 80.4063 98.0115C86.6184 98.0551 90.9494 101.069 90.9057 105.262Z" fill="white"/>
<path d="M115.404 93.2946C111.815 93.1842 108.311 94.3969 105.561 96.7014V93.8624H100.136V116.793H105.43V106.31C105.43 100.894 108.448 98.1865 114.179 98.2302C119.91 98.2738 121.966 100.589 121.922 105.786V116.706H127.215V105C127.335 103.425 127.11 101.843 126.558 100.363C126.005 98.8823 125.137 97.5395 124.015 96.4267C122.892 95.3138 121.54 94.4574 120.053 93.9167C118.567 93.376 116.981 93.1637 115.404 93.2946V93.2946Z" fill="white"/>
<path d="M148.651 93.4692C144.811 93.371 141.044 94.5375 137.933 96.7887V94.0371H132.64V125.092H137.933V114.216C140.935 116.494 144.619 117.694 148.389 117.623C158.013 117.623 163.831 111.552 163.831 105.655C163.831 98.6232 157.488 93.5129 148.651 93.4692ZM147.907 98.3174C154.032 98.3174 158.451 101.419 158.451 105.568C158.451 109.717 154.076 112.731 147.82 112.687C141.564 112.644 137.277 109.63 137.321 105.48C137.365 101.331 141.783 98.3174 147.907 98.3174V98.3174Z" fill="white"/>
<path d="M226.477 94.43L216.984 110.46H216.809L206.659 94.3426L200.36 94.299L213.834 115.744L208.147 125.397H213.703L232.076 94.4737L226.477 94.43Z" fill="white"/>
<path d="M192.311 117.186H197.604V94.2992H192.442V97.0509C189.359 94.7622 185.608 93.5497 181.768 93.6004C173.018 93.6004 166.544 98.6233 166.5 105.612C166.5 111.552 172.231 117.71 181.855 117.754C185.621 117.804 189.304 116.64 192.354 114.434L192.311 117.186ZM182.38 112.818C176.256 112.818 171.837 109.761 171.837 105.568C171.837 101.375 176.212 98.4049 182.424 98.4486C188.636 98.4923 192.967 101.506 192.967 105.699C192.967 109.892 188.505 112.906 182.38 112.862V112.818Z" fill="white"/>
</g>
<defs>
<linearGradient id="paint0_linear_11_544" x1="53.1524" y1="175.539" x2="149.035" y2="9.21533" gradientUnits="userSpaceOnUse">
<stop offset="0.1" stop-color="#9650FF"/>
<stop offset="1" stop-color="#00E6FF" stop-opacity="0"/>
</linearGradient>
<linearGradient id="paint1_linear_11_544" x1="108.667" y1="175.539" x2="204.549" y2="9.21498" gradientUnits="userSpaceOnUse">
<stop stop-color="#9650FF" stop-opacity="0"/>
<stop offset="0.9" stop-color="#00E6FF"/>
</linearGradient>
<clipPath id="clip0_11_544">
<rect width="248" height="210" fill="white"/>
</clipPath>
</defs>
</svg>
