<svg width="209" height="36" viewBox="0 0 209 36" fill="none" xmlns="http://www.w3.org/2000/svg">
<path d="M19.6651 17.336C22.0651 15.704 23.5531 13.112 23.5531 10.136C23.5531 4.856 18.8491 0.919998 12.6091 0.919998C6.36907 0.919998 1.71307 4.856 1.71307 10.136C1.71307 13.112 3.15307 15.704 5.60107 17.336C2.24107 19.016 0.177066 21.992 0.177066 25.688C0.177066 31.448 5.31307 35.48 12.6091 35.48C19.9531 35.48 25.0891 31.496 25.0891 25.688C25.0891 21.992 23.0251 19.016 19.6651 17.336ZM12.6091 5.912C15.9691 5.912 18.2251 7.784 18.2251 10.568C18.2251 13.352 15.9691 15.224 12.6091 15.224C9.29707 15.224 7.04107 13.352 7.04107 10.568C7.04107 7.784 9.29707 5.912 12.6091 5.912ZM12.6091 30.2C8.48107 30.2 5.84107 28.232 5.84107 25.112C5.84107 22.04 8.48107 20.072 12.6091 20.072C16.7851 20.072 19.3771 22.04 19.3771 25.112C19.3771 28.232 16.7851 30.2 12.6091 30.2ZM40.7719 35.48C49.2199 35.48 54.1159 28.808 54.1159 18.2C54.1159 7.544 49.2199 0.919998 40.7719 0.919998C32.3239 0.919998 27.3799 7.544 27.3799 18.2C27.3799 28.808 32.3239 35.48 40.7719 35.48ZM40.7719 30.152C35.6359 30.152 33.0439 25.736 33.0439 18.2C33.0439 10.616 35.6359 6.248 40.7719 6.248C45.8599 6.248 48.4519 10.616 48.4519 18.2C48.4519 25.736 45.8599 30.152 40.7719 30.152ZM70.8117 35.48C79.2597 35.48 84.1557 28.808 84.1557 18.2C84.1557 7.544 79.2597 0.919998 70.8117 0.919998C62.3637 0.919998 57.4197 7.544 57.4197 18.2C57.4197 28.808 62.3637 35.48 70.8117 35.48ZM70.8117 30.152C65.6757 30.152 63.0837 25.736 63.0837 18.2C63.0837 10.616 65.6757 6.248 70.8117 6.248C75.8997 6.248 78.4917 10.616 78.4917 18.2C78.4917 25.736 75.8997 30.152 70.8117 30.152ZM92.6914 12.344L95.7634 2.648V1.4H90.1474L87.8914 11.96V12.344H92.6914ZM113.172 35.48C121.62 35.48 126.516 28.808 126.516 18.2C126.516 7.544 121.62 0.919998 113.172 0.919998C104.724 0.919998 99.7804 7.544 99.7804 18.2C99.7804 28.808 104.724 35.48 113.172 35.48ZM113.172 30.152C108.036 30.152 105.444 25.736 105.444 18.2C105.444 10.616 108.036 6.248 113.172 6.248C118.26 6.248 120.852 10.616 120.852 18.2C120.852 25.736 118.26 30.152 113.172 30.152ZM143.212 35.48C151.66 35.48 156.556 28.808 156.556 18.2C156.556 7.544 151.66 0.919998 143.212 0.919998C134.764 0.919998 129.82 7.544 129.82 18.2C129.82 28.808 134.764 35.48 143.212 35.48ZM143.212 30.152C138.076 30.152 135.484 25.736 135.484 18.2C135.484 10.616 138.076 6.248 143.212 6.248C148.3 6.248 150.892 10.616 150.892 18.2C150.892 25.736 148.3 30.152 143.212 30.152ZM173.252 35.48C181.7 35.48 186.596 28.808 186.596 18.2C186.596 7.544 181.7 0.919998 173.252 0.919998C164.804 0.919998 159.86 7.544 159.86 18.2C159.86 28.808 164.804 35.48 173.252 35.48ZM173.252 30.152C168.116 30.152 165.524 25.736 165.524 18.2C165.524 10.616 168.116 6.248 173.252 6.248C178.34 6.248 180.932 10.616 180.932 18.2C180.932 25.736 178.34 30.152 173.252 30.152ZM201.276 16.04V8.6H196.476V16.04H189.42V20.696H196.476V28.232H201.276V20.696H208.332V16.04H201.276Z" fill="#161E34"/>
</svg>
