<svg width="34" height="34" viewBox="0 0 34 34" fill="none" xmlns="http://www.w3.org/2000/svg">
<path d="M30.3834 8.36941L20.8 1.65274C18.1834 -0.180589 14.1834 -0.0805888 11.6667 1.86941L3.31671 8.38608C1.63337 9.68608 0.333374 12.3527 0.333374 14.4527V25.9527C0.333374 30.2027 3.78337 33.6693 8.01671 33.6693H25.9667C30.2 33.6693 33.65 30.2193 33.65 25.9693V14.6693C33.6667 12.4194 32.2167 9.65274 30.3834 8.36941ZM25.1334 21.6527C25.1334 24.8527 22.5167 27.4693 19.3167 27.4693H14.6667C11.4667 27.4693 8.85004 24.8693 8.85004 21.6527V17.0027C8.85004 13.8027 11.4667 11.1861 14.6667 11.1861H19.3167C22.5167 11.1861 25.1334 13.786 25.1334 17.0027V21.6527Z" fill="#6A67CE"/>
</svg>
