<svg width="220" height="128" viewBox="0 0 220 128" fill="none" xmlns="http://www.w3.org/2000/svg">
<g clip-path="url(#clip0_1368_422)">
<path d="M139.569 47.2315C79.5754 36.5334 71.6172 108.272 40.9083 113.885C39.8629 111.799 40.3072 107.287 40.8691 104.712C44.9135 86.2169 47.1873 89.5353 56.8769 75.1667C57.2559 74.6061 63.5479 66.8482 65.7498 64.2013C67.6185 61.9652 81.346 43.2809 82.3261 42.0357C107.396 10.9712 95.3937 -12.0746 77.857 6.77271C43.2604 43.9327 70.2255 74.078 9.63746 122.23C5.34475 125.639 3.41727 124.185 3.46954 122.399C4.16866 97.2215 19.9151 84.7696 10.2255 106.342C9.73544 107.437 4.13598 118.181 8.60511 115.104C10.2778 113.95 13.2506 106.12 15.1389 101.453C20.085 89.2223 9.31076 76.0729 0.313698 120.489C-1.16294 127.784 3.09712 131.383 11.7217 123.579C12.3751 122.992 13.0285 122.386 13.6296 121.76C23.3193 112.066 37.759 97.052 39.9543 96.0024C40.6534 97.7757 38.9155 100.566 37.8505 106.016C34.2373 124.472 46.2987 122.23 61.9406 103.082C88.7554 70.4141 93.0024 44.1349 139.569 47.2315ZM65.8936 31.2397C78.151 1.0553 91.8524 0.240376 93.1984 5.72311C98.3536 26.6566 61.6205 65.7007 57.4258 71.4899C54.773 75.1667 32.6234 113.213 65.9001 31.2397H65.8936Z" fill="#161E34"/>
<path d="M160.274 78.6092C163.763 74.0913 158.772 67.0048 152.708 74.7432C152.218 75.4791 151.542 76.0728 150.748 76.4643C140.947 80.6302 135.296 91.5044 135.459 81.2169C135.459 79.9913 133.662 78.7265 131.264 80.4411C128.128 82.6968 127.429 84.3527 126.181 82.9706C122.516 78.8243 116.478 84.3266 113.153 86.2302C112.055 86.8822 111.447 83.2575 109.232 85.8587C108.775 86.4063 102.241 92.378 99.6602 95.1683C95.9686 95.9897 87.246 103.715 83.9791 102.62C81.3329 101.727 85.619 99.6079 87.3244 96.8633C89.2845 93.6753 84.7958 90.2657 81.5942 93.5449C78.3927 96.8241 80.2875 99.2363 76.4325 101.818C68.4351 107.131 64.7827 106.551 66.3574 108.585C68.6769 111.59 72.2378 108.415 75.0016 106.499C83.391 100.631 81.4897 108.996 88.9448 104.243C90.3822 103.324 97.1186 99.0276 99.6472 96.4199C100.542 96.1917 101.562 95.253 105.645 92.3128C108.507 90.2527 104.946 95.8919 106.749 97.0914C109.886 99.1711 112.44 86.8757 121.085 84.5287C126.024 83.1923 120.83 89.3791 122.574 91.198C125.07 93.8057 128.677 85.0046 130.8 85.3306C134.302 85.8782 124.685 97.2088 146.789 81.9406C147.906 81.1713 148.037 83.0945 148.278 84.0789C148.932 86.6149 150.702 86.6866 153.015 85.4936C154.505 87.4037 156.818 85.2785 159.784 83.4335C185.482 67.3048 207.481 66.705 219.961 65.2316C202.293 64.0842 180.438 68.3804 160.274 78.6092ZM152.78 81.5038C150.389 82.7489 153.433 74.4042 157.596 76.0406C157.596 78.1985 154.668 80.5193 152.78 81.5038Z" fill="#161E34"/>
</g>
<defs>
<clipPath id="clip0_1368_422">
<rect width="220" height="128" fill="white"/>
</clipPath>
</defs>
</svg>
