<svg width="410" height="220" viewBox="0 0 410 220" fill="none" xmlns="http://www.w3.org/2000/svg">
<g clip-path="url(#clip0_2050_674)">
<path d="M58.0607 204.797C58.2476 204.768 58.4384 204.812 58.5937 204.92C58.7491 205.028 58.857 205.192 58.8952 205.378C58.9334 205.564 58.899 205.757 58.7991 205.918C58.6992 206.079 58.5414 206.195 58.3583 206.243C58.2459 206.267 18.8586 214.797 8.004 189.847C-2.68381 165.293 0.413815 113.384 0.424872 113.231C0.434504 113.084 0.487854 112.943 0.578057 112.827C0.668261 112.71 0.79119 112.623 0.931019 112.577C1.07085 112.531 1.22118 112.529 1.36266 112.569C1.50415 112.61 1.63031 112.692 1.72491 112.805C1.98382 113.106 7.95978 119.971 18.0542 118.092C22.6555 117.234 25.6094 115.026 27.2679 112.789C28.0437 111.741 28.532 110.696 28.7752 109.791C28.9973 108.959 29.0074 108.276 28.8406 107.865C28.8142 107.774 28.7534 107.696 28.6711 107.648C28.3781 107.545 28.0519 108.202 27.571 109.167C26.5732 111.173 25.111 114.115 20.9657 115.524C14.1781 117.834 7.52858 114.957 7.51384 114.95C7.37344 114.89 7.2549 114.789 7.17454 114.659C7.09418 114.529 7.05596 114.377 7.06513 114.225C7.06513 114.125 9.27641 79.3253 14.3964 63.2679C14.5973 62.6341 14.7981 62.003 14.9972 61.3821C19.8481 46.0871 23.494 34.6098 32.0424 33.7089C36.3728 33.2469 42.2695 35.2205 45.3312 37.3234C46.2839 37.9785 46.9943 38.6696 47.3444 39.3348C47.8097 40.2172 47.7332 41.0423 46.95 41.7233C46.1042 42.4624 44.2265 42.941 40.9612 42.941C35.0147 42.941 32.8808 43.1258 32.8808 43.4649C32.8808 43.804 34.9999 44.8712 37.5798 46.1628C38.1068 46.4243 38.6504 46.6969 39.1958 46.9768C42.1027 48.4552 43.9151 50.0333 44.6936 51.3323C45.0465 51.9218 45.2086 52.4854 45.1819 52.9955C45.1706 53.2803 45.0931 53.5586 44.9557 53.8081C44.8183 54.0577 44.6248 54.2717 44.3905 54.4331C43.8377 54.8313 42.9854 55.0328 41.865 54.9727C39.4418 54.8415 32.7868 54.6502 28.6213 55.2499C27.5341 55.4042 26.6358 55.6084 26.0618 55.8754C25.7799 56.0066 25.6177 56.1008 25.6306 56.1424C25.6592 56.2348 25.7559 56.3651 25.9337 56.5333C27.3545 57.8684 30.6428 58.8219 33.6594 59.6969C36.4953 60.5192 39.1074 61.2759 40.0969 62.368C40.8672 63.2171 40.8699 64.1235 39.744 65.1546C37.7834 66.9416 33.6538 67.13 29.7104 67.3074C25.8895 67.483 22.2584 67.6484 21.6945 69.0888C21.5103 69.5508 21.9848 69.9111 22.8103 70.2382C23.7814 70.6207 25.1708 70.9275 26.6699 71.2546C30.3369 72.0584 34.6231 72.999 36.1378 75.7819C36.7644 76.9341 37.0988 77.9587 37.1403 78.8383C37.1854 79.8076 36.8897 80.604 36.2502 81.2083C35.6624 81.7626 34.7954 82.1322 33.6437 82.2717C31.8203 82.5055 29.2064 82.2015 25.7955 81.285C22.3165 80.3471 18.1086 85.7578 15.0589 92.3243C13.8167 94.9914 12.8098 97.7625 12.0497 100.606C11.3338 103.314 10.9441 105.872 10.9818 107.942C11.0334 110.459 11.7189 112.198 13.2696 112.436C17.9888 113.164 23.1466 104.155 27.43 96.6687C30.3922 91.4946 32.9582 87.0153 35.1031 86.5053C37.624 85.9029 40.7133 88.368 43.8054 92.5793C47.0993 97.0679 50.4945 103.61 53.2033 110.457C56.7625 119.459 70.4199 136.399 78.1557 145.597C77.3541 143.452 76.1628 141.089 74.5513 138.526C72.903 135.902 70.8189 133.074 68.2676 130.053C55.9554 115.502 56.7736 108.738 56.8206 108.417C56.8282 108.353 56.8446 108.291 56.8694 108.232C56.8851 108.196 62.3884 94.8144 54.707 89.6079C51.0482 87.1308 47.8253 86.4545 45.4224 85.9491C42.181 85.2709 40.2305 84.8625 40.2305 81.4577C40.2305 77.3434 47.407 77.8017 52.1999 78.5686C48.9641 76.813 43.9602 74.517 38.8853 73.873C36.9035 73.6217 35.7251 73.1579 35.1529 72.5795C34.5706 71.9817 34.5079 71.3165 34.8369 70.6198C35.0829 70.1042 35.5813 69.5933 36.2502 69.1091C38.2477 67.6659 42.0272 66.317 44.7747 66.0887C49.3115 65.709 60.4084 71.5105 64.2873 73.6291C63.5926 70.4082 61.4163 63.0637 55.9084 62.344C54.0906 62.1056 52.4533 61.9513 51.0114 61.8146C46.0443 61.3406 43.213 61.0754 42.8896 58.3728C42.5367 55.4541 54.2085 54.0072 58.4265 53.5803C56.6004 51.3536 53.2669 45.9771 55.5141 38.3351C56.9219 33.5574 57.7917 29.8413 57.4729 28.1717C57.2886 27.1923 56.0752 27.6376 53.289 30.2118C46.1272 36.8226 38.0939 32.3599 37.6258 32.0929C37.4722 32.0103 37.3527 31.8758 37.2886 31.7133C37.2245 31.5507 37.2199 31.3706 37.2757 31.205C37.2895 31.1708 39.1774 25.616 41.643 19.7388C41.4358 19.687 41.2318 19.6232 41.0321 19.5475C38.292 18.5072 44.6807 5.06368 44.9829 4.42985C45.0275 4.32683 45.0949 4.23534 45.18 4.16234C45.265 4.08934 45.3656 4.03674 45.474 4.00853C45.5367 3.99283 67.9304 -1.85024 71.0879 0.589917C74.0243 2.85267 72.4488 7.10561 67.6199 20.1305C67.0035 21.7937 66.3244 23.6268 65.3607 26.2619C60.2831 40.1322 66.2904 53.2671 71.3256 64.2695C72.5455 66.936 73.7083 69.4787 74.6425 71.8625C77.542 79.2643 77.1366 85.1591 76.7451 90.8506C76.4687 94.8005 76.2097 98.6506 77.1081 102.799C78.234 107.987 83.3604 112.94 88.4749 117.882C93.1444 122.394 97.8065 126.897 99.6317 131.741C103.571 142.191 83.9483 152.741 83.3844 153.042C83.238 153.124 83.0679 153.154 82.9022 153.127C82.7365 153.099 82.5851 153.016 82.4732 152.89C82.4621 152.877 81.8743 152.209 80.8691 151.042C81.0183 154.204 80.0399 156.668 78.093 158.329C77.8028 158.577 77.4949 158.803 77.1717 159.007C74.0796 160.961 61.7849 164.248 50.36 164.683C45.8987 164.853 41.5536 164.59 37.9096 163.651C35.6375 163.064 33.6345 162.213 32.0359 161.039C31.9788 161.796 31.9161 162.433 31.8452 162.922C31.7794 163.356 31.816 163.799 31.9521 164.216C32.2838 165.198 33.1978 166.039 34.5586 166.722C36.019 167.461 37.9677 167.995 40.2526 168.322C46.7022 169.246 55.6882 168.466 63.9436 165.667C79.4225 160.42 82.4842 156.178 82.4944 156.165C82.5748 156.058 82.6825 155.976 82.806 155.926C82.9295 155.876 83.0641 155.861 83.1956 155.881C83.3272 155.902 83.4507 155.958 83.553 156.043C83.6553 156.129 83.7327 156.24 83.7769 156.366C84.537 158.085 104.381 202.446 133.996 209.332C151.387 213.376 174.668 217.448 193.572 218.336C207.647 218.996 219.24 217.909 224.012 213.75C227.496 210.715 230.267 206.92 231.601 203.112C232.515 200.503 232.75 197.897 232.062 195.545C231.383 193.211 229.782 191.103 227.021 189.458C223.691 187.475 218.7 186.171 211.646 185.947C201.703 185.636 196.978 187.658 193.15 189.298C185.92 192.391 181.739 194.18 154.687 178.308C138.645 168.895 127.723 161.03 120.376 154.742C108.427 144.519 105.829 138.231 106.124 136.316C106.231 135.62 106.623 135.344 107.278 135.444C108.378 135.614 110.935 138.254 114.534 141.976C120.883 148.536 130.59 158.575 139.933 163.72C147.541 167.91 151.691 168.649 154.002 167.577C156.189 166.566 156.789 163.724 157.204 160.721C157.708 157.041 156.797 149.171 154.071 142.342C152.987 139.624 151.616 137.081 149.942 135.059C148.44 135.855 148.223 137.139 149.481 139.14C151.615 142.515 153.472 145.928 154.462 149.519C155.467 153.159 155.582 156.959 154.2 161.056C153.856 162.072 153.359 162.879 152.735 163.489C151.803 164.398 150.616 164.854 149.251 164.94C147.961 165.019 146.514 164.762 144.976 164.241C140.185 162.614 134.404 158.354 129.98 153.793C128.864 152.643 127.78 151.59 126.767 150.608C120.253 144.284 116.54 140.682 124.439 132.155C132.339 123.628 137.958 115.534 138.843 114.24C138.93 109.99 140.771 45.6417 172.702 43.8862C188.772 43.0039 201.93 47.8731 211.912 57.4323C222.221 67.301 229.11 82.159 232.286 100.823C234.979 116.639 238.599 127.75 241.639 137.083C245.601 149.257 248.591 158.437 247.33 171.092C246.669 177.716 245.764 182.729 244.809 186.511C244.993 190.27 244.478 193.941 243.065 197.044C239.782 204.265 239.345 208.389 241.351 210.474C243.399 212.606 248.077 212.836 254.935 212.192C261.753 211.554 265.51 209.877 267.665 206.279C269.877 202.589 270.527 196.798 271.074 188.043C272.139 170.927 315.863 137.965 320.689 134.375L316.61 122.723C314.071 122.574 303.039 121.293 301.592 110.122C300.655 102.86 299.228 89.0018 299.278 77.2612C299.31 70.3315 299.858 64.1235 301.331 60.3575C299.27 51.2298 297.426 40.743 304.864 32.2629C305.376 31.6822 305.921 31.1321 306.497 30.6155C312.862 24.887 325.145 20.49 338.295 19.7222C351.446 18.9544 365.53 21.8371 375.47 30.5998C376.54 31.543 377.554 32.5488 378.505 33.6119C387.092 43.2007 390.59 52.8097 390.963 61.542C391.446 72.9066 386.623 82.7642 380.828 89.1515C375.725 94.7774 372.714 101.717 370.668 106.429C369.676 108.718 368.9 110.508 368.134 111.484C367.892 114.106 367.674 116.575 367.592 118.459C368.221 118.484 368.852 118.45 369.475 118.357C370.29 118.236 371.093 118.044 371.875 117.783C382.81 114.208 388.275 137.316 388.295 137.382C388.32 137.485 388.322 137.593 388.302 137.698C388.282 137.803 388.24 137.902 388.178 137.989L361.2 175.242C361.09 175.394 360.927 175.499 360.743 175.534C360.559 175.57 360.369 175.534 360.211 175.434L338.316 163.478C336.431 164.767 327.92 170.348 323.866 168.85C320.483 167.6 319.075 164.777 318.561 163.373L315.751 164.502C311.956 181.122 306.529 203.124 305.375 207.79L407.689 209.1C408.22 202.447 412.025 149.296 398.499 146.708C384.111 143.953 370.201 196.58 370.161 196.733C370.107 196.918 369.983 197.074 369.815 197.168C369.647 197.263 369.449 197.287 369.264 197.238C369.078 197.188 368.919 197.067 368.821 196.901C368.723 196.735 368.693 196.537 368.738 196.35C368.78 196.196 383.027 142.243 398.774 145.256C414.502 148.267 409.114 209.726 409.101 209.904C409.085 210.09 409 210.263 408.862 210.388C408.725 210.513 408.545 210.582 408.359 210.58L304.472 209.249C304.402 209.253 304.331 209.246 304.263 209.229C304.074 209.182 303.912 209.062 303.811 208.895C303.71 208.728 303.679 208.528 303.725 208.338C303.751 208.228 309.863 183.622 314.099 165.163L291.667 174.162C291.528 174.217 291.377 174.228 291.232 174.194C291.087 174.161 290.955 174.084 290.854 173.974C290.754 173.864 290.689 173.726 290.668 173.578C290.647 173.43 290.671 173.28 290.737 173.146C290.757 173.102 298.536 157.722 307.494 149.862C307.688 149.692 308.656 148.841 309.554 148.048C313.963 144.155 316.343 142.058 317.782 142.058C319.095 142.058 319.55 143.181 319.55 145.541C319.55 147.18 318.114 154.082 316.149 162.759L318.706 161.727C318.758 161.699 318.815 161.68 318.873 161.669C318.967 161.648 319.065 161.646 319.16 161.663C319.256 161.68 319.347 161.716 319.428 161.768C319.51 161.82 319.58 161.888 319.636 161.968C319.691 162.048 319.73 162.137 319.751 162.232C319.751 162.242 320.552 166.051 324.371 167.463C328.204 168.879 337.823 162.028 337.845 162.007C337.957 161.928 338.089 161.882 338.226 161.874C338.363 161.866 338.5 161.897 338.62 161.962L360.387 173.847L386.784 137.396C386.096 134.7 381.064 116.325 372.328 119.183C371.465 119.469 370.579 119.68 369.68 119.814C368.977 119.917 368.266 119.956 367.556 119.931C367.551 120.373 367.577 120.815 367.631 121.254C367.641 121.315 367.646 121.377 367.647 121.439C367.7 123.62 360.741 133.552 352.59 143.041C344.439 152.53 335.066 161.676 330.226 162.412C330.039 162.439 329.851 162.455 329.662 162.459C324.679 162.584 323.294 158.763 323.162 153.473C323.096 150.844 323.341 147.889 323.59 144.888C323.814 142.171 324.042 139.416 324.042 136.886C324.042 132.284 322.668 129.705 321.73 127.95C320.296 125.263 319.69 124.124 323.992 121.824C328.053 119.653 339.788 114.171 348.425 110.932C351.122 109.915 353.525 109.122 355.309 108.708C357.446 108.213 358.885 108.302 359.261 109.222C359.3 109.313 359.326 109.41 359.339 109.509C359.45 110.236 359.622 110.953 359.854 111.652C360.377 113.26 361.306 115.172 362.847 116.557C363.776 117.4 364.907 117.989 366.13 118.265C366.208 116.597 366.38 114.541 366.579 112.343C366.044 112.288 365.566 111.835 365.137 110.929C363.61 107.726 364.545 101.364 365.69 97.8311C365.983 96.9219 366.296 96.1837 366.591 95.706C367.155 94.7996 367.783 94.5409 368.417 95.1405C368.688 95.3965 368.878 95.8945 368.966 96.6752C369.211 99.0063 368.882 103.328 368.48 107.763C368.738 107.181 369.02 106.537 369.32 105.84C371.404 101.035 374.48 93.9625 379.742 88.161C385.32 82.014 389.962 72.5305 389.496 61.6011C389.139 53.1932 385.745 43.9066 377.414 34.6015C376.5 33.5807 375.527 32.615 374.499 31.7095C364.886 23.2313 351.211 20.4743 338.393 21.2227C325.575 21.9711 313.636 26.212 307.498 31.7381C306.965 32.2175 306.46 32.7274 305.986 33.2654C299.501 40.657 300.6 49.9205 302.387 58.2647C303.904 55.4467 304.492 54.4692 305.344 54.519C305.931 54.556 306.216 54.9699 306.646 55.5927C307.328 56.5831 308.561 58.3775 312.043 59.3411C316.517 60.582 319.193 61.153 320.711 61.4182L313.489 52.6517C313.375 52.5136 313.315 52.3385 313.32 52.1592C313.325 51.9799 313.395 51.8086 313.517 51.6772C313.639 51.5458 313.804 51.4633 313.982 51.4451C314.16 51.4269 314.339 51.4741 314.484 51.5781C314.991 51.8923 320.857 55.4328 330.874 57.107C335.771 57.9266 340.524 59.9713 344.305 62.2812C348.983 65.1454 352.219 68.5169 352.488 70.605C352.744 72.6035 352.469 74.869 352.175 76.4869C357.15 72.4141 371.766 61.4773 375.962 69.6986C378.441 74.5466 375.513 82.05 371.394 87.4819C371.071 87.906 370.741 88.3199 370.405 88.7181C368.227 93.2935 364.877 97.88 360.877 101.523C359.048 103.208 357.039 104.686 354.888 105.93C347.481 110.158 337.792 114.974 329.306 117.426C322.902 119.274 317.152 119.775 313.476 117.685C309.903 115.652 307.405 109.469 305.775 102.188C303.484 91.9529 302.852 79.4445 303.379 73.5173C303.63 70.7039 302.893 67.1531 302.003 63.2421C301.136 66.8279 300.793 71.82 300.767 77.2935C300.717 88.9565 302.135 102.738 303.071 109.967C304.494 120.985 316.44 121.286 317.13 121.297C317.286 121.291 317.441 121.336 317.57 121.425C317.7 121.513 317.798 121.641 317.85 121.789L322.262 134.397C322.322 134.549 322.331 134.717 322.286 134.874C322.241 135.032 322.145 135.17 322.014 135.267C321.876 135.369 273.642 170.766 272.561 188.156C272.001 197.14 271.322 203.103 268.946 207.063C266.515 211.118 262.425 212.993 255.088 213.682C247.791 214.368 242.742 214.046 240.311 211.519C237.84 208.949 238.177 204.312 241.747 196.458C242.341 195.13 242.771 193.733 243.027 192.3C241.392 196.478 240.015 197.547 240.008 197.552C239.908 197.633 239.789 197.687 239.662 197.708C239.535 197.729 239.405 197.716 239.285 197.671C239.165 197.626 239.058 197.551 238.976 197.452C238.894 197.353 238.839 197.234 238.817 197.107C238.657 196.444 236.286 187.232 224.734 183.715C212.535 180.003 188.241 185.71 188.175 185.731C188.02 185.766 187.859 185.749 187.714 185.685C187.57 185.62 187.45 185.51 187.372 185.372C187.294 185.234 187.263 185.074 187.283 184.916C187.303 184.759 187.373 184.612 187.483 184.498C187.937 183.974 194.48 176.216 190.027 168.299C189.922 168.114 189.833 167.945 189.758 167.785C187.519 163.165 188.054 154.928 190.112 147.325C192.173 139.704 195.788 132.653 199.7 130.44C199.841 130.362 199.966 130.293 200.074 130.241C202.6 129.01 206.139 129.002 209.677 130.073C212.148 130.824 214.459 132.024 216.496 133.615C218.59 135.251 220.389 137.334 221.591 139.814C223.249 143.232 223.761 147.399 222.328 152.182C221.453 155.088 220.485 158.085 219.585 160.89C217.258 168.113 215.364 173.99 215.965 174.451C216.255 174.671 217.861 172.903 221.478 168.155C224.207 164.572 227.114 163.124 229.938 163.218C232.105 163.291 234.182 164.273 236.065 165.898C237.891 167.479 239.539 169.677 240.9 172.233C242.466 175.177 243.664 178.608 244.309 182.136C244.894 179.087 245.437 175.399 245.875 170.965C247.105 158.62 244.156 149.565 240.246 137.557C237.19 128.175 233.556 117.008 230.844 101.089C227.721 82.7374 220.977 68.1621 210.906 58.5161C201.219 49.2414 188.43 44.5173 172.791 45.3756C141.194 47.1127 140.318 114.31 140.314 114.504C140.311 114.647 140.268 114.786 140.188 114.905C140.17 114.931 134.181 123.827 125.523 133.178C118.607 140.647 121.943 143.884 127.798 149.568C128.82 150.558 129.91 151.619 131.042 152.784C135.323 157.195 140.883 161.309 145.456 162.862C146.817 163.324 148.078 163.551 149.173 163.483C150.186 163.42 151.056 163.095 151.716 162.448C152.177 162.003 152.546 161.393 152.816 160.601C154.091 156.819 153.983 153.301 153.053 149.93C152.108 146.511 150.314 143.217 148.246 139.941C146.354 136.95 146.66 135.051 148.864 133.891C147.933 132.946 146.854 132.161 145.67 131.565C144.895 131.186 144.254 130.544 143.736 129.674C141.393 125.717 141.64 116.524 143.573 106.119C145.488 95.8095 149.04 84.249 153.34 75.4253C156.432 69.074 159.935 64.1087 163.528 61.9689C170.739 57.6734 177.979 54.7426 184.106 55.8902C190.314 57.0553 195.287 62.3227 197.792 74.4274C202.054 95.0186 200.915 109.343 200.547 112.719C203.258 113.025 212.102 114.549 210.842 121.28C209.525 128.328 200.786 125.951 198.783 125.305C196.861 126.885 186.535 134.689 170.736 134.082C162.167 133.752 155.69 133.64 151.924 134.428C151.739 134.465 151.571 134.507 151.407 134.549C153.039 136.629 154.379 139.146 155.444 141.819C158.26 148.88 159.197 157.08 158.669 160.945C158.196 164.37 157.471 167.629 154.626 168.946C151.907 170.203 147.323 169.5 139.233 165.041C129.699 159.792 119.898 149.656 113.488 143.033C110.743 140.194 108.641 138.023 107.614 137.245C108.001 139.482 111.138 144.921 121.343 153.651C128.635 159.889 139.494 167.705 155.44 177.065C181.852 192.562 185.783 190.878 192.583 187.968C196.545 186.273 201.429 184.18 211.696 184.502C219.027 184.73 224.251 186.111 227.78 188.211C230.89 190.059 232.7 192.472 233.484 195.157C234.261 197.823 234.008 200.735 232.997 203.622C231.576 207.673 228.652 211.691 224.981 214.886C219.888 219.329 207.936 220.507 193.518 219.831C174.509 218.938 151.129 214.852 133.675 210.792C105.411 204.21 85.9983 164.671 82.8638 157.911C81.1483 159.482 76.277 163.06 64.4126 167.08C55.9361 169.953 46.6911 170.752 40.0499 169.798C37.6157 169.45 35.5159 168.863 33.9072 168.054C32.199 167.195 31.0261 166.071 30.5636 164.699C30.3513 164.066 30.2923 163.39 30.3913 162.729C30.4908 162.038 30.5756 161.053 30.6502 159.838C30.2109 159.382 29.8197 158.882 29.4828 158.345C28.6342 156.996 28.1349 155.407 28.0648 153.541C27.981 151.294 27.8806 148.981 27.7884 146.697C27.2872 134.419 26.8219 123.076 27.817 119.417C28.1699 118.124 28.7623 117.526 29.6533 117.77C31.0713 118.157 31.8572 125.279 32.1787 133.869C32.5077 142.727 32.469 153.245 32.1529 159.245C33.6778 160.631 35.7932 161.595 38.2745 162.236C41.7664 163.137 45.9715 163.386 50.3093 163.221C61.4901 162.794 73.4291 159.641 76.3903 157.77C76.6556 157.603 76.9087 157.418 77.1477 157.215C78.8872 155.737 79.6704 153.41 79.347 150.351C79.3 149.926 79.2346 149.489 79.1461 149.038C72.0627 140.731 55.82 121.078 51.8296 110.992C49.1687 104.258 45.8407 97.8385 42.6159 93.4368C39.8758 89.704 37.3006 87.4828 35.4385 87.9282C33.9137 88.2922 31.4951 92.5147 28.7052 97.3885C24.1905 105.272 18.7545 114.766 13.042 113.884C10.6308 113.514 9.57032 111.226 9.50583 107.957C9.45884 105.739 9.87437 103.046 10.6179 100.215C11.4002 97.2873 12.4357 94.4338 13.7128 91.6868C17.0426 84.5262 21.8539 78.6831 26.1659 79.8436C29.3907 80.7103 31.8176 81.0059 33.4521 80.7971C34.2813 80.6918 34.8728 80.4645 35.234 80.1208C35.5445 79.8279 35.6882 79.414 35.6642 78.8901C35.6329 78.235 35.3593 77.4256 34.8396 76.473C33.6511 74.286 29.715 73.424 26.3511 72.6848C24.7949 72.342 23.3502 72.0251 22.2667 71.5983C20.6027 70.9404 19.7274 70.0368 20.3153 68.5363C21.232 66.2024 25.3302 66.0167 29.6422 65.8199C33.3277 65.6526 37.179 65.4771 38.749 64.0468C39.0963 63.7299 39.1488 63.5072 39.0023 63.3455C38.2892 62.5593 35.8697 61.8571 33.2438 61.0957C30.0651 60.1718 26.5971 59.1674 24.9202 57.5912C24.5434 57.2373 24.3167 56.8862 24.2145 56.5434C23.951 55.6453 24.4319 54.9875 25.4399 54.5218C26.153 54.1892 27.1905 53.9453 28.4067 53.7725C32.6873 53.1618 39.4676 53.3558 41.935 53.4898C42.7108 53.5313 43.2415 53.4316 43.5262 53.2246C43.5796 53.1902 43.6241 53.1437 43.6561 53.0887C43.6882 53.0338 43.7068 52.9721 43.7105 52.9086C43.7206 52.6933 43.6267 52.4161 43.4286 52.0835C42.7781 50.9988 41.1722 49.6369 38.526 48.2879C37.9806 48.0107 37.4425 47.7336 36.9201 47.4785C33.8934 45.9623 31.4039 44.7187 31.4039 43.4584C31.4039 42.1778 33.9275 41.4572 40.9602 41.4572C43.8358 41.4572 45.3929 41.1227 45.9881 40.6034C46.1604 40.4519 46.1659 40.2505 46.0425 40.0167C45.8075 39.5695 45.2621 39.0586 44.4992 38.5384C41.6522 36.5815 36.1857 34.7502 32.1898 35.1725C24.6014 35.9744 21.0809 47.0581 16.3903 61.8293C16.1912 62.4533 15.991 63.0828 15.7895 63.7179C11.0906 78.4549 8.86271 109.361 8.56235 113.784C10.1287 114.352 15.2699 115.909 20.4931 114.13C24.0578 112.919 25.3616 110.298 26.2498 108.512C27.079 106.849 27.6318 105.73 29.1511 106.262C29.6321 106.429 29.9804 106.796 30.196 107.31C30.4834 108.007 30.4991 109.022 30.196 110.174C29.9113 111.248 29.3419 112.468 28.4454 113.676C26.6026 116.164 23.3493 118.613 18.3168 119.55C9.95637 121.106 4.18219 117.083 1.80784 114.967C1.38954 123.943 -0.0938555 167.568 9.35104 189.27C19.7219 213.108 57.9474 204.83 58.0598 204.806L58.0607 204.797ZM80.5134 148.378C81.7674 149.844 82.7026 150.92 83.1928 151.481C86.2019 149.794 101.451 140.737 98.2626 132.269C96.5553 127.734 92.013 123.347 87.4633 118.949C82.1848 113.85 76.8962 108.74 75.6763 103.117C74.7337 98.7744 75.0055 94.8171 75.2847 90.7573C75.6634 85.2284 76.0577 79.5008 73.2789 72.4058C72.3437 70.0202 71.1975 67.5089 69.9961 64.8895C64.8484 53.6321 58.7029 40.196 63.986 25.7602C64.6632 23.9123 65.4934 21.6689 66.2507 19.6233C70.7949 7.36617 72.2765 3.36731 70.1969 1.76149C67.8014 -0.0864153 48.9015 4.65807 46.1742 5.35473C45.2529 7.29502 40.3816 17.7301 41.5518 18.1727C41.7352 18.24 41.9226 18.2958 42.1129 18.3399C42.1525 18.3482 42.1912 18.3556 42.2336 18.3667C44.8373 12.3398 47.9377 6.40249 50.1499 6.10405C52.281 5.81301 53.1453 6.39694 53.3203 7.70156C53.4484 8.64954 53.0559 9.93013 52.5547 11.5646C52.2543 12.5366 51.9152 13.6416 51.6278 14.8723C51.5588 15.176 51.4689 15.4746 51.3587 15.7658C50.5102 18.0128 48.7237 19.1706 46.8192 19.6861C45.5973 20.0019 44.33 20.1023 43.0738 19.9827C41.1077 24.7595 39.4437 29.4606 38.8798 31.0877C40.6875 31.946 46.7722 34.2291 52.2939 29.1307C56.4723 25.2732 58.4155 25.2751 58.9167 27.9C59.2908 29.8403 58.3924 33.7717 56.9247 38.7509C54.1827 48.0625 60.4526 53.6136 60.471 53.6321C60.5757 53.7292 60.6501 53.8548 60.685 53.9935C60.7199 54.1323 60.714 54.2782 60.6678 54.4136C60.6217 54.5489 60.5373 54.668 60.4251 54.7563C60.3128 54.8445 60.1773 54.8982 60.0352 54.9108C59.9901 54.9108 44.1058 56.1868 44.3463 58.1899C44.5305 59.707 46.9261 59.9371 51.145 60.3381C52.5989 60.4739 54.2527 60.631 56.0936 60.8721C64.2845 61.943 66.0075 74.8811 66.013 74.9162C66.0393 75.1097 65.9882 75.3057 65.8708 75.4615C65.7534 75.6173 65.5793 75.7202 65.3865 75.7477C65.218 75.7729 65.046 75.7376 64.9009 75.6479C64.3021 75.3079 49.8754 67.1337 44.8917 67.5495C42.3662 67.762 38.9139 68.9853 37.1034 70.2946C36.6335 70.6327 36.2991 70.9598 36.1636 71.2453C36.1357 71.2901 36.1239 71.343 36.1301 71.3955C36.1363 71.4479 36.1602 71.4966 36.1977 71.5336C36.5478 71.8893 37.4406 72.1961 39.0622 72.403C47.9792 73.5349 56.6087 79.4925 56.6345 79.5082C56.7759 79.6065 56.8785 79.7513 56.9246 79.9175C56.9707 80.0837 56.9574 80.2609 56.887 80.4183C56.8165 80.5757 56.6934 80.7034 56.5389 80.7794C56.3844 80.8553 56.2083 80.8747 56.0411 80.8341C55.9996 80.823 41.6983 77.1928 41.6983 81.4494C41.6983 83.6567 43.2074 83.9737 45.7172 84.4985C48.2427 85.0279 51.6333 85.7402 55.5242 88.3791C63.8165 94.0004 58.749 107.464 58.2644 108.69C58.1907 109.445 57.9999 115.638 69.3852 129.096C71.9779 132.16 74.1044 135.046 75.7915 137.733C78.3123 141.748 79.8528 145.32 80.5134 148.378ZM43.6727 18.5441C44.6031 18.5922 45.5353 18.4968 46.4368 18.2614C47.9368 17.8558 49.3336 16.9595 49.9813 15.2475C50.0674 15.0155 50.1382 14.7782 50.1932 14.5369C50.4853 13.2878 50.8382 12.1411 51.1487 11.1303C51.5955 9.67142 51.9484 8.52388 51.8618 7.89651C51.8148 7.55003 51.4076 7.41976 50.3443 7.56112C48.6545 7.79118 46.0139 13.0124 43.6718 18.5423L43.6727 18.5441ZM30.7257 157.56C30.7368 157.578 30.7497 157.596 30.7598 157.614C31.0077 151.53 31.0132 142.037 30.7101 133.925C30.4125 125.932 29.9269 119.374 29.2691 119.193C29.1852 119.17 29.3363 119.431 29.235 119.805C28.3026 123.242 28.7623 134.48 29.2608 146.643C29.3529 148.89 29.445 151.171 29.5372 153.494C29.5971 155.079 30.0172 156.425 30.7304 157.56H30.7257ZM146.319 130.238C147.808 130.966 149.145 132.018 150.346 133.302C150.738 133.184 151.164 133.077 151.623 132.98C155.541 132.16 162.112 132.269 170.788 132.605C187.741 133.257 198.106 123.944 198.137 123.92C198.236 123.832 198.357 123.772 198.487 123.748C198.617 123.724 198.751 123.735 198.875 123.781C198.904 123.789 208.236 127.246 209.4 121.009C210.573 114.742 199.716 114.124 199.684 114.121C199.666 114.121 199.648 114.121 199.63 114.121C199.437 114.094 199.263 113.991 199.145 113.835C199.028 113.679 198.976 113.483 199.003 113.29C199.008 113.245 201.196 98.1147 196.357 74.7369C193.999 63.3363 189.462 58.4024 183.839 57.3491C178.137 56.281 171.224 59.1148 164.283 63.2476C160.958 65.2276 157.649 69.9703 154.668 76.0803C150.43 84.7941 146.917 96.2114 145.026 106.394C143.153 116.48 142.856 125.295 145.011 128.931C145.379 129.549 145.812 129.997 146.319 130.246V130.238ZM239.837 195.489C240.667 194.288 242.037 191.691 243.358 186.455C243.107 181.743 241.707 176.878 239.602 172.926C238.325 170.529 236.79 168.476 235.1 167.013C233.467 165.598 231.696 164.744 229.891 164.684C227.534 164.606 225.052 165.886 222.647 169.045C218.393 174.629 216.11 176.412 215.07 175.617C213.644 174.524 215.678 168.202 218.184 160.433C219.066 157.691 220.009 154.763 220.915 151.754C222.234 147.362 221.774 143.559 220.27 140.447C219.173 138.182 217.52 136.275 215.595 134.77C213.701 133.293 211.553 132.179 209.256 131.482C206.055 130.513 202.905 130.497 200.714 131.564C200.598 131.618 200.502 131.671 200.421 131.715C196.867 133.727 193.505 140.416 191.533 147.705C189.556 155.012 189.005 162.858 191.082 167.141C191.16 167.303 191.236 167.447 191.304 167.571C195.103 174.328 191.771 180.907 189.786 183.864C195.853 182.599 214.686 179.12 225.152 182.305C235.178 185.36 238.758 192.517 239.84 195.487L239.837 195.489ZM303.203 59.8475C303.091 60.0572 302.984 60.2799 302.88 60.5127C302.977 60.9396 303.072 61.3609 303.169 61.7804C304.194 66.2486 305.128 70.3232 304.833 73.642C304.319 79.4629 304.943 91.7709 307.202 101.862C308.751 108.779 311.039 114.604 314.193 116.401C317.479 118.271 322.844 117.758 328.895 116.011C337.242 113.601 346.822 108.834 354.156 104.646C356.213 103.455 358.134 102.04 359.884 100.427C362.502 98.0238 364.799 95.2909 366.718 92.2966C365.428 93.2834 364.146 93.9597 362.978 94.2295C361.372 94.5935 359.98 94.2138 359.006 92.8491C356.598 89.4675 357.669 81.9465 360.236 76.4222C361.001 74.7776 361.905 73.2946 362.889 72.1369C363.918 70.9303 365.05 70.071 366.23 69.7347C367.763 69.2976 369.315 69.706 370.764 71.3054C371.172 71.7578 371.531 72.2535 371.832 72.7837C373.398 75.5445 373.469 79.2513 372.43 83.2521C374.995 78.7912 376.387 73.7575 374.653 70.3611C370.445 62.1241 351.527 78.9594 351.468 79.0093C351.377 79.0905 351.267 79.1474 351.148 79.1749C351.03 79.2023 350.906 79.1994 350.789 79.1663C350.601 79.1143 350.441 78.9897 350.345 78.8198C350.248 78.6499 350.223 78.4486 350.274 78.2599C350.279 78.247 351.452 74.0744 351.028 70.788C350.812 69.1091 347.852 66.1811 343.536 63.5386C339.897 61.3092 335.327 59.3448 330.629 58.5623C324.444 57.5274 319.769 55.783 316.909 54.4839L323.025 61.9097C323.116 62.0184 323.174 62.151 323.191 62.2916C323.209 62.4322 323.186 62.5749 323.125 62.7028C323.064 62.8306 322.968 62.9382 322.847 63.0126C322.727 63.0871 322.588 63.1254 322.447 63.1229C322.441 63.1229 320.143 63.1229 311.648 60.7686C307.652 59.6599 306.223 57.5838 305.434 56.4362C305.25 56.1665 305.379 56.0048 305.25 55.9992C305.232 55.9992 304.767 56.9315 303.296 59.671L303.203 59.8475ZM366.29 90.7656C367.324 89.9 368.282 88.9467 369.153 87.9162C369.416 87.3556 369.662 86.796 369.89 86.2373C371.867 81.3404 372.335 76.6514 370.556 73.5164C370.308 73.0807 370.014 72.6733 369.679 72.3014C368.665 71.1797 367.626 70.8757 366.638 71.1594C365.753 71.4135 364.86 72.1101 364.014 73.0997C363.12 74.1447 362.293 75.514 361.58 77.0514C359.195 82.1821 358.111 89.0526 360.211 91.9991C360.788 92.8085 361.65 93.0256 362.663 92.7946C363.752 92.5488 365.006 91.8235 366.296 90.7619L366.29 90.7656ZM366.7 110.862L366.716 110.854L366.781 110.142C367.248 105.137 367.742 99.8351 367.523 97.1039C367.379 97.4338 367.232 97.8338 367.084 98.2875C366.015 101.59 365.11 107.464 366.459 110.293C366.644 110.68 366.684 110.87 366.7 110.862ZM366.175 121.477C366.103 120.91 366.072 120.338 366.083 119.767C364.509 119.467 363.049 118.736 361.865 117.655C360.086 116.061 359.033 113.908 358.448 112.112C358.196 111.349 358.009 110.567 357.887 109.773C357.772 109.697 356.945 109.846 355.633 110.15C353.904 110.551 351.567 111.329 348.931 112.316C340.352 115.535 328.706 120.975 324.678 123.126C321.673 124.734 322.075 125.486 323.02 127.262C324.025 129.15 325.508 131.929 325.508 136.889C325.508 139.476 325.275 142.261 325.047 145.014C324.801 147.994 324.559 150.932 324.621 153.442C324.731 157.877 325.799 161.087 329.617 160.99C329.745 160.984 329.872 160.972 329.998 160.954C334.444 160.277 343.509 151.344 351.466 142.08C359.423 132.816 366.208 123.353 366.165 121.476L366.175 121.477ZM292.981 172.046L314.494 163.416C316.546 154.409 318.069 147.176 318.069 145.538C318.069 144.182 317.997 143.532 317.777 143.532C316.899 143.532 314.664 145.504 310.524 149.158L308.456 150.976C301.529 157.052 295.28 167.827 292.977 172.048L292.981 172.046Z" fill="#161E34"/>
</g>
<defs>
<clipPath id="clip0_2050_674">
<rect width="410" height="220" fill="white"/>
</clipPath>
</defs>
</svg>
