<svg width="16" height="16" viewBox="0 0 16 16" fill="none" xmlns="http://www.w3.org/2000/svg">
<path d="M2.23525 10.033L2.96543 9.86177L2.23525 10.033ZM2.23525 5.96695L2.96543 6.13823L2.23525 5.96695ZM13.7647 5.96696L13.0346 6.13823L13.7647 5.96696ZM13.7647 10.033L14.4949 10.2043L13.7647 10.033ZM10.033 13.7647L9.86177 13.0346L10.033 13.7647ZM5.96696 13.7647L5.79568 14.4949L5.96696 13.7647ZM5.96696 2.23525L6.13823 2.96543L5.96696 2.23525ZM10.033 2.23525L9.86177 2.96543L10.033 2.23525ZM7.25 10.0805C7.25 10.4948 7.58579 10.8305 8 10.8305C8.41421 10.8305 8.75 10.4948 8.75 10.0805H7.25ZM5.91945 5.16945C5.50524 5.16945 5.16945 5.50524 5.16945 5.91945C5.16945 6.33367 5.50524 6.66945 5.91945 6.66945V5.16945ZM10.0805 6.66945C10.4948 6.66945 10.8305 6.33367 10.8305 5.91945C10.8305 5.50524 10.4948 5.16945 10.0805 5.16945V6.66945ZM2.96543 9.86177C2.67819 8.63721 2.67819 7.36279 2.96543 6.13823L1.50507 5.79568C1.16498 7.24555 1.16498 8.75445 1.50507 10.2043L2.96543 9.86177ZM13.0346 6.13823C13.3218 7.36279 13.3218 8.63721 13.0346 9.86177L14.4949 10.2043C14.835 8.75445 14.835 7.24555 14.4949 5.79568L13.0346 6.13823ZM9.86177 13.0346C8.63721 13.3218 7.36279 13.3218 6.13823 13.0346L5.79568 14.4949C7.24555 14.835 8.75445 14.835 10.2043 14.4949L9.86177 13.0346ZM6.13823 2.96543C7.36279 2.67819 8.63721 2.67819 9.86177 2.96543L10.2043 1.50507C8.75445 1.16498 7.24555 1.16498 5.79568 1.50507L6.13823 2.96543ZM6.13823 13.0346C4.56394 12.6653 3.33471 11.4361 2.96543 9.86177L1.50507 10.2043C2.00445 12.3333 3.66674 13.9956 5.79568 14.4949L6.13823 13.0346ZM10.2043 14.4949C12.3333 13.9956 13.9956 12.3333 14.4949 10.2043L13.0346 9.86177C12.6653 11.4361 11.4361 12.6653 9.86177 13.0346L10.2043 14.4949ZM9.86177 2.96543C11.4361 3.33471 12.6653 4.56394 13.0346 6.13823L14.4949 5.79568C13.9956 3.66674 12.3333 2.00445 10.2043 1.50507L9.86177 2.96543ZM5.79568 1.50507C3.66674 2.00445 2.00445 3.66674 1.50507 5.79568L2.96543 6.13823C3.33471 4.56393 4.56394 3.33471 6.13823 2.96543L5.79568 1.50507ZM7.25 5.91945V10.0805H8.75V5.91945H7.25ZM8 5.16945H5.91945V6.66945H8V5.16945ZM8 6.66945H10.0805V5.16945H8V6.66945Z" fill="#4341CC"/>
<path d="M9.33329 8H6.66663" stroke="#4341CC" stroke-width="1.5" stroke-linecap="round"/>
</svg>
