<svg width="16" height="16" viewBox="0 0 16 16" fill="none" xmlns="http://www.w3.org/2000/svg">
<path d="M7.99984 0.666992C6.54944 0.666992 5.13162 1.09708 3.92566 1.90288C2.7197 2.70868 1.77977 3.85399 1.22472 5.19398C0.669681 6.53397 0.524457 8.00846 0.807415 9.43099C1.09037 10.8535 1.78881 12.1602 2.81439 13.1858C3.83998 14.2114 5.14665 14.9098 6.56918 15.1928C7.9917 15.4757 9.46619 15.3305 10.8062 14.7754C12.1462 14.2204 13.2915 13.2805 14.0973 12.0745C14.9031 10.8685 15.3332 9.45072 15.3332 8.00033C15.3309 6.05611 14.5575 4.19218 13.1828 2.81741C11.808 1.44264 9.94406 0.669286 7.99984 0.666992ZM11.1378 6.80499L7.80451 10.1383C7.67949 10.2633 7.50995 10.3335 7.33317 10.3335C7.1564 10.3335 6.98686 10.2633 6.86184 10.1383L4.86184 8.13833C4.79817 8.07683 4.74738 8.00326 4.71244 7.92193C4.6775 7.84059 4.65911 7.75311 4.65834 7.66459C4.65757 7.57607 4.67444 7.48829 4.70796 7.40636C4.74148 7.32443 4.79098 7.24999 4.85358 7.1874C4.91617 7.1248 4.99061 7.0753 5.07254 7.04178C5.15447 7.00826 5.24225 6.99139 5.33077 6.99216C5.41929 6.99293 5.50677 7.01132 5.58811 7.04626C5.66945 7.0812 5.74301 7.13199 5.80451 7.19566L7.33317 8.72433L10.1952 5.86233C10.3209 5.74089 10.4893 5.67369 10.6641 5.67521C10.8389 5.67673 11.0061 5.74684 11.1297 5.87045C11.2533 5.99405 11.3234 6.16126 11.325 6.33606C11.3265 6.51086 11.2593 6.67926 11.1378 6.80499Z" fill="#11D8E2"/>
</svg>
