<svg width="12" height="12" viewBox="0 0 12 12" fill="none" xmlns="http://www.w3.org/2000/svg">
<path d="M6 1C5.01109 1 4.0444 1.29324 3.22215 1.84265C2.39991 2.39206 1.75904 3.17295 1.3806 4.08658C1.00217 5.00021 0.90315 6.00555 1.09608 6.97545C1.289 7.94536 1.76521 8.83627 2.46447 9.53553C3.16373 10.2348 4.05465 10.711 5.02455 10.9039C5.99445 11.0969 6.99979 10.9978 7.91342 10.6194C8.82705 10.241 9.60794 9.6001 10.1573 8.77785C10.7068 7.9556 11 6.98891 11 6C10.9984 4.6744 10.4711 3.40354 9.53381 2.46619C8.59646 1.52885 7.3256 1.00156 6 1ZM8.13955 5.185L5.86682 7.45773C5.78158 7.54294 5.66598 7.59081 5.54546 7.59081C5.42493 7.59081 5.30933 7.54294 5.22409 7.45773L3.86046 6.09409C3.81704 6.05216 3.78241 6.002 3.75859 5.94655C3.73477 5.89109 3.72223 5.83144 3.72171 5.77109C3.72118 5.71074 3.73268 5.65088 3.75554 5.59502C3.77839 5.53916 3.81214 5.48841 3.85482 5.44573C3.8975 5.40305 3.94825 5.3693 4.00411 5.34644C4.05998 5.32359 4.11983 5.31209 4.18018 5.31261C4.24054 5.31314 4.30018 5.32568 4.35564 5.3495C4.4111 5.37332 4.46125 5.40795 4.50318 5.45136L5.54546 6.49364L7.49682 4.54227C7.58255 4.45947 7.69737 4.41366 7.81655 4.41469C7.93573 4.41573 8.04973 4.46353 8.13401 4.54781C8.21829 4.63209 8.26609 4.74609 8.26713 4.86527C8.26816 4.98445 8.22235 5.09927 8.13955 5.185Z" fill="#4341CC"/>
</svg>
