<svg width="48" height="48" viewBox="0 0 48 48" fill="none" xmlns="http://www.w3.org/2000/svg">
<path d="M42.2473 12.3616L32.1892 6.54236C31.171 5.95136 30.0152 5.64014 28.8385 5.64014C27.6618 5.64014 26.506 5.95136 25.4877 6.54236L24.0019 7.40151L15.4297 12.3655L14.9687 11.5636L23.0799 6.87075L22.516 6.54618C21.4971 5.95522 20.3406 5.64404 19.1633 5.64404C17.9861 5.64404 16.8296 5.95522 15.8107 6.54618L5.75265 12.3655C4.73342 12.9552 3.88701 13.8035 3.2985 14.825C2.70999 15.8464 2.4001 17.0052 2.39996 18.1847V29.8233C2.40077 31.0022 2.71098 32.1601 3.29946 33.1809C3.88793 34.2016 4.73398 35.0493 5.75265 35.6387L15.8107 41.458C16.8296 42.049 17.9861 42.3601 19.1633 42.3601C20.3406 42.3601 21.4971 42.049 22.516 41.458L24.0019 40.5988L32.5702 35.6349L33.0312 36.4368L24.9238 41.1296L25.4877 41.4542C26.506 42.0452 27.6618 42.3564 28.8385 42.3564C30.0152 42.3564 31.171 42.0452 32.1892 41.4542L42.2473 35.6349C43.2665 35.046 44.1129 34.1985 44.7015 33.1776C45.29 32.1568 45.5999 30.9985 45.6 29.8194V18.1809C45.6006 17.0012 45.291 15.8422 44.7024 14.8206C44.1138 13.7989 43.267 12.9508 42.2473 12.3616Z" fill="white"/>
<path d="M11.189 21.9568C10.8733 21.9436 10.559 22.006 10.2721 22.1388C9.98519 22.2716 9.73401 22.4711 9.53935 22.7206C9.36742 22.4777 9.13846 22.2809 8.87267 22.1477C8.60689 22.0145 8.31246 21.9489 8.01541 21.9568C7.52652 21.9443 7.05073 22.116 6.68196 22.438V22.0561H5.75616V26.0661H6.68196V24.1031C6.68196 23.2209 7.06296 22.8085 7.90874 22.8085C8.5869 22.8085 8.90311 23.1904 8.90311 24.0344V26.0737H9.82891V24.1031C9.82891 23.2209 10.2099 22.8085 11.0709 22.8085C11.7491 22.8085 12.0615 23.1904 12.0615 24.0344V26.0737H12.9873V23.832C13.0045 23.5875 12.9703 23.3421 12.887 23.1116C12.8036 22.8812 12.673 22.6708 12.5036 22.4941C12.3341 22.3174 12.1296 22.1783 11.9031 22.0857C11.6767 21.9932 11.4334 21.9493 11.189 21.9568Z" fill="#4341CC"/>
<path d="M16.3901 21.957C14.8052 21.957 13.6089 22.866 13.6089 24.069C13.6089 25.2719 14.7785 26.1809 16.3901 26.1809C18.0017 26.1809 19.1675 25.2719 19.1675 24.069C19.1675 22.866 17.975 21.957 16.3901 21.957ZM18.2303 24.069C18.2303 24.7984 17.4683 25.3254 16.3901 25.3254C15.3119 25.3254 14.5461 24.7984 14.5461 24.069C14.5461 23.3395 15.3081 22.8087 16.3901 22.8087C17.4721 22.8087 18.2303 23.3395 18.2303 24.069Z" fill="#4341CC"/>
<path d="M22.4896 21.9573C21.8631 21.9376 21.2518 22.1527 20.7752 22.5607V22.0795H19.8494V26.0895H20.7752V24.2487C20.7752 23.3054 21.3009 22.8242 22.3372 22.8242C23.2744 22.8242 23.6935 23.2329 23.6935 24.1494V26.0895H24.6155V24.0272C24.6155 22.7097 23.8421 21.9573 22.4896 21.9573Z" fill="#4341CC"/>
<path d="M28.2879 21.957C27.6185 21.9451 26.9638 22.1545 26.4249 22.5528V22.0792H25.5029V27.5137H26.4097V25.6042C26.9396 25.9933 27.5816 26.1985 28.2384 26.1885C29.9224 26.1885 30.9282 25.1154 30.9282 24.0766C30.9434 22.843 29.8385 21.957 28.2879 21.957ZM28.1622 22.8087C29.229 22.8087 30.0062 23.3395 30.0062 24.069C30.0062 24.7984 29.2442 25.3254 28.1622 25.3254C27.0802 25.3254 26.3221 24.7984 26.3221 24.069C26.3221 23.3395 27.0954 22.8087 28.1622 22.8087Z" fill="#4341CC"/>
<path d="M41.8587 22.064L40.2166 24.8786H40.19L38.407 22.064H37.3059L39.6756 25.8028L38.6889 27.4984H39.6642L42.834 22.064H41.8587Z" fill="#4341CC"/>
<path d="M35.9346 26.0743H36.8604V22.0796H35.9346V22.5684C35.3957 22.1701 34.741 21.9607 34.0716 21.9727C32.5476 21.9727 31.4047 22.8587 31.4047 24.0846C31.4047 25.1234 32.4067 26.1965 34.0716 26.1965C34.7284 26.207 35.3707 26.0018 35.9003 25.6122L35.9346 26.0743ZM34.1973 25.3105C33.1305 25.3105 32.3571 24.7835 32.3571 24.054C32.3571 23.3246 33.1191 22.7937 34.1973 22.7937C35.2755 22.7937 36.0375 23.3246 36.0375 24.054C36.0375 24.7835 35.2526 25.3258 34.1859 25.3258L34.1973 25.3105Z" fill="#4341CC"/>
</svg>
