<svg width="16" height="16" viewBox="0 0 16 16" fill="none" xmlns="http://www.w3.org/2000/svg">
<path d="M8.00016 1.33325C6.68162 1.33325 5.39269 1.72424 4.29636 2.45679C3.20004 3.18933 2.34555 4.23052 1.84097 5.44869C1.33638 6.66687 1.20436 8.00731 1.4616 9.30052C1.71883 10.5937 2.35377 11.7816 3.28612 12.714C4.21847 13.6463 5.40636 14.2812 6.69956 14.5385C7.99277 14.7957 9.33321 14.6637 10.5514 14.1591C11.7696 13.6545 12.8108 12.8 13.5433 11.7037C14.2758 10.6074 14.6668 9.31846 14.6668 7.99992C14.6647 6.23245 13.9617 4.53797 12.7119 3.28818C11.4621 2.03839 9.76763 1.33534 8.00016 1.33325ZM10.8529 6.91325L7.82259 9.94355C7.70893 10.0572 7.55481 10.121 7.3941 10.121C7.2334 10.121 7.07927 10.0572 6.96562 9.94355L5.14744 8.12537C5.08955 8.06946 5.04338 8.00259 5.01162 7.92865C4.97986 7.85471 4.96314 7.77518 4.96244 7.69471C4.96174 7.61423 4.97707 7.53443 5.00755 7.45995C5.03802 7.38546 5.08302 7.3178 5.13993 7.26089C5.19683 7.20399 5.2645 7.15898 5.33898 7.12851C5.41346 7.09804 5.49327 7.0827 5.57374 7.0834C5.65421 7.0841 5.73374 7.10082 5.80768 7.13258C5.88162 7.16435 5.9485 7.21052 6.00441 7.2684L7.3941 8.6581L9.99592 6.05628C10.1102 5.94588 10.2633 5.8848 10.4222 5.88618C10.5811 5.88756 10.7331 5.9513 10.8455 6.06366C10.9579 6.17603 11.0216 6.32804 11.023 6.48695C11.0244 6.64585 10.9633 6.79895 10.8529 6.91325Z" fill="#4341CC"/>
</svg>
