<svg width="24" height="24" viewBox="0 0 24 24" fill="none" xmlns="http://www.w3.org/2000/svg">
<path fill-rule="evenodd" clip-rule="evenodd" d="M9.55802 21.4562C5.88602 21.4562 2.74902 20.9012 2.74902 18.6772C2.74902 16.4532 5.86602 14.4492 9.55802 14.4492C13.23 14.4492 16.366 16.4342 16.366 18.6572C16.366 20.8802 13.25 21.4562 9.55802 21.4562Z" stroke="#5B698E" stroke-width="1.5" stroke-linecap="round" stroke-linejoin="round"/>
<path fill-rule="evenodd" clip-rule="evenodd" d="M9.55837 11.2778C11.9684 11.2778 13.9224 9.3238 13.9224 6.9138C13.9224 4.5038 11.9684 2.5498 9.55837 2.5498C7.14837 2.5498 5.19437 4.5038 5.19437 6.9138C5.18537 9.3158 7.12637 11.2698 9.52737 11.2778H9.55837Z" stroke="#5B698E" stroke-width="1.5" stroke-linecap="round" stroke-linejoin="round"/>
<path d="M16.8013 10.0786C18.2043 9.70364 19.2383 8.42464 19.2383 6.90264C19.2393 5.31464 18.1123 3.98864 16.6143 3.68164" stroke="#5B698E" stroke-width="1.5" stroke-linecap="round" stroke-linejoin="round"/>
<path d="M17.4609 13.6533C19.4489 13.6533 21.1469 15.0013 21.1469 16.2043C21.1469 16.9133 20.5619 17.6413 19.6719 17.8503" stroke="#5B698E" stroke-width="1.5" stroke-linecap="round" stroke-linejoin="round"/>
</svg>
