<svg width="40" height="40" viewBox="0 0 40 40" fill="none" xmlns="http://www.w3.org/2000/svg">
<path d="M19.9994 1.66675C16.3734 1.66675 12.8288 2.74198 9.8139 4.75647C6.799 6.77096 4.44917 9.63424 3.06157 12.9842C1.67396 16.3342 1.3109 20.0204 2.01829 23.5767C2.72569 27.1331 4.47177 30.3997 7.03573 32.9637C9.5997 35.5277 12.8664 37.2738 16.4227 37.9811C19.979 38.6885 23.6652 38.3255 27.0152 36.9379C30.3652 35.5503 33.2285 33.2004 35.243 30.1855C37.2575 27.1706 38.3327 23.6261 38.3327 20.0001C38.327 15.1395 36.3936 10.4797 32.9567 7.04279C29.5197 3.60587 24.8599 1.67248 19.9994 1.66675ZM27.8444 17.0117L19.511 25.3451C19.1985 25.6575 18.7746 25.8331 18.3327 25.8331C17.8908 25.8331 17.4669 25.6575 17.1544 25.3451L12.1544 20.3451C11.9952 20.1913 11.8682 20.0074 11.7809 19.8041C11.6935 19.6007 11.6475 19.382 11.6456 19.1607C11.6437 18.9395 11.6859 18.72 11.7697 18.5152C11.8535 18.3103 11.9772 18.1242 12.1337 17.9678C12.2902 17.8113 12.4763 17.6875 12.6811 17.6037C12.8859 17.5199 13.1054 17.4777 13.3267 17.4797C13.548 17.4816 13.7667 17.5276 13.97 17.6149C14.1734 17.7023 14.3573 17.8292 14.511 17.9884L18.3327 21.8101L25.4877 14.6551C25.802 14.3515 26.223 14.1835 26.66 14.1873C27.097 14.1911 27.515 14.3664 27.8241 14.6754C28.1331 14.9844 28.3084 15.4024 28.3122 15.8394C28.3159 16.2764 28.148 16.6974 27.8444 17.0117Z" fill="white"/>
</svg>
