<svg width="25" height="24" viewBox="0 0 25 24" fill="none" xmlns="http://www.w3.org/2000/svg">
<path d="M1.5 14.5C1.5 12.1716 2.72429 10.1291 4.56426 8.9812C5.06469 5.044 8.42686 2 12.5 2C16.5731 2 19.9353 5.044 20.4357 8.9812C22.2757 10.1291 23.5 12.1716 23.5 14.5C23.5 17.9216 20.8562 20.7257 17.5 20.9811L7.5 21C4.14378 20.7257 1.5 17.9216 1.5 14.5ZM17.3483 18.9868C19.6817 18.8093 21.5 16.8561 21.5 14.5C21.5 12.927 20.6884 11.4962 19.3771 10.6781L18.5714 10.1754L18.4517 9.23338C18.0735 6.25803 15.5288 4 12.5 4C9.47116 4 6.92647 6.25803 6.5483 9.23338L6.42856 10.1754L5.62288 10.6781C4.31156 11.4962 3.5 12.927 3.5 14.5C3.5 16.8561 5.31833 18.8093 7.6517 18.9868L7.825 19H17.175L17.3483 18.9868ZM13.5 12H16.5L12.5 17L8.5 12H11.5V8H13.5V12Z" fill="#4B5563"/>
</svg>
