<svg width="16" height="16" viewBox="0 0 16 16" fill="none" xmlns="http://www.w3.org/2000/svg">
<g clip-path="url(#clip0_243_892)">
<path d="M8.00033 0.666992C6.54993 0.666992 5.13211 1.09708 3.92615 1.90288C2.72019 2.70868 1.78025 3.85399 1.22521 5.19398C0.67017 6.53397 0.524945 8.00846 0.807903 9.43099C1.09086 10.8535 1.78929 12.1602 2.81488 13.1858C3.84046 14.2114 5.14714 14.9098 6.56967 15.1928C7.99219 15.4757 9.46668 15.3305 10.8067 14.7754C12.1467 14.2204 13.292 13.2805 14.0978 12.0745C14.9036 10.8685 15.3337 9.45072 15.3337 8.00033C15.3314 6.05611 14.558 4.19218 13.1832 2.81741C11.8085 1.44264 9.94454 0.669286 8.00033 0.666992ZM11.1383 6.80499L7.80499 10.1383C7.67998 10.2633 7.51044 10.3335 7.33366 10.3335C7.15689 10.3335 6.98735 10.2633 6.86233 10.1383L4.86233 8.13833C4.79866 8.07683 4.74787 8.00326 4.71293 7.92193C4.67799 7.84059 4.6596 7.75311 4.65883 7.66459C4.65806 7.57607 4.67493 7.48829 4.70845 7.40636C4.74197 7.32443 4.79147 7.24999 4.85406 7.1874C4.91666 7.1248 4.9911 7.0753 5.07303 7.04178C5.15496 7.00826 5.24274 6.99139 5.33126 6.99216C5.41978 6.99293 5.50726 7.01132 5.5886 7.04626C5.66993 7.0812 5.7435 7.13199 5.805 7.19566L7.33366 8.72433L10.1957 5.86233C10.3214 5.74089 10.4898 5.67369 10.6646 5.67521C10.8394 5.67673 11.0066 5.74684 11.1302 5.87045C11.2538 5.99405 11.3239 6.16126 11.3254 6.33606C11.327 6.51086 11.2598 6.67926 11.1383 6.80499Z" fill="#11D8E2"/>
</g>
<defs>
<clipPath id="clip0_243_892">
<rect width="16" height="16" fill="white"/>
</clipPath>
</defs>
</svg>
