<svg width="40" height="40" viewBox="0 0 40 40" fill="none" xmlns="http://www.w3.org/2000/svg">
<path fill-rule="evenodd" clip-rule="evenodd" d="M8.85253 17.9358C13.7165 9.31194 16.1484 5 19.9997 5C23.8509 5 26.2829 9.31194 31.1468 17.9358L31.7529 19.0104C35.7948 26.1768 37.8158 29.76 35.9892 32.38C34.1627 35 29.6437 35 20.6058 35H19.3936C10.3556 35 5.83663 35 4.0101 32.38C2.18358 29.76 4.20453 26.1768 8.24643 19.0105L8.85253 17.9358ZM19.9997 12.0833C20.69 12.0833 21.2497 12.643 21.2497 13.3333V21.6667C21.2497 22.357 20.69 22.9167 19.9997 22.9167C19.3093 22.9167 18.7497 22.357 18.7497 21.6667V13.3333C18.7497 12.643 19.3093 12.0833 19.9997 12.0833ZM19.9997 28.3333C20.9202 28.3333 21.6663 27.5871 21.6663 26.6667C21.6663 25.7462 20.9202 25 19.9997 25C19.0792 25 18.333 25.7462 18.333 26.6667C18.333 27.5871 19.0792 28.3333 19.9997 28.3333Z" fill="#FF1D45"/>
</svg>
