<svg width="96" height="96" viewBox="0 0 96 96" fill="none" xmlns="http://www.w3.org/2000/svg">
<circle opacity="0.08" cx="48" cy="48" r="48" fill="#FF889E"/>
<circle cx="48" cy="48" r="32" fill="#FF889E"/>
<path fill-rule="evenodd" clip-rule="evenodd" d="M47.9998 29.666C44.3739 29.666 40.8293 30.7412 37.8144 32.7557C34.7995 34.7702 32.4497 37.6335 31.0621 40.9835C29.6744 44.3335 29.3114 48.0197 30.0188 51.576C30.7262 55.1323 32.4723 58.399 35.0362 60.963C37.6002 63.5269 40.8669 65.273 44.4232 65.9804C47.9795 66.6878 51.6657 66.3247 55.0157 64.9371C58.3657 63.5495 61.229 61.1997 63.2435 58.1848C65.2579 55.1699 66.3332 51.6253 66.3332 47.9993C66.3274 43.1388 64.3941 38.479 60.9571 35.0421C57.5202 31.6051 52.8604 29.6717 47.9998 29.666ZM46.3003 39.6993C46.3003 38.7604 47.0614 37.9993 48.0003 37.9993C48.9392 37.9993 49.7003 38.7604 49.7003 39.6993V39.8993C49.7003 40.8382 48.9392 41.5993 48.0003 41.5993C47.0614 41.5993 46.3003 40.8382 46.3003 39.8993V39.6993ZM48.0003 42.9993C47.0614 42.9993 46.3003 43.7604 46.3003 44.6993V56.2993C46.3003 57.2382 47.0614 57.9993 48.0003 57.9993C48.9392 57.9993 49.7003 57.2382 49.7003 56.2993V44.6993C49.7003 43.7604 48.9392 42.9993 48.0003 42.9993Z" fill="white"/>
</svg>
