<svg width="38" height="27" viewBox="0 0 38 27" fill="none" xmlns="http://www.w3.org/2000/svg">
<path d="M14.7613 10.5133V9.69154C14.7613 9.18191 14.9005 8.68077 15.1722 8.23909C15.4416 7.7974 15.83 7.43004 16.2992 7.1731L17.2466 6.6571L23.0119 3.50798L23.2701 3.36783C23.5014 3.24042 23.7506 3.14487 24.011 3.07904C24.2692 3.01321 24.5386 2.98136 24.8057 2.98136C25.0729 2.98136 25.3423 3.01321 25.6005 3.07904C25.8587 3.14487 26.1079 3.24255 26.3414 3.36783L26.5996 3.50798L33.3101 7.1731C33.777 7.42792 34.1654 7.79528 34.4371 8.23909C34.7065 8.68077 34.8457 9.18191 34.8457 9.69154V17.3042C34.8457 17.8138 34.7065 18.315 34.4348 18.7567C34.1654 19.1983 33.777 19.5657 33.3101 19.8205L26.3391 23.6279C25.8721 23.8827 25.3423 24.0165 24.8035 24.0165C24.2647 24.0165 23.7348 23.8827 23.2679 23.6279L22.1453 23.0142L23.2746 22.3984C24.2198 21.8824 25.0033 21.1392 25.5511 20.2473C26.0989 19.3512 26.3863 18.3383 26.3863 17.3042V16.7415C26.3863 15.9197 25.6791 15.2529 24.8102 15.2529C23.9414 15.2529 23.2342 15.9176 23.2342 16.7394V17.3021C23.2342 17.8117 23.0928 18.3129 22.8233 18.7545L22.7852 18.8182C22.5315 19.2111 22.1813 19.5424 21.7659 19.7823L14.6648 23.6598C14.2135 23.8934 13.7084 24.0123 13.1943 24.0123C12.6554 24.0123 12.1256 23.8785 11.6586 23.6237L4.62259 19.7823C4.20501 19.5402 3.85478 19.2111 3.60109 18.8161L3.56068 18.7524C3.29127 18.3107 3.14983 17.8096 3.14983 17.3V9.69367C3.14983 9.18403 3.29127 8.68289 3.56068 8.24121L3.60109 8.17751C3.86825 7.76343 4.24093 7.41943 4.6877 7.17523L11.3982 3.51011H11.4004L11.6586 3.36996C11.8899 3.24255 12.1391 3.14699 12.3995 3.08116C12.6577 3.01534 12.9271 2.98348 13.1943 2.98348C13.4614 2.98348 13.7308 3.01534 13.989 3.08116C14.2494 3.14699 14.4964 3.24467 14.7299 3.36996L14.9881 3.51011L15.8524 3.98152L14.9836 4.45505L14.7254 4.59733C13.7802 5.11333 12.9944 5.85655 12.4489 6.75053C11.9033 7.64664 11.6137 8.65954 11.6137 9.69367V10.5155C11.6137 11.3372 12.3209 12.004 13.1875 12.004C14.0541 12.004 14.7636 11.3372 14.7636 10.5155L14.7613 10.5133ZM23.1938 0.20173C22.6684 0.335509 22.1633 0.532992 21.6918 0.789933L20.6658 1.35053L18.9978 2.26363L16.3037 0.792057C15.8322 0.535116 15.3271 0.335509 14.8017 0.203854C14.2786 0.0679512 13.7376 0 13.192 0C12.6465 0 12.1054 0.0679512 11.5823 0.20173C11.057 0.333386 10.5518 0.532992 10.0803 0.789933L3.36985 4.45505L3.11166 4.59733C2.16649 5.11333 1.38296 5.85655 0.835165 6.75053C0.287369 7.64451 0 8.65954 0 9.69367V17.3063C0 18.3405 0.287369 19.3555 0.835165 20.2495C1.38072 21.1435 2.16424 21.8867 3.10942 22.4027L10.0803 26.2101C11.0278 26.7282 12.0987 27 13.192 27C14.1798 27 15.152 26.777 16.0275 26.3502H16.0455L18.9978 24.7385L21.6941 26.2101C22.6393 26.7282 23.7124 27 24.8057 27C25.8991 27 26.97 26.7282 27.9174 26.2101L34.8883 22.4027C35.8335 21.8867 36.6193 21.1435 37.1648 20.2495L37.313 20.0053V19.9883C37.762 19.1601 38 18.2407 38 17.3063V9.69367C38 8.75934 37.7643 7.83987 37.313 7.01172V6.99473L37.1648 6.75053C36.6193 5.85655 35.8335 5.11333 34.8883 4.59733L34.6302 4.45505L27.9152 0.789933C27.4437 0.532992 26.9386 0.333386 26.4155 0.20173C25.8901 0.0679512 25.3491 0 24.8035 0C24.2579 0 23.7191 0.0679512 23.1938 0.20173Z" fill="white"/>
</svg>
